NotoAmalgamated-CondensedBold.ufo
<glyph name="exclam.mono" format="2">
  <advance width="500"/>
  <unicode hex="0021"/>
  <outline>
    <contour>
      <point x="188" y="242" type="line"/>
      <point x="312" y="242" type="line"/>
      <point x="334" y="714" type="line"/>
      <point x="165" y="714" type="line"/>
    </contour>
    <contour>
      <point x="250" y="-11" type="curve" smooth="yes"/>
      <point x="301" y="-11"/>
      <point x="333" y="20"/>
      <point x="333" y="76" type="curve" smooth="yes"/>
      <point x="333" y="133"/>
      <point x="303" y="164"/>
      <point x="250" y="164" type="curve" smooth="yes"/>
      <point x="194" y="164"/>
      <point x="165" y="132"/>
      <point x="165" y="76" type="curve" smooth="yes"/>
      <point x="165" y="20"/>
      <point x="198" y="-11"/>
    </contour>
  </outline>
</glyph>
<glyph name="quotedbl.mono" format="2">
  <advance width="500"/>
  <unicode hex="0022"/>
  <outline>
    <contour>
      <point x="300" y="456" type="line"/>
      <point x="419" y="456" type="line"/>
      <point x="438" y="714" type="line"/>
      <point x="280" y="714" type="line"/>
    </contour>
    <contour>
      <point x="80" y="456" type="line"/>
      <point x="199" y="456" type="line"/>
      <point x="219" y="714" type="line"/>
      <point x="61" y="714" type="line"/>
    </contour>
  </outline>
</glyph>
<glyph name="dollar.serif" format="2">
  <advance width="466"/>
  <unicode hex="0024"/>
  <outline>
    <contour>
      <point x="215" y="41" type="curve"/>
      <point x="215" y="-79" type="line"/>
      <point x="266" y="-79" type="line"/>
      <point x="266" y="43" type="line"/>
      <point x="372" y="59"/>
      <point x="437" y="135"/>
      <point x="437" y="236" type="curve" smooth="yes"/>
      <point x="437" y="344"/>
      <point x="349" y="393"/>
      <point x="266" y="437" type="curve"/>
      <point x="266" y="629" type="line"/>
      <point x="291" y="616"/>
      <point x="311" y="572"/>
      <point x="311" y="514" type="curve"/>
      <point x="388" y="514"/>
      <point x="411" y="549"/>
      <point x="411" y="589" type="curve" smooth="yes"/>
      <point x="411" y="638"/>
      <point x="362" y="680"/>
      <point x="266" y="684" type="curve"/>
      <point x="266" y="760" type="line"/>
      <point x="215" y="760" type="line"/>
      <point x="215" y="684" type="line"/>
      <point x="121" y="671"/>
      <point x="51" y="608"/>
      <point x="51" y="511" type="curve" smooth="yes"/>
      <point x="51" y="428"/>
      <point x="84" y="371"/>
      <point x="215" y="308" type="curve"/>
      <point x="215" y="99" type="line"/>
      <point x="147" y="116"/>
      <point x="128" y="173"/>
      <point x="128" y="268" type="curve"/>
      <point x="87" y="268"/>
      <point x="36" y="247"/>
      <point x="36" y="185" type="curve" smooth="yes"/>
      <point x="36" y="130"/>
      <point x="70" y="48"/>
    </contour>
    <contour>
      <point x="266" y="100" type="curve"/>
      <point x="266" y="286" type="line"/>
      <point x="305" y="258"/>
      <point x="320" y="227"/>
      <point x="320" y="187" type="curve" smooth="yes"/>
      <point x="320" y="146"/>
      <point x="301" y="112"/>
    </contour>
    <contour>
      <point x="215" y="631" type="curve"/>
      <point x="215" y="466" type="line"/>
      <point x="179" y="492"/>
      <point x="165" y="520"/>
      <point x="165" y="556" type="curve" smooth="yes"/>
      <point x="165" y="599"/>
      <point x="191" y="626"/>
    </contour>
  </outline>
</glyph>
<glyph name="ampersand.serif" format="2">
  <advance width="704"/>
  <unicode hex="0026"/>
  <outline>
    <contour>
      <point x="263" y="-10" type="curve" smooth="yes"/>
      <point x="344" y="-10"/>
      <point x="409" y="29"/>
      <point x="445" y="75" type="curve"/>
      <point x="502" y="0" type="line"/>
      <point x="691" y="0" type="line"/>
      <point x="691" y="56" type="line"/>
      <point x="683" y="56" type="line" smooth="yes"/>
      <point x="665" y="56"/>
      <point x="637" y="61"/>
      <point x="617" y="86" type="curve" smooth="yes"/>
      <point x="530" y="192" type="line"/>
      <point x="545" y="233"/>
      <point x="556" y="273"/>
      <point x="564" y="310" type="curve" smooth="yes"/>
      <point x="577" y="371"/>
      <point x="615" y="372"/>
      <point x="652" y="372" type="curve" smooth="yes"/>
      <point x="670" y="372" type="line"/>
      <point x="670" y="428" type="line"/>
      <point x="472" y="428" type="line"/>
      <point x="472" y="382" type="line" smooth="yes"/>
      <point x="472" y="339"/>
      <point x="469" y="290"/>
      <point x="465" y="259" type="curve"/>
      <point x="360" y="408" type="line"/>
      <point x="435" y="453"/>
      <point x="476" y="503"/>
      <point x="476" y="582" type="curve" smooth="yes"/>
      <point x="476" y="658"/>
      <point x="424" y="724"/>
      <point x="308" y="724" type="curve" smooth="yes"/>
      <point x="193" y="724"/>
      <point x="133" y="664"/>
      <point x="133" y="564" type="curve" smooth="yes"/>
      <point x="133" y="503"/>
      <point x="149" y="459"/>
      <point x="196" y="398" type="curve"/>
      <point x="122" y="364"/>
      <point x="39" y="318"/>
      <point x="39" y="199" type="curve" smooth="yes"/>
      <point x="39" y="63"/>
      <point x="124" y="-10"/>
    </contour>
    <contour>
      <point x="300" y="63" type="curve" smooth="yes"/>
      <point x="238" y="63"/>
      <point x="199" y="114"/>
      <point x="199" y="204" type="curve" smooth="yes"/>
      <point x="199" y="268"/>
      <point x="204" y="317"/>
      <point x="235" y="349" type="curve"/>
      <point x="403" y="127" type="line"/>
      <point x="381" y="93"/>
      <point x="344" y="63"/>
    </contour>
    <contour>
      <point x="320" y="455" type="curve"/>
      <point x="290" y="499"/>
      <point x="268" y="536"/>
      <point x="268" y="580" type="curve" smooth="yes"/>
      <point x="268" y="633"/>
      <point x="285" y="662"/>
      <point x="317" y="662" type="curve" smooth="yes"/>
      <point x="346" y="662"/>
      <point x="365" y="631"/>
      <point x="365" y="581" type="curve" smooth="yes"/>
      <point x="365" y="523"/>
      <point x="352" y="486"/>
    </contour>
  </outline>
</glyph>
<glyph name="plus.mono" format="2">
  <advance width="500"/>
  <unicode hex="002B"/>
  <outline>
    <contour>
      <point x="190" y="113" type="line"/>
      <point x="311" y="113" type="line"/>
      <point x="311" y="294" type="line"/>
      <point x="460" y="294" type="line"/>
      <point x="460" y="412" type="line"/>
      <point x="311" y="412" type="line"/>
      <point x="311" y="595" type="line"/>
      <point x="190" y="595" type="line"/>
      <point x="190" y="412" type="line"/>
      <point x="40" y="412" type="line"/>
      <point x="40" y="294" type="line"/>
      <point x="190" y="294" type="line"/>
    </contour>
  </outline>
</glyph>
<glyph name="comma.mono" format="2">
  <advance width="500"/>
  <unicode hex="002C"/>
  <outline>
    <contour>
      <point x="156" y="-137" type="curve"/>
      <point x="276" y="-137" type="line"/>
      <point x="305" y="-64"/>
      <point x="327" y="23"/>
      <point x="343" y="128" type="curve"/>
      <point x="337" y="139" type="line"/>
      <point x="194" y="139" type="line"/>
      <point x="190" y="65"/>
      <point x="172" y="-60"/>
    </contour>
  </outline>
</glyph>
<glyph name="comma.sans" format="2">
  <advance width="273"/>
  <unicode hex="002C"/>
  <outline>
    <contour>
      <point x="225" y="146" type="line"/>
      <point x="67" y="146" type="line"/>
      <point x="63" y="71"/>
      <point x="45" y="-62"/>
      <point x="31" y="-139" type="curve"/>
      <point x="165" y="-139" type="line"/>
      <point x="194" y="-66"/>
      <point x="215" y="25"/>
      <point x="230" y="135" type="curve"/>
    </contour>
  </outline>
</glyph>
<glyph name="four.mono" format="2">
  <advance width="500"/>
  <unicode hex="0034"/>
  <outline>
    <contour>
      <point x="248" y="0" type="line"/>
      <point x="405" y="0" type="line"/>
      <point x="405" y="138" type="line"/>
      <point x="480" y="138" type="line"/>
      <point x="480" y="275" type="line"/>
      <point x="405" y="275" type="line"/>
      <point x="405" y="714" type="line"/>
      <point x="252" y="714" type="line"/>
      <point x="20" y="272" type="line"/>
      <point x="20" y="138" type="line"/>
      <point x="248" y="138" type="line"/>
    </contour>
    <contour>
      <point x="153" y="275" type="line"/>
      <point x="215" y="406" type="line" smooth="yes"/>
      <point x="226" y="429"/>
      <point x="239" y="457"/>
      <point x="247" y="487" type="curve"/>
      <point x="251" y="487" type="line"/>
      <point x="250" y="447"/>
      <point x="248" y="385"/>
      <point x="248" y="372" type="curve" smooth="yes"/>
      <point x="248" y="275" type="line"/>
    </contour>
  </outline>
</glyph>
<glyph name="seven.sans" format="2">
  <advance width="495"/>
  <unicode hex="0037"/>
  <outline>
    <contour>
      <point x="85" y="0" type="line"/>
      <point x="262" y="0" type="line"/>
      <point x="459" y="600" type="line"/>
      <point x="459" y="714" type="line"/>
      <point x="37" y="714" type="line"/>
      <point x="37" y="567" type="line"/>
      <point x="289" y="567" type="line"/>
    </contour>
  </outline>
</glyph>
<glyph name="colon.mono" format="2">
  <advance width="500"/>
  <unicode hex="003A"/>
  <outline>
    <contour>
      <point x="252" y="381" type="curve" smooth="yes"/>
      <point x="303" y="381"/>
      <point x="334" y="413"/>
      <point x="334" y="469" type="curve" smooth="yes"/>
      <point x="334" y="525"/>
      <point x="306" y="557"/>
      <point x="252" y="557" type="curve" smooth="yes"/>
      <point x="196" y="557"/>
      <point x="166" y="525"/>
      <point x="166" y="469" type="curve" smooth="yes"/>
      <point x="166" y="413"/>
      <point x="199" y="381"/>
    </contour>
    <contour>
      <point x="252" y="-11" type="curve" smooth="yes"/>
      <point x="303" y="-11"/>
      <point x="334" y="20"/>
      <point x="334" y="76" type="curve" smooth="yes"/>
      <point x="334" y="133"/>
      <point x="305" y="164"/>
      <point x="252" y="164" type="curve" smooth="yes"/>
      <point x="196" y="164"/>
      <point x="166" y="132"/>
      <point x="166" y="76" type="curve" smooth="yes"/>
      <point x="166" y="20"/>
      <point x="199" y="-11"/>
    </contour>
  </outline>
</glyph>
<glyph name="equal.mono" format="2">
  <advance width="500"/>
  <unicode hex="003D"/>
  <outline>
    <contour>
      <point x="50" y="392" type="line"/>
      <point x="450" y="392" type="line"/>
      <point x="450" y="522" type="line"/>
      <point x="50" y="522" type="line"/>
    </contour>
    <contour>
      <point x="50" y="170" type="line"/>
      <point x="450" y="170" type="line"/>
      <point x="450" y="300" type="line"/>
      <point x="50" y="300" type="line"/>
    </contour>
  </outline>
</glyph>
<glyph name="at.serif" format="2">
  <advance width="767"/>
  <unicode hex="0040"/>
  <outline>
    <contour>
      <point x="396" y="-142" type="curve" smooth="yes"/>
      <point x="518" y="-142"/>
      <point x="593" y="-98"/>
      <point x="659" y="-47" type="curve"/>
      <point x="638" y="-4" type="line"/>
      <point x="584" y="-46"/>
      <point x="505" y="-86"/>
      <point x="405" y="-86" type="curve" smooth="yes"/>
      <point x="241" y="-86"/>
      <point x="128" y="15"/>
      <point x="128" y="237" type="curve" smooth="yes"/>
      <point x="128" y="501"/>
      <point x="280" y="662"/>
      <point x="436" y="662" type="curve" smooth="yes"/>
      <point x="570" y="662"/>
      <point x="668" y="566"/>
      <point x="668" y="379" type="curve" smooth="yes"/>
      <point x="668" y="214"/>
      <point x="617" y="132"/>
      <point x="576" y="132" type="curve" smooth="yes"/>
      <point x="565" y="132"/>
      <point x="546" y="144"/>
      <point x="546" y="203" type="curve" smooth="yes"/>
      <point x="546" y="214"/>
      <point x="547" y="246"/>
      <point x="551" y="275" type="curve" smooth="yes"/>
      <point x="584" y="520" type="line"/>
      <point x="553" y="520" type="line"/>
      <point x="518" y="499" type="line"/>
      <point x="505" y="513"/>
      <point x="464" y="529"/>
      <point x="428" y="529" type="curve" smooth="yes"/>
      <point x="277" y="529"/>
      <point x="204" y="376"/>
      <point x="204" y="248" type="curve" smooth="yes"/>
      <point x="204" y="135"/>
      <point x="261" y="77"/>
      <point x="335" y="77" type="curve" smooth="yes"/>
      <point x="396" y="77"/>
      <point x="432" y="118"/>
      <point x="455" y="170" type="curve"/>
      <point x="461" y="170" type="line"/>
      <point x="481" y="99"/>
      <point x="517" y="77"/>
      <point x="566" y="77" type="curve" smooth="yes"/>
      <point x="654" y="77"/>
      <point x="735" y="192"/>
      <point x="735" y="384" type="curve" smooth="yes"/>
      <point x="735" y="594"/>
      <point x="615" y="714"/>
      <point x="442" y="714" type="curve" smooth="yes"/>
      <point x="241" y="714"/>
      <point x="43" y="543"/>
      <point x="43" y="240" type="curve" smooth="yes"/>
      <point x="43" y="-24"/>
      <point x="211" y="-142"/>
    </contour>
    <contour>
      <point x="371" y="135" type="curve" smooth="yes"/>
      <point x="344" y="135"/>
      <point x="325" y="164"/>
      <point x="325" y="236" type="curve" smooth="yes"/>
      <point x="325" y="329"/>
      <point x="356" y="486"/>
      <point x="428" y="486" type="curve" smooth="yes"/>
      <point x="444" y="486"/>
      <point x="464" y="475"/>
      <point x="471" y="458" type="curve"/>
      <point x="438" y="246" type="line" smooth="yes"/>
      <point x="429" y="191"/>
      <point x="412" y="135"/>
    </contour>
  </outline>
</glyph>
<glyph name="A.serif" format="2">
  <advance width="657"/>
  <unicode hex="0041"/>
  <anchor x="515" y="0" name="bottom"/>
  <anchor x="329" y="714" name="top"/>
  <anchor x="547" y="714" name="topright"/>
  <outline>
    <contour>
      <point x="6" y="0" type="line"/>
      <point x="232" y="0" type="line"/>
      <point x="232" y="56" type="line"/>
      <point x="192" y="56" type="line" smooth="yes"/>
      <point x="168" y="56"/>
      <point x="161" y="69"/>
      <point x="161" y="91" type="curve" smooth="yes"/>
      <point x="161" y="110"/>
      <point x="169" y="140"/>
      <point x="172" y="156" type="curve" smooth="yes"/>
      <point x="191" y="234" type="line"/>
      <point x="381" y="234" type="line"/>
      <point x="407" y="140" type="line" smooth="yes"/>
      <point x="410" y="129"/>
      <point x="416" y="106"/>
      <point x="416" y="89" type="curve" smooth="yes"/>
      <point x="416" y="64"/>
      <point x="399" y="56"/>
      <point x="382" y="56" type="curve" smooth="yes"/>
      <point x="348" y="56" type="line"/>
      <point x="348" y="0" type="line"/>
      <point x="657" y="0" type="line"/>
      <point x="657" y="56" type="line"/>
      <point x="648" y="56" type="line" smooth="yes"/>
      <point x="617" y="56"/>
      <point x="593" y="73"/>
      <point x="580" y="118" type="curve" smooth="yes"/>
      <point x="409" y="714" type="line"/>
      <point x="258" y="714" type="line"/>
      <point x="80" y="127" type="line" smooth="yes"/>
      <point x="63" y="68"/>
      <point x="40" y="56"/>
      <point x="11" y="56" type="curve" smooth="yes"/>
      <point x="6" y="56" type="line"/>
    </contour>
    <contour>
      <point x="210" y="298" type="line"/>
      <point x="262" y="492" type="line" smooth="yes"/>
      <point x="272" y="530"/>
      <point x="281" y="572"/>
      <point x="290" y="614" type="curve"/>
      <point x="297" y="571"/>
      <point x="307" y="530"/>
      <point x="317" y="489" type="curve" smooth="yes"/>
      <point x="363" y="298" type="line"/>
    </contour>
  </outline>
</glyph>
<glyph name="C.serif" format="2">
  <advance width="591"/>
  <unicode hex="0043"/>
  <anchor x="336" y="0" name="bottom"/>
  <anchor x="347" y="714" name="top"/>
  <anchor x="571" y="714" name="topright"/>
  <outline>
    <contour>
      <point x="349" y="-10" type="curve" smooth="yes"/>
      <point x="517" y="-10"/>
      <point x="555" y="71"/>
      <point x="555" y="128" type="curve" smooth="yes"/>
      <point x="555" y="143"/>
      <point x="550" y="163"/>
      <point x="542" y="172" type="curve"/>
      <point x="514" y="126"/>
      <point x="467" y="71"/>
      <point x="378" y="71" type="curve" smooth="yes"/>
      <point x="261" y="71"/>
      <point x="221" y="157"/>
      <point x="221" y="358" type="curve" smooth="yes"/>
      <point x="221" y="548"/>
      <point x="248" y="657"/>
      <point x="339" y="657" type="curve" smooth="yes"/>
      <point x="406" y="657"/>
      <point x="426" y="583"/>
      <point x="426" y="516" type="curve"/>
      <point x="513" y="516"/>
      <point x="554" y="555"/>
      <point x="554" y="606" type="curve" smooth="yes"/>
      <point x="554" y="671"/>
      <point x="486" y="724"/>
      <point x="348" y="724" type="curve" smooth="yes"/>
      <point x="149" y="724"/>
      <point x="45" y="575"/>
      <point x="45" y="358" type="curve" smooth="yes"/>
      <point x="45" y="137"/>
      <point x="146" y="-10"/>
    </contour>
  </outline>
</glyph>
<glyph name="E.display" format="2">
  <advance width="432"/>
  <unicode hex="0045"/>
  <anchor x="227" y="0" name="bottom"/>
  <anchor x="223" y="714" name="top"/>
  <anchor x="413" y="714" name="topright"/>
  <outline>
    <contour>
      <point x="394" y="0" type="line"/>
      <point x="394" y="146" type="line"/>
      <point x="227" y="146" type="line"/>
      <point x="227" y="297" type="line"/>
      <point x="381" y="297" type="line"/>
      <point x="381" y="441" type="line"/>
      <point x="227" y="441" type="line"/>
      <point x="227" y="570" type="line"/>
      <point x="394" y="570" type="line"/>
      <point x="394" y="714" type="line"/>
      <point x="56" y="714" type="line"/>
      <point x="56" y="0" type="line"/>
    </contour>
  </outline>
</glyph>
<glyph name="E.mono" format="2">
  <advance width="500"/>
  <unicode hex="0045"/>
  <anchor x="254" y="0" name="bottom"/>
  <anchor x="392" y="10" name="ogonek"/>
  <anchor x="254" y="714" name="top"/>
  <anchor x="20" y="714" name="topleft"/>
  <anchor x="480" y="714" name="topright"/>
  <outline>
    <contour>
      <point x="45" y="0" type="line"/>
      <point x="460" y="0" type="line"/>
      <point x="460" y="140" type="line"/>
      <point x="200" y="140" type="line"/>
      <point x="200" y="292" type="line"/>
      <point x="444" y="292" type="line"/>
      <point x="444" y="432" type="line"/>
      <point x="200" y="432" type="line"/>
      <point x="200" y="573" type="line"/>
      <point x="460" y="573" type="line"/>
      <point x="460" y="714" type="line"/>
      <point x="45" y="714" type="line"/>
    </contour>
  </outline>
</glyph>
<glyph name="E.serif" format="2">
  <advance width="563"/>
  <unicode hex="0045"/>
  <anchor x="282" y="0" name="bottom"/>
  <anchor x="282" y="714" name="top"/>
  <anchor x="543" y="714" name="topright"/>
  <outline>
    <contour>
      <point x="18" y="0" type="line"/>
      <point x="538" y="0" type="line"/>
      <point x="543" y="187" type="line"/>
      <point x="474" y="187" type="line"/>
      <point x="468" y="139" type="line" smooth="yes"/>
      <point x="462" y="95"/>
      <point x="446" y="64"/>
      <point x="410" y="64" type="curve" smooth="yes"/>
      <point x="261" y="64" type="line"/>
      <point x="261" y="342" type="line"/>
      <point x="457" y="342" type="line"/>
      <point x="457" y="405" type="line"/>
      <point x="261" y="405" type="line"/>
      <point x="261" y="650" type="line"/>
      <point x="385" y="650" type="line" smooth="yes"/>
      <point x="424" y="650"/>
      <point x="438" y="626"/>
      <point x="441" y="575" type="curve" smooth="yes"/>
      <point x="445" y="527" type="line"/>
      <point x="515" y="527" type="line"/>
      <point x="513" y="714" type="line"/>
      <point x="18" y="714" type="line"/>
      <point x="18" y="658" type="line"/>
      <point x="58" y="658" type="line" smooth="yes"/>
      <point x="76" y="658"/>
      <point x="94" y="651"/>
      <point x="94" y="600" type="curve" smooth="yes"/>
      <point x="94" y="109" type="line" smooth="yes"/>
      <point x="94" y="74"/>
      <point x="83" y="56"/>
      <point x="60" y="56" type="curve" smooth="yes"/>
      <point x="18" y="56" type="line"/>
    </contour>
  </outline>
</glyph>
<glyph name="F.mono" format="2">
  <advance width="500"/>
  <unicode hex="0046"/>
  <anchor x="256" y="0" name="bottom"/>
  <anchor x="256" y="714" name="top"/>
  <anchor x="480" y="714" name="topright"/>
  <outline>
    <contour>
      <point x="45" y="0" type="line"/>
      <point x="200" y="0" type="line"/>
      <point x="200" y="265" type="line"/>
      <point x="443" y="265" type="line"/>
      <point x="443" y="405" type="line"/>
      <point x="200" y="405" type="line"/>
      <point x="200" y="574" type="line"/>
      <point x="460" y="574" type="line"/>
      <point x="460" y="714" type="line"/>
      <point x="45" y="714" type="line"/>
    </contour>
  </outline>
</glyph>
<glyph name="G.serif" format="2">
  <advance width="675"/>
  <unicode hex="0047"/>
  <anchor x="368" y="0" name="bottom"/>
  <anchor x="370" y="714" name="top"/>
  <anchor x="655" y="714" name="topright"/>
  <outline>
    <contour>
      <point x="367" y="-10" type="curve" smooth="yes"/>
      <point x="445" y="-10"/>
      <point x="516" y="9"/>
      <point x="587" y="46" type="curve"/>
      <point x="587" y="206" type="line" smooth="yes"/>
      <point x="587" y="262"/>
      <point x="594" y="281"/>
      <point x="630" y="281" type="curve" smooth="yes"/>
      <point x="638" y="281" type="line"/>
      <point x="638" y="337" type="line"/>
      <point x="352" y="337" type="line"/>
      <point x="352" y="281" type="line"/>
      <point x="367" y="281" type="line" smooth="yes"/>
      <point x="408" y="281"/>
      <point x="420" y="262"/>
      <point x="420" y="210" type="curve" smooth="yes"/>
      <point x="420" y="66" type="line"/>
      <point x="404" y="62"/>
      <point x="390" y="60"/>
      <point x="379" y="60" type="curve" smooth="yes"/>
      <point x="263" y="60"/>
      <point x="220" y="166"/>
      <point x="220" y="358" type="curve" smooth="yes"/>
      <point x="220" y="552"/>
      <point x="261" y="657"/>
      <point x="368" y="657" type="curve" smooth="yes"/>
      <point x="431" y="657"/>
      <point x="467" y="604"/>
      <point x="467" y="518" type="curve"/>
      <point x="556" y="518"/>
      <point x="596" y="559"/>
      <point x="596" y="607" type="curve" smooth="yes"/>
      <point x="596" y="672"/>
      <point x="520" y="724"/>
      <point x="370" y="724" type="curve" smooth="yes"/>
      <point x="156" y="724"/>
      <point x="45" y="574"/>
      <point x="45" y="358" type="curve" smooth="yes"/>
      <point x="45" y="137"/>
      <point x="150" y="-10"/>
    </contour>
  </outline>
</glyph>
<glyph name="H.serif" format="2">
  <advance width="698"/>
  <unicode hex="0048"/>
  <anchor x="349" y="0" name="bottom"/>
  <anchor x="349" y="366" name="center"/>
  <anchor x="349" y="714" name="top"/>
  <anchor x="678" y="714" name="topright"/>
  <outline>
    <contour>
      <point x="18" y="0" type="line"/>
      <point x="322" y="0" type="line"/>
      <point x="322" y="56" type="line"/>
      <point x="291" y="56" type="line" smooth="yes"/>
      <point x="271" y="56"/>
      <point x="262" y="76"/>
      <point x="262" y="111" type="curve" smooth="yes"/>
      <point x="262" y="341" type="line"/>
      <point x="438" y="341" type="line"/>
      <point x="438" y="116" type="line" smooth="yes"/>
      <point x="438" y="76"/>
      <point x="428" y="56"/>
      <point x="405" y="56" type="curve" smooth="yes"/>
      <point x="378" y="56" type="line"/>
      <point x="378" y="0" type="line"/>
      <point x="682" y="0" type="line"/>
      <point x="682" y="56" type="line"/>
      <point x="638" y="56" type="line" smooth="yes"/>
      <point x="619" y="56"/>
      <point x="606" y="75"/>
      <point x="606" y="112" type="curve" smooth="yes"/>
      <point x="606" y="602" type="line" smooth="yes"/>
      <point x="606" y="643"/>
      <point x="618" y="658"/>
      <point x="638" y="658" type="curve" smooth="yes"/>
      <point x="682" y="658" type="line"/>
      <point x="682" y="714" type="line"/>
      <point x="378" y="714" type="line"/>
      <point x="378" y="658" type="line"/>
      <point x="404" y="658" type="line" smooth="yes"/>
      <point x="429" y="658"/>
      <point x="438" y="643"/>
      <point x="438" y="602" type="curve" smooth="yes"/>
      <point x="438" y="405" type="line"/>
      <point x="262" y="405" type="line"/>
      <point x="262" y="605" type="line" smooth="yes"/>
      <point x="262" y="643"/>
      <point x="271" y="658"/>
      <point x="291" y="658" type="curve" smooth="yes"/>
      <point x="322" y="658" type="line"/>
      <point x="322" y="714" type="line"/>
      <point x="18" y="714" type="line"/>
      <point x="18" y="658" type="line"/>
      <point x="54" y="658" type="line" smooth="yes"/>
      <point x="76" y="658"/>
      <point x="94" y="643"/>
      <point x="94" y="601" type="curve" smooth="yes"/>
      <point x="94" y="111" type="line" smooth="yes"/>
      <point x="94" y="76"/>
      <point x="81" y="56"/>
      <point x="62" y="56" type="curve" smooth="yes"/>
      <point x="18" y="56" type="line"/>
    </contour>
  </outline>
</glyph>
<glyph name="I.mono" format="2">
  <advance width="500"/>
  <unicode hex="0049"/>
  <anchor x="250" y="0" name="bottom"/>
  <anchor x="344" y="10" name="ogonek"/>
  <anchor x="250" y="714" name="top"/>
  <anchor x="20" y="714" name="topleft"/>
  <anchor x="480" y="714" name="topright"/>
  <outline>
    <contour>
      <point x="55" y="0" type="line"/>
      <point x="445" y="0" type="line"/>
      <point x="445" y="115" type="line"/>
      <point x="328" y="130" type="line"/>
      <point x="328" y="584" type="line"/>
      <point x="445" y="599" type="line"/>
      <point x="445" y="714" type="line"/>
      <point x="55" y="714" type="line"/>
      <point x="55" y="599" type="line"/>
      <point x="176" y="584" type="line"/>
      <point x="176" y="130" type="line"/>
      <point x="55" y="115" type="line"/>
    </contour>
  </outline>
</glyph>
<glyph name="I.serif" format="2">
  <advance width="355"/>
  <unicode hex="0049"/>
  <anchor x="178" y="0" name="bottom"/>
  <anchor x="178" y="714" name="top"/>
  <anchor x="335" y="714" name="topright"/>
  <outline>
    <contour>
      <point x="18" y="0" type="line"/>
      <point x="339" y="0" type="line"/>
      <point x="339" y="56" type="line"/>
      <point x="293" y="56" type="line" smooth="yes"/>
      <point x="277" y="56"/>
      <point x="261" y="74"/>
      <point x="261" y="110" type="curve" smooth="yes"/>
      <point x="261" y="600" type="line" smooth="yes"/>
      <point x="261" y="643"/>
      <point x="273" y="658"/>
      <point x="293" y="658" type="curve" smooth="yes"/>
      <point x="339" y="658" type="line"/>
      <point x="339" y="714" type="line"/>
      <point x="18" y="714" type="line"/>
      <point x="18" y="658" type="line"/>
      <point x="62" y="658" type="line" smooth="yes"/>
      <point x="76" y="658"/>
      <point x="94" y="643"/>
      <point x="94" y="601" type="curve" smooth="yes"/>
      <point x="94" y="109" type="line" smooth="yes"/>
      <point x="94" y="71"/>
      <point x="76" y="56"/>
      <point x="62" y="56" type="curve" smooth="yes"/>
      <point x="18" y="56" type="line"/>
    </contour>
  </outline>
</glyph>
<glyph name="J.serif" format="2">
  <advance width="357"/>
  <unicode hex="004A"/>
  <anchor x="116" y="-240" name="bottom"/>
  <anchor x="186" y="714" name="top"/>
  <anchor x="322" y="714" name="topright"/>
  <outline>
    <contour>
      <point x="-21" y="-240" type="line"/>
      <point x="21" y="-240" type="line" smooth="yes"/>
      <point x="141" y="-240"/>
      <point x="267" y="-182"/>
      <point x="267" y="-1" type="curve" smooth="yes"/>
      <point x="267" y="601" type="line" smooth="yes"/>
      <point x="267" y="643"/>
      <point x="285" y="658"/>
      <point x="300" y="658" type="curve" smooth="yes"/>
      <point x="344" y="658" type="line"/>
      <point x="344" y="714" type="line"/>
      <point x="23" y="714" type="line"/>
      <point x="23" y="658" type="line"/>
      <point x="68" y="658" type="line" smooth="yes"/>
      <point x="81" y="658"/>
      <point x="100" y="643"/>
      <point x="100" y="603" type="curve" smooth="yes"/>
      <point x="100" y="-2" type="line" smooth="yes"/>
      <point x="100" y="-133"/>
      <point x="39" y="-179"/>
      <point x="-1" y="-179" type="curve" smooth="yes"/>
      <point x="-21" y="-179" type="line"/>
    </contour>
  </outline>
</glyph>
<glyph name="K.serif" format="2">
  <advance width="652"/>
  <unicode hex="004B"/>
  <anchor x="356" y="0" name="bottom"/>
  <anchor x="345" y="714" name="top"/>
  <anchor x="632" y="714" name="topright"/>
  <outline>
    <contour>
      <point x="18" y="0" type="line"/>
      <point x="322" y="0" type="line"/>
      <point x="322" y="56" type="line"/>
      <point x="302" y="56" type="line" smooth="yes"/>
      <point x="280" y="56"/>
      <point x="262" y="71"/>
      <point x="262" y="109" type="curve" smooth="yes"/>
      <point x="262" y="279" type="line"/>
      <point x="281" y="310" type="line"/>
      <point x="371" y="125" type="line" smooth="yes"/>
      <point x="418" y="28"/>
      <point x="451" y="0"/>
      <point x="571" y="0" type="curve" smooth="yes"/>
      <point x="652" y="0" type="line"/>
      <point x="652" y="56" type="line"/>
      <point x="646" y="56" type="line" smooth="yes"/>
      <point x="608" y="56"/>
      <point x="590" y="78"/>
      <point x="554" y="142" type="curve" smooth="yes"/>
      <point x="389" y="430" type="line"/>
      <point x="499" y="573" type="line" smooth="yes"/>
      <point x="537" y="623"/>
      <point x="575" y="659"/>
      <point x="625" y="659" type="curve"/>
      <point x="625" y="714" type="line"/>
      <point x="373" y="714" type="line"/>
      <point x="373" y="659" type="line"/>
      <point x="411" y="659"/>
      <point x="424" y="650"/>
      <point x="424" y="628" type="curve" smooth="yes"/>
      <point x="424" y="597"/>
      <point x="405" y="570"/>
      <point x="375" y="522" type="curve" smooth="yes"/>
      <point x="262" y="348" type="line"/>
      <point x="262" y="605" type="line" smooth="yes"/>
      <point x="262" y="643"/>
      <point x="274" y="658"/>
      <point x="294" y="658" type="curve" smooth="yes"/>
      <point x="322" y="658" type="line"/>
      <point x="322" y="714" type="line"/>
      <point x="18" y="714" type="line"/>
      <point x="18" y="658" type="line"/>
      <point x="58" y="658" type="line" smooth="yes"/>
      <point x="79" y="658"/>
      <point x="94" y="643"/>
      <point x="94" y="606" type="curve" smooth="yes"/>
      <point x="94" y="110" type="line" smooth="yes"/>
      <point x="94" y="70"/>
      <point x="76" y="56"/>
      <point x="53" y="56" type="curve" smooth="yes"/>
      <point x="18" y="56" type="line"/>
    </contour>
  </outline>
</glyph>
<glyph name="L.mono" format="2">
  <advance width="500"/>
  <unicode hex="004C"/>
  <anchor x="269" y="0" name="bottom"/>
  <anchor x="250" y="357" name="center"/>
  <anchor x="131" y="714" name="top"/>
  <anchor x="377" y="714" name="topright"/>
  <outline>
    <contour>
      <point x="55" y="0" type="line"/>
      <point x="460" y="0" type="line"/>
      <point x="460" y="140" type="line"/>
      <point x="210" y="140" type="line"/>
      <point x="210" y="714" type="line"/>
      <point x="55" y="714" type="line"/>
    </contour>
  </outline>
</glyph>
<glyph name="L.serif" format="2">
  <advance width="564"/>
  <unicode hex="004C"/>
  <anchor x="282" y="0" name="bottom"/>
  <anchor x="179" y="357" name="center"/>
  <anchor x="178" y="714" name="top"/>
  <anchor x="544" y="714" name="topright"/>
  <outline>
    <contour>
      <point x="18" y="0" type="line"/>
      <point x="538" y="0" type="line"/>
      <point x="543" y="225" type="line"/>
      <point x="494" y="225" type="line"/>
      <point x="476" y="150" type="line" smooth="yes"/>
      <point x="461" y="88"/>
      <point x="440" y="64"/>
      <point x="411" y="64" type="curve" smooth="yes"/>
      <point x="262" y="64" type="line"/>
      <point x="262" y="605" type="line" smooth="yes"/>
      <point x="262" y="643"/>
      <point x="268" y="658"/>
      <point x="298" y="658" type="curve" smooth="yes"/>
      <point x="339" y="658" type="line"/>
      <point x="339" y="714" type="line"/>
      <point x="18" y="714" type="line"/>
      <point x="18" y="658" type="line"/>
      <point x="55" y="658" type="line" smooth="yes"/>
      <point x="76" y="658"/>
      <point x="94" y="643"/>
      <point x="94" y="602" type="curve" smooth="yes"/>
      <point x="94" y="109" type="line" smooth="yes"/>
      <point x="94" y="71"/>
      <point x="76" y="56"/>
      <point x="62" y="56" type="curve" smooth="yes"/>
      <point x="18" y="56" type="line"/>
    </contour>
  </outline>
</glyph>
<glyph name="M.serif" format="2">
  <advance width="802"/>
  <unicode hex="004D"/>
  <anchor x="371" y="0" name="bottom"/>
  <anchor x="401" y="714" name="top"/>
  <anchor x="782" y="714" name="topright"/>
  <outline>
    <contour>
      <point x="18" y="0" type="line"/>
      <point x="235" y="0" type="line"/>
      <point x="235" y="56" type="line"/>
      <point x="228" y="56" type="line" smooth="yes"/>
      <point x="188" y="56"/>
      <point x="165" y="63"/>
      <point x="165" y="119" type="curve" smooth="yes"/>
      <point x="165" y="609" type="line"/>
      <point x="312" y="0" type="line"/>
      <point x="406" y="0" type="line"/>
      <point x="545" y="608" type="line"/>
      <point x="545" y="120" type="line" smooth="yes"/>
      <point x="545" y="71"/>
      <point x="533" y="56"/>
      <point x="498" y="56" type="curve"/>
      <point x="485" y="56" type="line"/>
      <point x="485" y="0" type="line"/>
      <point x="785" y="0" type="line"/>
      <point x="785" y="56" type="line"/>
      <point x="750" y="56" type="line" smooth="yes"/>
      <point x="722" y="56"/>
      <point x="710" y="71"/>
      <point x="710" y="109" type="curve" smooth="yes"/>
      <point x="710" y="605" type="line" smooth="yes"/>
      <point x="710" y="643"/>
      <point x="727" y="658"/>
      <point x="741" y="658" type="curve" smooth="yes"/>
      <point x="785" y="658" type="line"/>
      <point x="785" y="714" type="line"/>
      <point x="499" y="714" type="line"/>
      <point x="397" y="255" type="line"/>
      <point x="295" y="714" type="line"/>
      <point x="18" y="714" type="line"/>
      <point x="18" y="658" type="line"/>
      <point x="58" y="658" type="line" smooth="yes"/>
      <point x="76" y="658"/>
      <point x="94" y="643"/>
      <point x="94" y="600" type="curve" smooth="yes"/>
      <point x="94" y="114" type="line" smooth="yes"/>
      <point x="94" y="70"/>
      <point x="76" y="56"/>
      <point x="45" y="56" type="curve" smooth="yes"/>
      <point x="18" y="56" type="line"/>
    </contour>
  </outline>
</glyph>
<glyph name="N.serif" format="2">
  <advance width="672"/>
  <unicode hex="004E"/>
  <anchor x="336" y="0" name="bottom"/>
  <anchor x="346" y="714" name="top"/>
  <anchor x="652" y="714" name="topright"/>
  <outline>
    <contour>
      <point x="18" y="0" type="line"/>
      <point x="241" y="0" type="line"/>
      <point x="241" y="56" type="line"/>
      <point x="205" y="56" type="line" smooth="yes"/>
      <point x="176" y="56"/>
      <point x="165" y="63"/>
      <point x="165" y="119" type="curve" smooth="yes"/>
      <point x="165" y="549" type="line"/>
      <point x="469" y="0" type="line"/>
      <point x="589" y="0" type="line"/>
      <point x="589" y="595" type="line" smooth="yes"/>
      <point x="589" y="643"/>
      <point x="605" y="658"/>
      <point x="630" y="658" type="curve" smooth="yes"/>
      <point x="665" y="658" type="line"/>
      <point x="665" y="714" type="line"/>
      <point x="442" y="714" type="line"/>
      <point x="442" y="658" type="line"/>
      <point x="478" y="658" type="line" smooth="yes"/>
      <point x="500" y="658"/>
      <point x="518" y="645"/>
      <point x="518" y="599" type="curve" smooth="yes"/>
      <point x="518" y="228" type="line"/>
      <point x="255" y="714" type="line"/>
      <point x="18" y="714" type="line"/>
      <point x="18" y="658" type="line"/>
      <point x="53" y="658" type="line" smooth="yes"/>
      <point x="74" y="658"/>
      <point x="94" y="651"/>
      <point x="94" y="599" type="curve" smooth="yes"/>
      <point x="94" y="119" type="line" smooth="yes"/>
      <point x="94" y="63"/>
      <point x="75" y="56"/>
      <point x="45" y="56" type="curve" smooth="yes"/>
      <point x="18" y="56" type="line"/>
    </contour>
  </outline>
</glyph>
<glyph name="P.mono" format="2">
  <advance width="500"/>
  <unicode hex="0050"/>
  <anchor x="250" y="0" name="bottom"/>
  <anchor x="256" y="714" name="top"/>
  <anchor x="500" y="714" name="topright"/>
  <outline>
    <contour>
      <point x="45" y="0" type="line"/>
      <point x="200" y="0" type="line"/>
      <point x="200" y="245" type="line"/>
      <point x="245" y="245" type="line" smooth="yes"/>
      <point x="410" y="245"/>
      <point x="475" y="345"/>
      <point x="475" y="486" type="curve" smooth="yes"/>
      <point x="475" y="633"/>
      <point x="404" y="714"/>
      <point x="248" y="714" type="curve" smooth="yes"/>
      <point x="45" y="714" type="line"/>
    </contour>
    <contour>
      <point x="230" y="377" type="curve" smooth="yes"/>
      <point x="200" y="377" type="line"/>
      <point x="200" y="584" type="line"/>
      <point x="242" y="584" type="line" smooth="yes"/>
      <point x="297" y="584"/>
      <point x="328" y="552"/>
      <point x="328" y="478" type="curve" smooth="yes"/>
      <point x="328" y="411"/>
      <point x="302" y="377"/>
    </contour>
  </outline>
</glyph>
<glyph name="P.serif" format="2">
  <advance width="553"/>
  <unicode hex="0050"/>
  <anchor x="178" y="0" name="bottom"/>
  <anchor x="277" y="714" name="top"/>
  <anchor x="583" y="714" name="topright"/>
  <outline>
    <contour>
      <point x="18" y="0" type="line"/>
      <point x="356" y="0" type="line"/>
      <point x="356" y="56" type="line"/>
      <point x="300" y="56" type="line" smooth="yes"/>
      <point x="279" y="56"/>
      <point x="262" y="62"/>
      <point x="262" y="114" type="curve" smooth="yes"/>
      <point x="262" y="271" type="line"/>
      <point x="280" y="271" type="line" smooth="yes"/>
      <point x="477" y="271"/>
      <point x="551" y="371"/>
      <point x="551" y="501" type="curve" smooth="yes"/>
      <point x="551" y="642"/>
      <point x="472" y="714"/>
      <point x="298" y="714" type="curve" smooth="yes"/>
      <point x="18" y="714" type="line"/>
      <point x="18" y="658" type="line"/>
      <point x="55" y="658" type="line" smooth="yes"/>
      <point x="74" y="658"/>
      <point x="94" y="651"/>
      <point x="94" y="599" type="curve" smooth="yes"/>
      <point x="94" y="119" type="line" smooth="yes"/>
      <point x="94" y="63"/>
      <point x="74" y="56"/>
      <point x="51" y="56" type="curve" smooth="yes"/>
      <point x="18" y="56" type="line"/>
    </contour>
    <contour>
      <point x="272" y="332" type="curve" smooth="yes"/>
      <point x="261" y="332" type="line"/>
      <point x="261" y="652" type="line"/>
      <point x="284" y="652" type="line" smooth="yes"/>
      <point x="347" y="652"/>
      <point x="377" y="603"/>
      <point x="377" y="497" type="curve" smooth="yes"/>
      <point x="377" y="379"/>
      <point x="345" y="332"/>
    </contour>
  </outline>
</glyph>
<glyph name="Q.serif" format="2">
  <advance width="684"/>
  <unicode hex="0051"/>
  <anchor x="342" y="-240" name="bottom"/>
  <anchor x="342" y="714" name="top"/>
  <anchor x="664" y="714" name="topright"/>
  <outline>
    <contour>
      <point x="492" y="-237" type="curve" smooth="yes"/>
      <point x="570" y="-237" type="line"/>
      <point x="570" y="-176" type="line"/>
      <point x="557" y="-176" type="line" smooth="yes"/>
      <point x="511" y="-176"/>
      <point x="448" y="-148"/>
      <point x="439" y="1" type="curve"/>
      <point x="569" y="42"/>
      <point x="639" y="173"/>
      <point x="639" y="358" type="curve" smooth="yes"/>
      <point x="639" y="580"/>
      <point x="533" y="725"/>
      <point x="344" y="725" type="curve" smooth="yes"/>
      <point x="142" y="725"/>
      <point x="45" y="580"/>
      <point x="45" y="359" type="curve" smooth="yes"/>
      <point x="45" y="164"/>
      <point x="117" y="28"/>
      <point x="264" y="-3" type="curve"/>
      <point x="275" y="-172"/>
      <point x="383" y="-237"/>
    </contour>
    <contour>
      <point x="343" y="58" type="curve" smooth="yes"/>
      <point x="254" y="58"/>
      <point x="221" y="169"/>
      <point x="221" y="358" type="curve" smooth="yes"/>
      <point x="221" y="547"/>
      <point x="254" y="657"/>
      <point x="344" y="657" type="curve" smooth="yes"/>
      <point x="432" y="657"/>
      <point x="464" y="547"/>
      <point x="464" y="358" type="curve" smooth="yes"/>
      <point x="464" y="169"/>
      <point x="432" y="58"/>
    </contour>
  </outline>
</glyph>
<glyph name="R.serif" format="2">
  <advance width="628"/>
  <unicode hex="0052"/>
  <anchor x="344" y="0" name="bottom"/>
  <anchor x="314" y="714" name="top"/>
  <anchor x="608" y="714" name="topright"/>
  <outline>
    <contour>
      <point x="18" y="0" type="line"/>
      <point x="322" y="0" type="line"/>
      <point x="322" y="56" type="line"/>
      <point x="302" y="56" type="line" smooth="yes"/>
      <point x="278" y="56"/>
      <point x="262" y="62"/>
      <point x="262" y="114" type="curve" smooth="yes"/>
      <point x="262" y="308" type="line"/>
      <point x="305" y="308" type="line"/>
      <point x="393" y="90" type="line" smooth="yes"/>
      <point x="423" y="15"/>
      <point x="492" y="0"/>
      <point x="589" y="0" type="curve" smooth="yes"/>
      <point x="628" y="0" type="line"/>
      <point x="628" y="56" type="line"/>
      <point x="622" y="56" type="line" smooth="yes"/>
      <point x="595" y="56"/>
      <point x="576" y="81"/>
      <point x="548" y="141" type="curve" smooth="yes"/>
      <point x="452" y="340" type="line"/>
      <point x="516" y="361"/>
      <point x="570" y="411"/>
      <point x="570" y="525" type="curve" smooth="yes"/>
      <point x="570" y="643"/>
      <point x="506" y="714"/>
      <point x="319" y="714" type="curve" smooth="yes"/>
      <point x="18" y="714" type="line"/>
      <point x="18" y="658" type="line"/>
      <point x="50" y="658" type="line" smooth="yes"/>
      <point x="66" y="658"/>
      <point x="94" y="651"/>
      <point x="94" y="599" type="curve" smooth="yes"/>
      <point x="94" y="114" type="line" smooth="yes"/>
      <point x="94" y="62"/>
      <point x="70" y="56"/>
      <point x="50" y="56" type="curve" smooth="yes"/>
      <point x="18" y="56" type="line"/>
    </contour>
    <contour>
      <point x="299" y="369" type="curve" smooth="yes"/>
      <point x="262" y="369" type="line"/>
      <point x="262" y="652" type="line"/>
      <point x="297" y="652" type="line" smooth="yes"/>
      <point x="359" y="652"/>
      <point x="392" y="611"/>
      <point x="392" y="515" type="curve" smooth="yes"/>
      <point x="392" y="419"/>
      <point x="364" y="369"/>
    </contour>
  </outline>
</glyph>
<glyph name="S.serif" format="2">
  <advance width="504"/>
  <unicode hex="0053"/>
  <anchor x="252" y="0" name="bottom"/>
  <anchor x="261" y="714" name="top"/>
  <anchor x="484" y="714" name="topright"/>
  <outline>
    <contour>
      <point x="237" y="-10" type="curve" smooth="yes"/>
      <point x="385" y="-10"/>
      <point x="480" y="76"/>
      <point x="480" y="206" type="curve" smooth="yes"/>
      <point x="480" y="304"/>
      <point x="444" y="370"/>
      <point x="317" y="429" type="curve" smooth="yes"/>
      <point x="193" y="486"/>
      <point x="170" y="526"/>
      <point x="170" y="574" type="curve" smooth="yes"/>
      <point x="170" y="632"/>
      <point x="202" y="661"/>
      <point x="243" y="661" type="curve" smooth="yes"/>
      <point x="302" y="661"/>
      <point x="335" y="586"/>
      <point x="335" y="519" type="curve"/>
      <point x="425" y="519"/>
      <point x="456" y="553"/>
      <point x="456" y="601" type="curve" smooth="yes"/>
      <point x="456" y="661"/>
      <point x="398" y="724"/>
      <point x="263" y="724" type="curve" smooth="yes"/>
      <point x="136" y="724"/>
      <point x="38" y="648"/>
      <point x="38" y="526" type="curve" smooth="yes"/>
      <point x="38" y="432"/>
      <point x="73" y="363"/>
      <point x="199" y="302" type="curve" smooth="yes"/>
      <point x="290" y="258"/>
      <point x="346" y="224"/>
      <point x="346" y="155" type="curve" smooth="yes"/>
      <point x="346" y="100"/>
      <point x="314" y="52"/>
      <point x="256" y="52" type="curve" smooth="yes"/>
      <point x="197" y="52"/>
      <point x="131" y="104"/>
      <point x="131" y="229" type="curve"/>
      <point x="75" y="229"/>
      <point x="20" y="205"/>
      <point x="20" y="128" type="curve" smooth="yes"/>
      <point x="20" y="70"/>
      <point x="57" y="-10"/>
    </contour>
  </outline>
</glyph>
<glyph name="T.serif" format="2">
  <advance width="569"/>
  <unicode hex="0054"/>
  <anchor x="285" y="0" name="bottom"/>
  <anchor x="285" y="357" name="center"/>
  <anchor x="285" y="714" name="top"/>
  <anchor x="549" y="714" name="topright"/>
  <outline>
    <contour>
      <point x="122" y="0" type="line"/>
      <point x="448" y="0" type="line"/>
      <point x="448" y="56" type="line"/>
      <point x="421" y="56" type="line" smooth="yes"/>
      <point x="390" y="56"/>
      <point x="370" y="63"/>
      <point x="370" y="119" type="curve" smooth="yes"/>
      <point x="370" y="650" type="line"/>
      <point x="426" y="650" type="line" smooth="yes"/>
      <point x="476" y="650"/>
      <point x="490" y="626"/>
      <point x="495" y="582" type="curve" smooth="yes"/>
      <point x="502" y="515" type="line"/>
      <point x="567" y="515" type="line"/>
      <point x="563" y="714" type="line"/>
      <point x="6" y="714" type="line"/>
      <point x="2" y="515" type="line"/>
      <point x="67" y="515" type="line"/>
      <point x="75" y="582" type="line" smooth="yes"/>
      <point x="80" y="626"/>
      <point x="94" y="650"/>
      <point x="144" y="650" type="curve" smooth="yes"/>
      <point x="201" y="650" type="line"/>
      <point x="201" y="121" type="line" smooth="yes"/>
      <point x="201" y="64"/>
      <point x="180" y="56"/>
      <point x="149" y="56" type="curve" smooth="yes"/>
      <point x="122" y="56" type="line"/>
    </contour>
  </outline>
</glyph>
<glyph name="U.serif" format="2">
  <advance width="642"/>
  <unicode hex="0055"/>
  <anchor x="321" y="0" name="bottom"/>
  <anchor x="356" y="714" name="top"/>
  <anchor x="632" y="714" name="topright"/>
  <outline>
    <contour>
      <point x="330" y="-10" type="curve" smooth="yes"/>
      <point x="488" y="-10"/>
      <point x="550" y="80"/>
      <point x="550" y="214" type="curve" smooth="yes"/>
      <point x="550" y="595" type="line" smooth="yes"/>
      <point x="550" y="651"/>
      <point x="573" y="658"/>
      <point x="603" y="658" type="curve" smooth="yes"/>
      <point x="628" y="658" type="line"/>
      <point x="628" y="714" type="line"/>
      <point x="403" y="714" type="line"/>
      <point x="403" y="658" type="line"/>
      <point x="427" y="658" type="line" smooth="yes"/>
      <point x="457" y="658"/>
      <point x="479" y="651"/>
      <point x="479" y="599" type="curve" smooth="yes"/>
      <point x="479" y="216" type="line" smooth="yes"/>
      <point x="479" y="111"/>
      <point x="430" y="64"/>
      <point x="372" y="64" type="curve" smooth="yes"/>
      <point x="300" y="64"/>
      <point x="259" y="99"/>
      <point x="259" y="210" type="curve" smooth="yes"/>
      <point x="259" y="595" type="line" smooth="yes"/>
      <point x="259" y="651"/>
      <point x="283" y="658"/>
      <point x="312" y="658" type="curve" smooth="yes"/>
      <point x="336" y="658" type="line"/>
      <point x="336" y="714" type="line"/>
      <point x="14" y="714" type="line"/>
      <point x="14" y="658" type="line"/>
      <point x="39" y="658" type="line" smooth="yes"/>
      <point x="68" y="658"/>
      <point x="92" y="651"/>
      <point x="92" y="599" type="curve" smooth="yes"/>
      <point x="92" y="218" type="line" smooth="yes"/>
      <point x="92" y="54"/>
      <point x="191" y="-10"/>
    </contour>
  </outline>
</glyph>
<glyph name="V.serif" format="2">
  <advance width="596"/>
  <unicode hex="0056"/>
  <anchor x="298" y="0" name="bottom"/>
  <anchor x="342" y="714" name="top"/>
  <anchor x="576" y="714" name="topright"/>
  <outline>
    <contour>
      <point x="72" y="612" type="curve" smooth="yes"/>
      <point x="237" y="0" type="line"/>
      <point x="355" y="0" type="line"/>
      <point x="515" y="587" type="line" smooth="yes"/>
      <point x="531" y="647"/>
      <point x="542" y="658"/>
      <point x="567" y="658" type="curve" smooth="yes"/>
      <point x="596" y="658" type="line"/>
      <point x="596" y="714" type="line"/>
      <point x="381" y="714" type="line"/>
      <point x="381" y="658" type="line"/>
      <point x="429" y="658" type="line" smooth="yes"/>
      <point x="445" y="658"/>
      <point x="451" y="648"/>
      <point x="451" y="634" type="curve" smooth="yes"/>
      <point x="451" y="619"/>
      <point x="444" y="597"/>
      <point x="437" y="571" type="curve"/>
      <point x="363" y="277" type="line" smooth="yes"/>
      <point x="355" y="244"/>
      <point x="344" y="203"/>
      <point x="339" y="171" type="curve"/>
      <point x="335" y="204"/>
      <point x="324" y="254"/>
      <point x="318" y="281" type="curve" smooth="yes"/>
      <point x="248" y="580" type="line" smooth="yes"/>
      <point x="244" y="597"/>
      <point x="237" y="618"/>
      <point x="237" y="633" type="curve" smooth="yes"/>
      <point x="237" y="649"/>
      <point x="246" y="658"/>
      <point x="261" y="658" type="curve" smooth="yes"/>
      <point x="301" y="658" type="line"/>
      <point x="301" y="714" type="line"/>
      <point x="0" y="714" type="line"/>
      <point x="0" y="658" type="line"/>
      <point x="25" y="658" type="line" smooth="yes"/>
      <point x="42" y="658"/>
      <point x="62" y="649"/>
    </contour>
  </outline>
</glyph>
<glyph name="W.serif" format="2">
  <advance width="902"/>
  <unicode hex="0057"/>
  <anchor x="451" y="0" name="bottom"/>
  <anchor x="493" y="714" name="top"/>
  <anchor x="882" y="714" name="topright"/>
  <outline>
    <contour>
      <point x="65" y="605" type="curve" smooth="yes"/>
      <point x="204" y="0" type="line"/>
      <point x="347" y="0" type="line"/>
      <point x="461" y="453" type="line"/>
      <point x="562" y="0" type="line"/>
      <point x="706" y="0" type="line"/>
      <point x="829" y="580" type="line" smooth="yes"/>
      <point x="843" y="646"/>
      <point x="860" y="658"/>
      <point x="892" y="658" type="curve" smooth="yes"/>
      <point x="908" y="658" type="line"/>
      <point x="908" y="714" type="line"/>
      <point x="679" y="714" type="line"/>
      <point x="679" y="658" type="line"/>
      <point x="699" y="658" type="line" smooth="yes"/>
      <point x="735" y="658"/>
      <point x="751" y="647"/>
      <point x="751" y="615" type="curve" smooth="yes"/>
      <point x="751" y="603"/>
      <point x="747" y="574"/>
      <point x="744" y="557" type="curve" smooth="yes"/>
      <point x="700" y="335" type="line" smooth="yes"/>
      <point x="689" y="278"/>
      <point x="677" y="219"/>
      <point x="671" y="175" type="curve"/>
      <point x="664" y="219"/>
      <point x="651" y="275"/>
      <point x="636" y="339" type="curve" smooth="yes"/>
      <point x="548" y="707" type="line"/>
      <point x="455" y="707" type="line"/>
      <point x="354" y="313" type="line" smooth="yes"/>
      <point x="340" y="260"/>
      <point x="328" y="219"/>
      <point x="321" y="177" type="curve"/>
      <point x="316" y="218"/>
      <point x="300" y="298"/>
      <point x="292" y="344" type="curve" smooth="yes"/>
      <point x="250" y="551" type="line" smooth="yes"/>
      <point x="246" y="571"/>
      <point x="241" y="602"/>
      <point x="241" y="613" type="curve" smooth="yes"/>
      <point x="241" y="644"/>
      <point x="257" y="658"/>
      <point x="290" y="658" type="curve" smooth="yes"/>
      <point x="310" y="658" type="line"/>
      <point x="310" y="714" type="line"/>
      <point x="-5" y="714" type="line"/>
      <point x="-5" y="658" type="line"/>
      <point x="6" y="658" type="line" smooth="yes"/>
      <point x="38" y="658"/>
      <point x="55" y="647"/>
    </contour>
  </outline>
</glyph>
<glyph name="X.mono" format="2">
  <advance width="500"/>
  <unicode hex="0058"/>
  <anchor x="250" y="0" name="bottom"/>
  <anchor x="250" y="714" name="top"/>
  <anchor x="480" y="714" name="topright"/>
  <outline>
    <contour>
      <point x="5" y="0" type="line"/>
      <point x="169" y="0" type="line"/>
      <point x="247" y="238" type="line"/>
      <point x="324" y="0" type="line"/>
      <point x="495" y="0" type="line"/>
      <point x="342" y="359" type="line"/>
      <point x="484" y="714" type="line"/>
      <point x="315" y="714" type="line"/>
      <point x="249" y="486" type="line"/>
      <point x="180" y="714" type="line"/>
      <point x="11" y="714" type="line"/>
      <point x="153" y="362" type="line"/>
    </contour>
  </outline>
</glyph>
<glyph name="X.serif" format="2">
  <advance width="655"/>
  <unicode hex="0058"/>
  <anchor x="328" y="0" name="bottom"/>
  <anchor x="328" y="714" name="top"/>
  <anchor x="635" y="714" name="topright"/>
  <outline>
    <contour>
      <point x="9" y="0" type="line"/>
      <point x="228" y="0" type="line"/>
      <point x="228" y="56" type="line"/>
      <point x="224" y="56" type="line" smooth="yes"/>
      <point x="188" y="56"/>
      <point x="177" y="69"/>
      <point x="177" y="91" type="curve" smooth="yes"/>
      <point x="177" y="112"/>
      <point x="188" y="134"/>
      <point x="199" y="153" type="curve" smooth="yes"/>
      <point x="287" y="293" type="line"/>
      <point x="360" y="158" type="line" smooth="yes"/>
      <point x="383" y="115"/>
      <point x="387" y="104"/>
      <point x="387" y="89" type="curve" smooth="yes"/>
      <point x="387" y="67"/>
      <point x="370" y="56"/>
      <point x="337" y="56" type="curve" smooth="yes"/>
      <point x="333" y="56" type="line"/>
      <point x="333" y="0" type="line"/>
      <point x="645" y="0" type="line"/>
      <point x="645" y="56" type="line"/>
      <point x="634" y="56" type="line" smooth="yes"/>
      <point x="613" y="56"/>
      <point x="590" y="69"/>
      <point x="568" y="109" type="curve" smooth="yes"/>
      <point x="414" y="389" type="line"/>
      <point x="535" y="586" type="line" smooth="yes"/>
      <point x="568" y="640"/>
      <point x="585" y="658"/>
      <point x="617" y="658" type="curve" smooth="yes"/>
      <point x="625" y="658" type="line"/>
      <point x="625" y="714" type="line"/>
      <point x="421" y="714" type="line"/>
      <point x="421" y="658" type="line"/>
      <point x="425" y="658" type="line" smooth="yes"/>
      <point x="451" y="658"/>
      <point x="471" y="653"/>
      <point x="471" y="629" type="curve" smooth="yes"/>
      <point x="471" y="611"/>
      <point x="456" y="585"/>
      <point x="447" y="568" type="curve" smooth="yes"/>
      <point x="380" y="450" type="line"/>
      <point x="315" y="570" type="line" smooth="yes"/>
      <point x="304" y="589"/>
      <point x="292" y="613"/>
      <point x="292" y="627" type="curve" smooth="yes"/>
      <point x="292" y="643"/>
      <point x="301" y="658"/>
      <point x="340" y="658" type="curve" smooth="yes"/>
      <point x="345" y="658" type="line"/>
      <point x="345" y="714" type="line"/>
      <point x="31" y="714" type="line"/>
      <point x="31" y="658" type="line"/>
      <point x="43" y="658" type="line" smooth="yes"/>
      <point x="86" y="658"/>
      <point x="96" y="640"/>
      <point x="114" y="605" type="curve" smooth="yes"/>
      <point x="252" y="352" type="line"/>
      <point x="101" y="125" type="line" smooth="yes"/>
      <point x="75" y="84"/>
      <point x="54" y="56"/>
      <point x="14" y="56" type="curve" smooth="yes"/>
      <point x="9" y="56" type="line"/>
    </contour>
  </outline>
</glyph>
<glyph name="Y.serif" format="2">
  <advance width="620"/>
  <unicode hex="0059"/>
  <anchor x="310" y="0" name="bottom"/>
  <anchor x="310" y="714" name="top"/>
  <anchor x="600" y="714" name="topright"/>
  <outline>
    <contour>
      <point x="140" y="0" type="line"/>
      <point x="484" y="0" type="line"/>
      <point x="484" y="56" type="line"/>
      <point x="444" y="56" type="line" smooth="yes"/>
      <point x="418" y="56"/>
      <point x="397" y="66"/>
      <point x="397" y="123" type="curve" smooth="yes"/>
      <point x="397" y="248" type="line"/>
      <point x="540" y="581" type="line" smooth="yes"/>
      <point x="567" y="643"/>
      <point x="577" y="658"/>
      <point x="609" y="658" type="curve" smooth="yes"/>
      <point x="619" y="658" type="line"/>
      <point x="619" y="714" type="line"/>
      <point x="389" y="714" type="line"/>
      <point x="389" y="658" type="line"/>
      <point x="405" y="658" type="line" smooth="yes"/>
      <point x="445" y="658"/>
      <point x="463" y="645"/>
      <point x="463" y="609" type="curve" smooth="yes"/>
      <point x="463" y="600"/>
      <point x="461" y="579"/>
      <point x="449" y="548" type="curve" smooth="yes"/>
      <point x="405" y="435" type="line" smooth="yes"/>
      <point x="389" y="392"/>
      <point x="373" y="352"/>
      <point x="362" y="319" type="curve"/>
      <point x="352" y="350"/>
      <point x="346" y="374"/>
      <point x="330" y="411" type="curve" smooth="yes"/>
      <point x="269" y="554" type="line" smooth="yes"/>
      <point x="261" y="573"/>
      <point x="257" y="594"/>
      <point x="257" y="609" type="curve" smooth="yes"/>
      <point x="257" y="640"/>
      <point x="281" y="658"/>
      <point x="317" y="658" type="curve" smooth="yes"/>
      <point x="320" y="658" type="line"/>
      <point x="320" y="714" type="line"/>
      <point x="3" y="714" type="line"/>
      <point x="3" y="658" type="line"/>
      <point x="14" y="658" type="line" smooth="yes"/>
      <point x="50" y="658"/>
      <point x="56" y="645"/>
      <point x="74" y="605" type="curve" smooth="yes"/>
      <point x="227" y="249" type="line"/>
      <point x="227" y="124" type="line" smooth="yes"/>
      <point x="227" y="67"/>
      <point x="205" y="56"/>
      <point x="170" y="56" type="curve" smooth="yes"/>
      <point x="140" y="56" type="line"/>
    </contour>
  </outline>
</glyph>
<glyph name="Z.mono" format="2">
  <advance width="500"/>
  <unicode hex="005A"/>
  <anchor x="266" y="0" name="bottom"/>
  <anchor x="254" y="714" name="top"/>
  <anchor x="480" y="714" name="topright"/>
  <outline>
    <contour>
      <point x="45" y="0" type="line"/>
      <point x="462" y="0" type="line"/>
      <point x="462" y="140" type="line"/>
      <point x="222" y="140" type="line"/>
      <point x="461" y="601" type="line"/>
      <point x="461" y="714" type="line"/>
      <point x="49" y="714" type="line"/>
      <point x="49" y="574" type="line"/>
      <point x="294" y="574" type="line"/>
      <point x="45" y="113" type="line"/>
    </contour>
  </outline>
</glyph>
<glyph name="Z.serif" format="2">
  <advance width="601"/>
  <unicode hex="005A"/>
  <anchor x="301" y="0" name="bottom"/>
  <anchor x="301" y="714" name="top"/>
  <anchor x="581" y="714" name="topright"/>
  <outline>
    <contour>
      <point x="38" y="0" type="line"/>
      <point x="559" y="0" type="line"/>
      <point x="563" y="214" type="line"/>
      <point x="490" y="214" type="line"/>
      <point x="486" y="169" type="line" smooth="yes"/>
      <point x="482" y="117"/>
      <point x="467" y="64"/>
      <point x="385" y="64" type="curve" smooth="yes"/>
      <point x="227" y="64" type="line"/>
      <point x="541" y="661" type="line"/>
      <point x="541" y="714" type="line"/>
      <point x="59" y="714" type="line"/>
      <point x="54" y="500" type="line"/>
      <point x="127" y="500" type="line"/>
      <point x="131" y="557" type="line" smooth="yes"/>
      <point x="135" y="614"/>
      <point x="144" y="650"/>
      <point x="200" y="650" type="curve" smooth="yes"/>
      <point x="351" y="650" type="line"/>
      <point x="38" y="52" type="line"/>
    </contour>
  </outline>
</glyph>
<glyph name="bracketleft.mono" format="2">
  <advance width="500"/>
  <unicode hex="005B"/>
  <outline>
    <contour>
      <point x="171" y="-166" type="line"/>
      <point x="409" y="-166" type="line"/>
      <point x="409" y="-54" type="line"/>
      <point x="307" y="-54" type="line"/>
      <point x="307" y="618" type="line"/>
      <point x="409" y="618" type="line"/>
      <point x="409" y="731" type="line"/>
      <point x="171" y="731" type="line"/>
    </contour>
  </outline>
</glyph>
<glyph name="asciicircum.mono" format="2">
  <advance width="500"/>
  <unicode hex="005E"/>
  <outline>
    <contour>
      <point x="10" y="264" type="line"/>
      <point x="149" y="264" type="line"/>
      <point x="250" y="524" type="line"/>
      <point x="351" y="264" type="line"/>
      <point x="490" y="264" type="line"/>
      <point x="287" y="714" type="line"/>
      <point x="213" y="714" type="line"/>
    </contour>
  </outline>
</glyph>
<glyph name="underscore.mono" format="2">
  <advance width="500"/>
  <unicode hex="005F"/>
  <outline>
    <contour>
      <point x="0" y="-198" type="line"/>
      <point x="500" y="-198" type="line"/>
      <point x="500" y="-68" type="line"/>
      <point x="0" y="-68" type="line"/>
    </contour>
  </outline>
</glyph>
<glyph name="grave.mono" format="2">
  <advance width="500"/>
  <unicode hex="0060"/>
  <outline>
    <contour>
      <point x="248" y="606" type="curve"/>
      <point x="351" y="606" type="line"/>
      <point x="351" y="619" type="line"/>
      <point x="330" y="649"/>
      <point x="288" y="725"/>
      <point x="270" y="766" type="curve"/>
      <point x="109" y="766" type="line"/>
      <point x="109" y="757" type="line"/>
      <point x="135" y="721"/>
      <point x="214" y="637"/>
    </contour>
  </outline>
</glyph>
<glyph name="grave.serif" format="2">
  <advance width="329"/>
  <unicode hex="0060"/>
  <outline>
    <contour>
      <point x="213" y="606" type="curve"/>
      <point x="289" y="606" type="line"/>
      <point x="289" y="619" type="line"/>
      <point x="265" y="657"/>
      <point x="219" y="721"/>
      <point x="202" y="766" type="curve"/>
      <point x="40" y="766" type="line"/>
      <point x="40" y="756" type="line"/>
      <point x="61" y="721"/>
      <point x="155" y="642"/>
    </contour>
  </outline>
</glyph>
<glyph name="b.serif" format="2">
  <advance width="563"/>
  <unicode hex="0062"/>
  <anchor x="282" y="0" name="bottom"/>
  <anchor x="150" y="760" name="top"/>
  <anchor x="543" y="760" name="topright"/>
  <outline>
    <contour>
      <point x="357" y="-10" type="curve" smooth="yes"/>
      <point x="468" y="-10"/>
      <point x="528" y="76"/>
      <point x="528" y="270" type="curve" smooth="yes"/>
      <point x="528" y="463"/>
      <point x="470" y="548"/>
      <point x="363" y="548" type="curve" smooth="yes"/>
      <point x="301" y="548"/>
      <point x="262" y="516"/>
      <point x="239" y="474" type="curve"/>
      <point x="234" y="474" type="line"/>
      <point x="238" y="505"/>
      <point x="242" y="556"/>
      <point x="242" y="593" type="curve" smooth="yes"/>
      <point x="242" y="760" type="line"/>
      <point x="13" y="760" type="line"/>
      <point x="13" y="704" type="line"/>
      <point x="16" y="704" type="line" smooth="yes"/>
      <point x="51" y="704"/>
      <point x="78" y="694"/>
      <point x="78" y="638" type="curve" smooth="yes"/>
      <point x="78" y="126" type="line" smooth="yes"/>
      <point x="78" y="65"/>
      <point x="46" y="56"/>
      <point x="18" y="56" type="curve" smooth="yes"/>
      <point x="13" y="56" type="line"/>
      <point x="13" y="0" type="line"/>
      <point x="190" y="0" type="line"/>
      <point x="221" y="78" type="line"/>
      <point x="228" y="78" type="line"/>
      <point x="252" y="26"/>
      <point x="293" y="-10"/>
    </contour>
    <contour>
      <point x="306" y="66" type="curve" smooth="yes"/>
      <point x="255" y="66"/>
      <point x="241" y="139"/>
      <point x="241" y="271" type="curve" smooth="yes"/>
      <point x="241" y="407"/>
      <point x="254" y="474"/>
      <point x="305" y="474" type="curve" smooth="yes"/>
      <point x="347" y="474"/>
      <point x="365" y="408"/>
      <point x="365" y="272" type="curve" smooth="yes"/>
      <point x="365" y="139"/>
      <point x="347" y="66"/>
    </contour>
  </outline>
</glyph>
<glyph name="c.serif" format="2">
  <advance width="461"/>
  <unicode hex="0063"/>
  <anchor x="251" y="0" name="bottom"/>
  <anchor x="251" y="536" name="top"/>
  <anchor x="441" y="536" name="topright"/>
  <outline>
    <contour>
      <point x="254" y="-10" type="curve" smooth="yes"/>
      <point x="396" y="-10"/>
      <point x="431" y="53"/>
      <point x="431" y="103" type="curve" smooth="yes"/>
      <point x="431" y="124"/>
      <point x="418" y="139"/>
      <point x="401" y="148" type="curve"/>
      <point x="382" y="100"/>
      <point x="343" y="65"/>
      <point x="289" y="65" type="curve" smooth="yes"/>
      <point x="223" y="65"/>
      <point x="198" y="134"/>
      <point x="198" y="267" type="curve" smooth="yes"/>
      <point x="198" y="436"/>
      <point x="221" y="486"/>
      <point x="257" y="486" type="curve" smooth="yes"/>
      <point x="289" y="486"/>
      <point x="299" y="424"/>
      <point x="299" y="353" type="curve"/>
      <point x="415" y="353"/>
      <point x="432" y="402"/>
      <point x="432" y="444" type="curve" smooth="yes"/>
      <point x="432" y="499"/>
      <point x="388" y="550"/>
      <point x="252" y="550" type="curve" smooth="yes"/>
      <point x="130" y="550"/>
      <point x="34" y="483"/>
      <point x="34" y="266" type="curve" smooth="yes"/>
      <point x="34" y="59"/>
      <point x="121" y="-10"/>
    </contour>
  </outline>
</glyph>
<glyph name="d.serif" format="2">
  <advance width="563"/>
  <unicode hex="0064"/>
  <anchor x="282" y="0" name="bottom"/>
  <anchor x="282" y="268" name="center"/>
  <anchor x="394" y="760" name="top"/>
  <anchor x="543" y="760" name="topright"/>
  <outline>
    <contour>
      <point x="203" y="-10" type="curve" smooth="yes"/>
      <point x="267" y="-10"/>
      <point x="307" y="22"/>
      <point x="332" y="75" type="curve"/>
      <point x="337" y="75" type="line"/>
      <point x="366" y="0" type="line"/>
      <point x="550" y="0" type="line"/>
      <point x="550" y="56" type="line"/>
      <point x="543" y="56" type="line" smooth="yes"/>
      <point x="502" y="56"/>
      <point x="483" y="73"/>
      <point x="483" y="135" type="curve" smooth="yes"/>
      <point x="483" y="760" type="line"/>
      <point x="246" y="760" type="line"/>
      <point x="246" y="704" type="line"/>
      <point x="254" y="704" type="line" smooth="yes"/>
      <point x="290" y="704"/>
      <point x="320" y="697"/>
      <point x="320" y="643" type="curve" smooth="yes"/>
      <point x="320" y="588" type="line" smooth="yes"/>
      <point x="320" y="549"/>
      <point x="320" y="506"/>
      <point x="321" y="476" type="curve"/>
      <point x="317" y="476" type="line"/>
      <point x="294" y="517"/>
      <point x="261" y="548"/>
      <point x="200" y="548" type="curve" smooth="yes"/>
      <point x="94" y="548"/>
      <point x="32" y="460"/>
      <point x="32" y="267" type="curve" smooth="yes"/>
      <point x="32" y="75"/>
      <point x="94" y="-10"/>
    </contour>
    <contour>
      <point x="254" y="66" type="curve" smooth="yes"/>
      <point x="212" y="66"/>
      <point x="196" y="133"/>
      <point x="196" y="268" type="curve" smooth="yes"/>
      <point x="196" y="401"/>
      <point x="212" y="474"/>
      <point x="255" y="474" type="curve" smooth="yes"/>
      <point x="305" y="474"/>
      <point x="320" y="401"/>
      <point x="320" y="269" type="curve" smooth="yes"/>
      <point x="320" y="136"/>
      <point x="305" y="66"/>
    </contour>
  </outline>
</glyph>
<glyph name="e.serif" format="2">
  <advance width="499"/>
  <unicode hex="0065"/>
  <anchor x="260" y="0" name="bottom"/>
  <anchor x="260" y="536" name="top"/>
  <anchor x="479" y="536" name="topright"/>
  <outline>
    <contour>
      <point x="267" y="-10" type="curve" smooth="yes"/>
      <point x="401" y="-10"/>
      <point x="452" y="54"/>
      <point x="452" y="109" type="curve" smooth="yes"/>
      <point x="452" y="133"/>
      <point x="436" y="149"/>
      <point x="416" y="155" type="curve"/>
      <point x="397" y="105"/>
      <point x="366" y="67"/>
      <point x="309" y="67" type="curve" smooth="yes"/>
      <point x="237" y="67"/>
      <point x="200" y="125"/>
      <point x="198" y="257" type="curve"/>
      <point x="468" y="257" type="line"/>
      <point x="468" y="308" type="line" smooth="yes"/>
      <point x="468" y="466"/>
      <point x="388" y="550"/>
      <point x="257" y="550" type="curve" smooth="yes"/>
      <point x="115" y="550"/>
      <point x="34" y="453"/>
      <point x="34" y="265" type="curve" smooth="yes"/>
      <point x="34" y="91"/>
      <point x="109" y="-10"/>
    </contour>
    <contour>
      <point x="308" y="322" type="curve"/>
      <point x="200" y="322" type="line"/>
      <point x="200" y="426"/>
      <point x="226" y="483"/>
      <point x="261" y="483" type="curve" smooth="yes"/>
      <point x="294" y="483"/>
      <point x="309" y="423"/>
    </contour>
  </outline>
</glyph>
<glyph name="f.serif" format="2">
  <advance width="363"/>
  <unicode hex="0066"/>
  <anchor x="182" y="0" name="bottom"/>
  <anchor x="242" y="769" name="top"/>
  <anchor x="433" y="769" name="topright"/>
  <outline>
    <contour>
      <point x="11" y="0" type="line"/>
      <point x="347" y="0" type="line"/>
      <point x="347" y="56" type="line"/>
      <point x="303" y="56" type="line" smooth="yes"/>
      <point x="284" y="56"/>
      <point x="250" y="63"/>
      <point x="250" y="119" type="curve" smooth="yes"/>
      <point x="250" y="462" type="line"/>
      <point x="363" y="462" type="line"/>
      <point x="363" y="536" type="line"/>
      <point x="250" y="536" type="line"/>
      <point x="250" y="590" type="line" smooth="yes"/>
      <point x="250" y="679"/>
      <point x="263" y="709"/>
      <point x="284" y="709" type="curve" smooth="yes"/>
      <point x="307" y="709"/>
      <point x="312" y="653"/>
      <point x="312" y="622" type="curve"/>
      <point x="402" y="622"/>
      <point x="421" y="657"/>
      <point x="421" y="695" type="curve" smooth="yes"/>
      <point x="421" y="730"/>
      <point x="398" y="769"/>
      <point x="274" y="769" type="curve" smooth="yes"/>
      <point x="137" y="769"/>
      <point x="88" y="695"/>
      <point x="88" y="569" type="curve" smooth="yes"/>
      <point x="88" y="536" type="line"/>
      <point x="15" y="536" type="line"/>
      <point x="15" y="462" type="line"/>
      <point x="88" y="462" type="line"/>
      <point x="88" y="119" type="line" smooth="yes"/>
      <point x="88" y="63"/>
      <point x="50" y="56"/>
      <point x="35" y="56" type="curve" smooth="yes"/>
      <point x="11" y="56" type="line"/>
    </contour>
  </outline>
</glyph>
<glyph name="g.serif" format="2">
  <advance width="480"/>
  <unicode hex="0067"/>
  <anchor x="230" y="-234" name="bottom"/>
  <anchor x="220" y="536" name="top"/>
  <anchor x="490" y="536" name="topright"/>
  <outline>
    <contour>
      <point x="199" y="-234" type="curve" smooth="yes"/>
      <point x="374" y="-234"/>
      <point x="457" y="-161"/>
      <point x="457" y="-41" type="curve" smooth="yes"/>
      <point x="457" y="55"/>
      <point x="399" y="111"/>
      <point x="280" y="111" type="curve" smooth="yes"/>
      <point x="180" y="111" type="line" smooth="yes"/>
      <point x="161" y="111"/>
      <point x="144" y="120"/>
      <point x="144" y="143" type="curve" smooth="yes"/>
      <point x="144" y="165"/>
      <point x="159" y="186"/>
      <point x="170" y="193" type="curve"/>
      <point x="180" y="190"/>
      <point x="206" y="188"/>
      <point x="218" y="188" type="curve" smooth="yes"/>
      <point x="352" y="188"/>
      <point x="411" y="262"/>
      <point x="411" y="370" type="curve" smooth="yes"/>
      <point x="411" y="429"/>
      <point x="388" y="468"/>
      <point x="360" y="495" type="curve"/>
      <point x="367" y="499"/>
      <point x="375" y="505"/>
      <point x="388" y="505" type="curve" smooth="yes"/>
      <point x="399" y="505"/>
      <point x="418" y="492"/>
      <point x="418" y="459" type="curve"/>
      <point x="467" y="459"/>
      <point x="483" y="489"/>
      <point x="483" y="522" type="curve" smooth="yes"/>
      <point x="483" y="554"/>
      <point x="461" y="582"/>
      <point x="423" y="582" type="curve" smooth="yes"/>
      <point x="378" y="582"/>
      <point x="353" y="554"/>
      <point x="325" y="523" type="curve"/>
      <point x="293" y="541"/>
      <point x="263" y="550"/>
      <point x="218" y="550" type="curve" smooth="yes"/>
      <point x="83" y="550"/>
      <point x="23" y="483"/>
      <point x="23" y="365" type="curve" smooth="yes"/>
      <point x="23" y="280"/>
      <point x="68" y="229"/>
      <point x="124" y="209" type="curve"/>
      <point x="71" y="179"/>
      <point x="34" y="148"/>
      <point x="34" y="103" type="curve" smooth="yes"/>
      <point x="34" y="55"/>
      <point x="72" y="32"/>
      <point x="107" y="18" type="curve"/>
      <point x="34" y="11"/>
      <point x="-12" y="-33"/>
      <point x="-12" y="-100" type="curve" smooth="yes"/>
      <point x="-12" y="-188"/>
      <point x="58" y="-234"/>
    </contour>
    <contour>
      <point x="202" y="-172" type="curve" smooth="yes"/>
      <point x="153" y="-172"/>
      <point x="110" y="-148"/>
      <point x="110" y="-99" type="curve" smooth="yes"/>
      <point x="110" y="-41"/>
      <point x="148" y="-23"/>
      <point x="172" y="-23" type="curve" smooth="yes"/>
      <point x="279" y="-23" type="line" smooth="yes"/>
      <point x="317" y="-23"/>
      <point x="333" y="-46"/>
      <point x="333" y="-80" type="curve" smooth="yes"/>
      <point x="333" y="-137"/>
      <point x="283" y="-172"/>
    </contour>
    <contour>
      <point x="216" y="250" type="curve" smooth="yes"/>
      <point x="172" y="250"/>
      <point x="163" y="298"/>
      <point x="163" y="364" type="curve" smooth="yes"/>
      <point x="163" y="433"/>
      <point x="172" y="487"/>
      <point x="217" y="487" type="curve" smooth="yes"/>
      <point x="263" y="487"/>
      <point x="270" y="435"/>
      <point x="270" y="365" type="curve" smooth="yes"/>
      <point x="270" y="297"/>
      <point x="263" y="250"/>
    </contour>
  </outline>
</glyph>
<glyph name="h.mono" format="2">
  <advance width="500"/>
  <unicode hex="0068"/>
  <anchor x="250" y="0" name="bottom"/>
  <anchor x="250" y="277" name="center"/>
  <anchor x="112" y="760" name="top"/>
  <anchor x="480" y="760" name="topright"/>
  <outline>
    <contour>
      <point x="35" y="0" type="line"/>
      <point x="190" y="0" type="line"/>
      <point x="190" y="278" type="line" smooth="yes"/>
      <point x="190" y="366"/>
      <point x="204" y="418"/>
      <point x="258" y="418" type="curve" smooth="yes"/>
      <point x="313" y="418"/>
      <point x="315" y="376"/>
      <point x="315" y="308" type="curve" smooth="yes"/>
      <point x="315" y="0" type="line"/>
      <point x="470" y="0" type="line"/>
      <point x="470" y="360" type="line" smooth="yes"/>
      <point x="470" y="489"/>
      <point x="412" y="563"/>
      <point x="314" y="563" type="curve" smooth="yes"/>
      <point x="251" y="563"/>
      <point x="208" y="532"/>
      <point x="186" y="484" type="curve"/>
      <point x="177" y="484" type="line"/>
      <point x="186" y="528"/>
      <point x="190" y="575"/>
      <point x="190" y="621" type="curve" smooth="yes"/>
      <point x="190" y="760" type="line"/>
      <point x="35" y="760" type="line"/>
    </contour>
  </outline>
</glyph>
<glyph name="i.serif" format="2">
  <advance width="313"/>
  <unicode hex="0069"/>
  <anchor x="157" y="0" name="bottom"/>
  <anchor x="150" y="771" name="top"/>
  <anchor x="283" y="771" name="topright"/>
  <outline>
    <contour>
      <point x="10" y="0" type="line"/>
      <point x="296" y="0" type="line"/>
      <point x="296" y="56" type="line"/>
      <point x="287" y="56" type="line" smooth="yes"/>
      <point x="256" y="56"/>
      <point x="234" y="71"/>
      <point x="234" y="127" type="curve" smooth="yes"/>
      <point x="234" y="536" type="line"/>
      <point x="4" y="536" type="line"/>
      <point x="4" y="480" type="line"/>
      <point x="19" y="480" type="line" smooth="yes"/>
      <point x="49" y="480"/>
      <point x="72" y="465"/>
      <point x="72" y="413" type="curve" smooth="yes"/>
      <point x="72" y="129" type="line" smooth="yes"/>
      <point x="72" y="72"/>
      <point x="51" y="56"/>
      <point x="19" y="56" type="curve" smooth="yes"/>
      <point x="10" y="56" type="line"/>
    </contour>
    <contour>
      <point x="149" y="625" type="curve" smooth="yes"/>
      <point x="197" y="625"/>
      <point x="238" y="649"/>
      <point x="238" y="698" type="curve" smooth="yes"/>
      <point x="238" y="749"/>
      <point x="197" y="771"/>
      <point x="149" y="771" type="curve" smooth="yes"/>
      <point x="99" y="771"/>
      <point x="61" y="749"/>
      <point x="61" y="698" type="curve" smooth="yes"/>
      <point x="61" y="649"/>
      <point x="99" y="625"/>
    </contour>
  </outline>
</glyph>
<glyph name="j.mono" format="2">
  <advance width="500"/>
  <unicode hex="006A"/>
  <anchor x="175" y="-245" name="bottom"/>
  <anchor x="291" y="774" name="top"/>
  <anchor x="420" y="774" name="topright"/>
  <outline>
    <contour>
      <point x="175" y="-245" type="curve" smooth="yes"/>
      <point x="323" y="-245"/>
      <point x="375" y="-179"/>
      <point x="375" y="-42" type="curve" smooth="yes"/>
      <point x="375" y="553" type="line"/>
      <point x="76" y="553" type="line"/>
      <point x="76" y="430" type="line"/>
      <point x="222" y="418" type="line"/>
      <point x="222" y="-8" type="line" smooth="yes"/>
      <point x="222" y="-83"/>
      <point x="209" y="-107"/>
      <point x="151" y="-107" type="curve" smooth="yes"/>
      <point x="128" y="-107"/>
      <point x="66" y="-101"/>
      <point x="25" y="-88" type="curve"/>
      <point x="25" y="-222" type="line"/>
      <point x="70" y="-238"/>
      <point x="135" y="-245"/>
    </contour>
    <contour>
      <point x="291" y="608" type="curve" smooth="yes"/>
      <point x="352" y="608"/>
      <point x="382" y="639"/>
      <point x="382" y="691" type="curve" smooth="yes"/>
      <point x="382" y="745"/>
      <point x="352" y="774"/>
      <point x="291" y="774" type="curve" smooth="yes"/>
      <point x="231" y="774"/>
      <point x="201" y="745"/>
      <point x="201" y="691" type="curve" smooth="yes"/>
      <point x="201" y="636"/>
      <point x="232" y="608"/>
    </contour>
  </outline>
</glyph>
<glyph name="k.serif" format="2">
  <advance width="562"/>
  <unicode hex="006B"/>
  <anchor x="281" y="0" name="bottom"/>
  <anchor x="151" y="760" name="top"/>
  <anchor x="432" y="900" name="topright"/>
  <outline>
    <contour>
      <point x="13" y="0" type="line"/>
      <point x="309" y="0" type="line"/>
      <point x="309" y="56" type="line"/>
      <point x="293" y="56" type="line" smooth="yes"/>
      <point x="279" y="56"/>
      <point x="242" y="64"/>
      <point x="242" y="121" type="curve" smooth="yes"/>
      <point x="242" y="197" type="line"/>
      <point x="264" y="235" type="line"/>
      <point x="325" y="107" type="line" smooth="yes"/>
      <point x="367" y="18"/>
      <point x="409" y="0"/>
      <point x="550" y="0" type="curve" smooth="yes"/>
      <point x="561" y="0" type="line"/>
      <point x="561" y="56" type="line"/>
      <point x="558" y="56" type="line" smooth="yes"/>
      <point x="537" y="56"/>
      <point x="515" y="85"/>
      <point x="484" y="141" type="curve" smooth="yes"/>
      <point x="373" y="340" type="line"/>
      <point x="415" y="400" type="line" smooth="yes"/>
      <point x="456" y="460"/>
      <point x="493" y="484"/>
      <point x="531" y="484" type="curve"/>
      <point x="531" y="536" type="line"/>
      <point x="302" y="536" type="line"/>
      <point x="302" y="484" type="line"/>
      <point x="329" y="484"/>
      <point x="347" y="471"/>
      <point x="347" y="454" type="curve" smooth="yes"/>
      <point x="347" y="448"/>
      <point x="350" y="436"/>
      <point x="337" y="421" type="curve" smooth="yes"/>
      <point x="237" y="276" type="line"/>
      <point x="239" y="290"/>
      <point x="242" y="344"/>
      <point x="242" y="378" type="curve" smooth="yes"/>
      <point x="242" y="760" type="line"/>
      <point x="13" y="760" type="line"/>
      <point x="13" y="704" type="line"/>
      <point x="26" y="704" type="line" smooth="yes"/>
      <point x="39" y="704"/>
      <point x="78" y="697"/>
      <point x="78" y="645" type="curve" smooth="yes"/>
      <point x="78" y="119" type="line" smooth="yes"/>
      <point x="78" y="63"/>
      <point x="40" y="56"/>
      <point x="26" y="56" type="curve" smooth="yes"/>
      <point x="13" y="56" type="line"/>
    </contour>
  </outline>
</glyph>
<glyph name="l.mono" format="2">
  <advance width="500"/>
  <unicode hex="006C"/>
  <anchor x="256" y="0" name="bottom"/>
  <anchor x="256" y="393" name="center"/>
  <anchor x="250" y="760" name="top"/>
  <anchor x="423" y="760" name="topright"/>
  <outline>
    <contour>
      <point x="35" y="0" type="line"/>
      <point x="465" y="0" type="line"/>
      <point x="465" y="113" type="line"/>
      <point x="329" y="132" type="line"/>
      <point x="329" y="760" type="line"/>
      <point x="59" y="760" type="line"/>
      <point x="59" y="643" type="line"/>
      <point x="177" y="633" type="line"/>
      <point x="177" y="132" type="line"/>
      <point x="35" y="113" type="line"/>
    </contour>
  </outline>
</glyph>
<glyph name="l.serif" format="2">
  <advance width="319"/>
  <unicode hex="006C"/>
  <anchor x="160" y="0" name="bottom"/>
  <anchor x="160" y="268" name="center"/>
  <anchor x="160" y="760" name="top"/>
  <anchor x="299" y="760" name="topright"/>
  <outline>
    <contour>
      <point x="16" y="0" type="line"/>
      <point x="302" y="0" type="line"/>
      <point x="302" y="56" type="line"/>
      <point x="294" y="56" type="line" smooth="yes"/>
      <point x="263" y="56"/>
      <point x="241" y="71"/>
      <point x="241" y="127" type="curve" smooth="yes"/>
      <point x="241" y="760" type="line"/>
      <point x="16" y="760" type="line"/>
      <point x="16" y="704" type="line"/>
      <point x="26" y="704" type="line" smooth="yes"/>
      <point x="39" y="704"/>
      <point x="78" y="697"/>
      <point x="78" y="645" type="curve" smooth="yes"/>
      <point x="78" y="127" type="line" smooth="yes"/>
      <point x="78" y="71"/>
      <point x="56" y="56"/>
      <point x="26" y="56" type="curve" smooth="yes"/>
      <point x="16" y="56" type="line"/>
    </contour>
  </outline>
</glyph>
<glyph name="p.serif" format="2">
  <advance width="557"/>
  <unicode hex="0070"/>
  <anchor x="163" y="-225" name="bottom"/>
  <anchor x="279" y="536" name="top"/>
  <anchor x="547" y="536" name="topright"/>
  <outline>
    <contour>
      <point x="7" y="-225" type="line"/>
      <point x="317" y="-225" type="line"/>
      <point x="317" y="-169" type="line"/>
      <point x="287" y="-169" type="line" smooth="yes"/>
      <point x="273" y="-169"/>
      <point x="236" y="-161"/>
      <point x="236" y="-104" type="curve" smooth="yes"/>
      <point x="236" y="-58" type="line" smooth="yes"/>
      <point x="236" y="-16"/>
      <point x="234" y="21"/>
      <point x="232" y="53" type="curve"/>
      <point x="237" y="53" type="line"/>
      <point x="261" y="12"/>
      <point x="294" y="-12"/>
      <point x="349" y="-12" type="curve" smooth="yes"/>
      <point x="464" y="-12"/>
      <point x="522" y="72"/>
      <point x="522" y="265" type="curve" smooth="yes"/>
      <point x="522" y="460"/>
      <point x="462" y="546"/>
      <point x="351" y="546" type="curve" smooth="yes"/>
      <point x="287" y="546"/>
      <point x="247" y="511"/>
      <point x="224" y="463" type="curve"/>
      <point x="220" y="463" type="line"/>
      <point x="200" y="536" type="line"/>
      <point x="24" y="536" type="line"/>
      <point x="24" y="480" type="line"/>
      <point x="27" y="480" type="line" smooth="yes"/>
      <point x="55" y="480"/>
      <point x="72" y="471"/>
      <point x="72" y="409" type="curve" smooth="yes"/>
      <point x="72" y="-106" type="line" smooth="yes"/>
      <point x="72" y="-161"/>
      <point x="34" y="-169"/>
      <point x="20" y="-169" type="curve" smooth="yes"/>
      <point x="7" y="-169" type="line"/>
    </contour>
    <contour>
      <point x="298" y="62" type="curve" smooth="yes"/>
      <point x="248" y="62"/>
      <point x="236" y="127"/>
      <point x="236" y="266" type="curve" smooth="yes"/>
      <point x="236" y="393"/>
      <point x="248" y="470"/>
      <point x="301" y="470" type="curve" smooth="yes"/>
      <point x="342" y="470"/>
      <point x="359" y="395"/>
      <point x="359" y="264" type="curve" smooth="yes"/>
      <point x="359" y="128"/>
      <point x="342" y="62"/>
    </contour>
  </outline>
</glyph>
<glyph name="r.serif" format="2">
  <advance width="468"/>
  <unicode hex="0072"/>
  <anchor x="154" y="0" name="bottom"/>
  <anchor x="234" y="536" name="top"/>
  <anchor x="468" y="536" name="topright"/>
  <outline>
    <contour>
      <point x="8" y="0" type="line"/>
      <point x="315" y="0" type="line"/>
      <point x="315" y="56" type="line"/>
      <point x="285" y="56" type="line" smooth="yes"/>
      <point x="254" y="56"/>
      <point x="235" y="64"/>
      <point x="235" y="123" type="curve" smooth="yes"/>
      <point x="235" y="277" type="line" smooth="yes"/>
      <point x="235" y="359"/>
      <point x="256" y="446"/>
      <point x="295" y="446" type="curve" smooth="yes"/>
      <point x="326" y="446"/>
      <point x="331" y="416"/>
      <point x="331" y="361" type="curve"/>
      <point x="405" y="361"/>
      <point x="455" y="389"/>
      <point x="455" y="455" type="curve" smooth="yes"/>
      <point x="455" y="509"/>
      <point x="429" y="548"/>
      <point x="364" y="548" type="curve" smooth="yes"/>
      <point x="299" y="548"/>
      <point x="260" y="514"/>
      <point x="232" y="439" type="curve"/>
      <point x="228" y="439" type="line"/>
      <point x="210" y="536" type="line"/>
      <point x="15" y="536" type="line"/>
      <point x="15" y="480" type="line"/>
      <point x="19" y="480" type="line" smooth="yes"/>
      <point x="55" y="480"/>
      <point x="71" y="471"/>
      <point x="71" y="412" type="curve" smooth="yes"/>
      <point x="71" y="128" type="line" smooth="yes"/>
      <point x="71" y="65"/>
      <point x="50" y="56"/>
      <point x="12" y="56" type="curve" smooth="yes"/>
      <point x="8" y="56" type="line"/>
    </contour>
  </outline>
</glyph>
<glyph name="s.serif" format="2">
  <advance width="419"/>
  <unicode hex="0073"/>
  <anchor x="210" y="0" name="bottom"/>
  <anchor x="210" y="536" name="top"/>
  <anchor x="399" y="536" name="topright"/>
  <outline>
    <contour>
      <point x="203" y="-10" type="curve" smooth="yes"/>
      <point x="333" y="-10"/>
      <point x="399" y="60"/>
      <point x="399" y="166" type="curve" smooth="yes"/>
      <point x="399" y="266"/>
      <point x="338" y="305"/>
      <point x="248" y="340" type="curve" smooth="yes"/>
      <point x="170" y="370"/>
      <point x="149" y="388"/>
      <point x="149" y="430" type="curve" smooth="yes"/>
      <point x="149" y="466"/>
      <point x="174" y="486"/>
      <point x="208" y="486" type="curve" smooth="yes"/>
      <point x="253" y="486"/>
      <point x="289" y="451"/>
      <point x="289" y="385" type="curve"/>
      <point x="352" y="385"/>
      <point x="380" y="408"/>
      <point x="380" y="453" type="curve" smooth="yes"/>
      <point x="380" y="501"/>
      <point x="336" y="549"/>
      <point x="222" y="549" type="curve" smooth="yes"/>
      <point x="104" y="549"/>
      <point x="26" y="496"/>
      <point x="26" y="385" type="curve" smooth="yes"/>
      <point x="26" y="287"/>
      <point x="76" y="246"/>
      <point x="178" y="207" type="curve" smooth="yes"/>
      <point x="246" y="180"/>
      <point x="278" y="160"/>
      <point x="278" y="119" type="curve" smooth="yes"/>
      <point x="278" y="83"/>
      <point x="259" y="54"/>
      <point x="205" y="54" type="curve" smooth="yes"/>
      <point x="149" y="54"/>
      <point x="108" y="93"/>
      <point x="108" y="180" type="curve"/>
      <point x="60" y="180"/>
      <point x="21" y="160"/>
      <point x="21" y="105" type="curve" smooth="yes"/>
      <point x="21" y="39"/>
      <point x="62" y="-10"/>
    </contour>
  </outline>
</glyph>
<glyph name="t.serif" format="2">
  <advance width="371"/>
  <unicode hex="0074"/>
  <anchor x="226" y="0" name="bottom"/>
  <anchor x="176" y="268" name="center"/>
  <anchor x="186" y="660" name="top"/>
  <anchor x="231" y="1010" name="topright"/>
  <outline>
    <contour>
      <point x="221" y="-10" type="curve" smooth="yes"/>
      <point x="290" y="-10"/>
      <point x="336" y="7"/>
      <point x="356" y="18" type="curve"/>
      <point x="356" y="89" type="line"/>
      <point x="338" y="83"/>
      <point x="315" y="80"/>
      <point x="292" y="80" type="curve" smooth="yes"/>
      <point x="253" y="80"/>
      <point x="244" y="105"/>
      <point x="244" y="163" type="curve" smooth="yes"/>
      <point x="244" y="468" type="line"/>
      <point x="348" y="468" type="line"/>
      <point x="348" y="536" type="line"/>
      <point x="244" y="536" type="line"/>
      <point x="244" y="660" type="line"/>
      <point x="151" y="660" type="line"/>
      <point x="143" y="616"/>
      <point x="128" y="585"/>
      <point x="113" y="566" type="curve" smooth="yes"/>
      <point x="97" y="545"/>
      <point x="66" y="521"/>
      <point x="19" y="520" type="curve"/>
      <point x="19" y="468" type="line"/>
      <point x="80" y="468" type="line"/>
      <point x="80" y="149" type="line" smooth="yes"/>
      <point x="80" y="31"/>
      <point x="135" y="-10"/>
    </contour>
  </outline>
</glyph>
<glyph name="v.serif" format="2">
  <advance width="522"/>
  <unicode hex="0076"/>
  <anchor x="271" y="0" name="bottom"/>
  <anchor x="311" y="536" name="top"/>
  <anchor x="532" y="536" name="topright"/>
  <outline>
    <contour>
      <point x="68" y="434" type="curve" smooth="yes"/>
      <point x="199" y="0" type="line"/>
      <point x="342" y="0" type="line"/>
      <point x="454" y="409" type="line" smooth="yes"/>
      <point x="469" y="465"/>
      <point x="481" y="480"/>
      <point x="502" y="480" type="curve" smooth="yes"/>
      <point x="524" y="480" type="line"/>
      <point x="524" y="536" type="line"/>
      <point x="337" y="536" type="line"/>
      <point x="337" y="480" type="line"/>
      <point x="354" y="480" type="line" smooth="yes"/>
      <point x="379" y="480"/>
      <point x="389" y="467"/>
      <point x="389" y="451" type="curve" smooth="yes"/>
      <point x="389" y="431"/>
      <point x="385" y="417"/>
      <point x="379" y="394" type="curve" smooth="yes"/>
      <point x="328" y="196" type="line" smooth="yes"/>
      <point x="320" y="167"/>
      <point x="317" y="136"/>
      <point x="312" y="110" type="curve"/>
      <point x="309" y="142"/>
      <point x="302" y="177"/>
      <point x="291" y="218" type="curve" smooth="yes"/>
      <point x="238" y="406" type="line" smooth="yes"/>
      <point x="234" y="419"/>
      <point x="230" y="434"/>
      <point x="230" y="450" type="curve" smooth="yes"/>
      <point x="230" y="469"/>
      <point x="239" y="480"/>
      <point x="264" y="480" type="curve" smooth="yes"/>
      <point x="293" y="480" type="line"/>
      <point x="293" y="536" type="line"/>
      <point x="6" y="536" type="line"/>
      <point x="6" y="480" type="line"/>
      <point x="44" y="480"/>
      <point x="56" y="471"/>
    </contour>
  </outline>
</glyph>
<glyph name="w.serif" format="2">
  <advance width="710"/>
  <unicode hex="0077"/>
  <anchor x="355" y="0" name="bottom"/>
  <anchor x="387" y="536" name="top"/>
  <anchor x="720" y="536" name="topright"/>
  <outline>
    <contour>
      <point x="56" y="427" type="curve" smooth="yes"/>
      <point x="162" y="0" type="line"/>
      <point x="271" y="0" type="line"/>
      <point x="350" y="309" type="line"/>
      <point x="423" y="0" type="line"/>
      <point x="531" y="0" type="line"/>
      <point x="639" y="402" type="line" smooth="yes"/>
      <point x="656" y="466"/>
      <point x="669" y="480"/>
      <point x="701" y="480" type="curve" smooth="yes"/>
      <point x="712" y="480" type="line"/>
      <point x="712" y="536" type="line"/>
      <point x="512" y="536" type="line"/>
      <point x="512" y="480" type="line"/>
      <point x="517" y="480" type="line" smooth="yes"/>
      <point x="554" y="480"/>
      <point x="572" y="465"/>
      <point x="572" y="431" type="curve" smooth="yes"/>
      <point x="572" y="420"/>
      <point x="569" y="398"/>
      <point x="565" y="381" type="curve" smooth="yes"/>
      <point x="532" y="239" type="line" smooth="yes"/>
      <point x="524" y="204"/>
      <point x="521" y="176"/>
      <point x="517" y="145" type="curve"/>
      <point x="513" y="145" type="line"/>
      <point x="512" y="168"/>
      <point x="508" y="208"/>
      <point x="500" y="236" type="curve" smooth="yes"/>
      <point x="423" y="531" type="line"/>
      <point x="367" y="531" type="line"/>
      <point x="284" y="250" type="line" smooth="yes"/>
      <point x="275" y="219"/>
      <point x="266" y="177"/>
      <point x="263" y="146" type="curve"/>
      <point x="259" y="146" type="line"/>
      <point x="256" y="176"/>
      <point x="246" y="227"/>
      <point x="238" y="275" type="curve" smooth="yes"/>
      <point x="216" y="394" type="line" smooth="yes"/>
      <point x="213" y="409"/>
      <point x="209" y="427"/>
      <point x="209" y="438" type="curve" smooth="yes"/>
      <point x="209" y="471"/>
      <point x="226" y="480"/>
      <point x="259" y="480" type="curve" smooth="yes"/>
      <point x="270" y="480" type="line"/>
      <point x="270" y="536" type="line"/>
      <point x="-5" y="536" type="line"/>
      <point x="-5" y="480" type="line"/>
      <point x="-2" y="480" type="line"/>
      <point x="30" y="480"/>
      <point x="45" y="470"/>
    </contour>
  </outline>
</glyph>
<glyph name="x.serif" format="2">
  <advance width="580"/>
  <unicode hex="0078"/>
  <anchor x="290" y="0" name="bottom"/>
  <anchor x="290" y="536" name="top"/>
  <anchor x="560" y="536" name="topright"/>
  <outline>
    <contour>
      <point x="12" y="0" type="line"/>
      <point x="234" y="0" type="line"/>
      <point x="234" y="56" type="line"/>
      <point x="231" y="56" type="line" smooth="yes"/>
      <point x="194" y="56"/>
      <point x="180" y="67"/>
      <point x="180" y="89" type="curve" smooth="yes"/>
      <point x="180" y="105"/>
      <point x="189" y="120"/>
      <point x="199" y="137" type="curve" smooth="yes"/>
      <point x="252" y="222" type="line"/>
      <point x="294" y="158" type="line" smooth="yes"/>
      <point x="321" y="119"/>
      <point x="325" y="104"/>
      <point x="325" y="89" type="curve" smooth="yes"/>
      <point x="325" y="67"/>
      <point x="309" y="56"/>
      <point x="275" y="56" type="curve" smooth="yes"/>
      <point x="271" y="56" type="line"/>
      <point x="271" y="0" type="line"/>
      <point x="573" y="0" type="line"/>
      <point x="573" y="56" type="line"/>
      <point x="562" y="56" type="line" smooth="yes"/>
      <point x="541" y="56"/>
      <point x="521" y="71"/>
      <point x="496" y="109" type="curve" smooth="yes"/>
      <point x="373" y="292" type="line"/>
      <point x="461" y="415" type="line" smooth="yes"/>
      <point x="498" y="466"/>
      <point x="511" y="480"/>
      <point x="543" y="480" type="curve" smooth="yes"/>
      <point x="550" y="480" type="line"/>
      <point x="550" y="536" type="line"/>
      <point x="353" y="536" type="line"/>
      <point x="353" y="480" type="line"/>
      <point x="357" y="480" type="line" smooth="yes"/>
      <point x="380" y="480"/>
      <point x="394" y="474"/>
      <point x="394" y="450" type="curve" smooth="yes"/>
      <point x="394" y="432"/>
      <point x="382" y="417"/>
      <point x="370" y="396" type="curve" smooth="yes"/>
      <point x="337" y="342" type="line"/>
      <point x="295" y="405" type="line" smooth="yes"/>
      <point x="283" y="425"/>
      <point x="277" y="437"/>
      <point x="277" y="451" type="curve" smooth="yes"/>
      <point x="277" y="467"/>
      <point x="285" y="480"/>
      <point x="319" y="480" type="curve" smooth="yes"/>
      <point x="322" y="480" type="line"/>
      <point x="322" y="536" type="line"/>
      <point x="28" y="536" type="line"/>
      <point x="28" y="480" type="line"/>
      <point x="39" y="480" type="line" smooth="yes"/>
      <point x="64" y="480"/>
      <point x="86" y="462"/>
      <point x="110" y="427" type="curve" smooth="yes"/>
      <point x="216" y="270" type="line"/>
      <point x="110" y="120" type="line" smooth="yes"/>
      <point x="75" y="71"/>
      <point x="60" y="56"/>
      <point x="20" y="56" type="curve" smooth="yes"/>
      <point x="12" y="56" type="line"/>
    </contour>
  </outline>
</glyph>
<glyph name="y.serif" format="2">
  <advance width="491"/>
  <unicode hex="0079"/>
  <anchor x="136" y="-225" name="bottom"/>
  <anchor x="287" y="536" name="top"/>
  <anchor x="501" y="536" name="topright"/>
  <outline>
    <contour>
      <point x="16" y="-164" type="curve"/>
      <point x="16" y="-225" type="line"/>
      <point x="35" y="-225" type="line" smooth="yes"/>
      <point x="212" y="-225"/>
      <point x="243" y="-177"/>
      <point x="299" y="4" type="curve" smooth="yes"/>
      <point x="423" y="410" type="line" smooth="yes"/>
      <point x="439" y="460"/>
      <point x="458" y="480"/>
      <point x="488" y="480" type="curve" smooth="yes"/>
      <point x="491" y="480" type="line"/>
      <point x="491" y="536" type="line"/>
      <point x="307" y="536" type="line"/>
      <point x="307" y="480" type="line"/>
      <point x="311" y="479" type="line" smooth="yes"/>
      <point x="343" y="476"/>
      <point x="356" y="472"/>
      <point x="356" y="447" type="curve" smooth="yes"/>
      <point x="356" y="432"/>
      <point x="351" y="405"/>
      <point x="347" y="392" type="curve" smooth="yes"/>
      <point x="299" y="206" type="line" smooth="yes"/>
      <point x="293" y="183"/>
      <point x="289" y="158"/>
      <point x="286" y="127" type="curve"/>
      <point x="284" y="153"/>
      <point x="278" y="195"/>
      <point x="266" y="240" type="curve" smooth="yes"/>
      <point x="223" y="398" type="line" smooth="yes"/>
      <point x="218" y="416"/>
      <point x="214" y="433"/>
      <point x="214" y="447" type="curve" smooth="yes"/>
      <point x="214" y="468"/>
      <point x="227" y="480"/>
      <point x="263" y="480" type="curve" smooth="yes"/>
      <point x="267" y="480" type="line"/>
      <point x="267" y="536" type="line"/>
      <point x="-3" y="536" type="line"/>
      <point x="-3" y="480" type="line"/>
      <point x="2" y="480" type="line" smooth="yes"/>
      <point x="26" y="480"/>
      <point x="38" y="474"/>
      <point x="51" y="434" type="curve" smooth="yes"/>
      <point x="197" y="-10" type="line"/>
      <point x="172" y="-101"/>
      <point x="134" y="-164"/>
    </contour>
  </outline>
</glyph>
<glyph name="asciitilde.mono" format="2">
  <advance width="500"/>
  <unicode hex="007E"/>
  <outline>
    <contour>
      <point x="54" y="262" type="curve"/>
      <point x="127" y="262" type="line"/>
      <point x="127" y="346"/>
      <point x="143" y="378"/>
      <point x="173" y="378" type="curve" smooth="yes"/>
      <point x="191" y="378"/>
      <point x="202" y="367"/>
      <point x="237" y="327" type="curve" smooth="yes"/>
      <point x="286" y="272"/>
      <point x="312" y="262"/>
      <point x="343" y="262" type="curve" smooth="yes"/>
      <point x="433" y="262"/>
      <point x="460" y="349"/>
      <point x="460" y="455" type="curve"/>
      <point x="387" y="455" type="line"/>
      <point x="387" y="369"/>
      <point x="371" y="339"/>
      <point x="342" y="339" type="curve" smooth="yes"/>
      <point x="322" y="339"/>
      <point x="313" y="349"/>
      <point x="282" y="387" type="curve" smooth="yes"/>
      <point x="237" y="443"/>
      <point x="206" y="455"/>
      <point x="169" y="455" type="curve" smooth="yes"/>
      <point x="82" y="455"/>
      <point x="54" y="368"/>
    </contour>
  </outline>
</glyph>
<glyph name="cent.serif" format="2">
  <advance width="466"/>
  <unicode hex="00A2"/>
  <outline>
    <contour>
      <point x="233" y="81" type="curve"/>
      <point x="233" y="0" type="line"/>
      <point x="293" y="0" type="line"/>
      <point x="293" y="82" type="line"/>
      <point x="391" y="92"/>
      <point x="440" y="151"/>
      <point x="440" y="197" type="curve" smooth="yes"/>
      <point x="440" y="215"/>
      <point x="433" y="235"/>
      <point x="414" y="245" type="curve"/>
      <point x="396" y="199"/>
      <point x="351" y="162"/>
      <point x="293" y="160" type="curve"/>
      <point x="293" y="572" type="line"/>
      <point x="322" y="555"/>
      <point x="326" y="501"/>
      <point x="326" y="444" type="curve"/>
      <point x="440" y="444"/>
      <point x="450" y="495"/>
      <point x="450" y="535" type="curve" smooth="yes"/>
      <point x="450" y="585"/>
      <point x="412" y="634"/>
      <point x="293" y="640" type="curve"/>
      <point x="293" y="714" type="line"/>
      <point x="233" y="714" type="line"/>
      <point x="233" y="640" type="line"/>
      <point x="111" y="630"/>
      <point x="31" y="557"/>
      <point x="31" y="357" type="curve" smooth="yes"/>
      <point x="31" y="166"/>
      <point x="106" y="91"/>
    </contour>
    <contour>
      <point x="233" y="569" type="curve"/>
      <point x="233" y="173" type="line"/>
      <point x="202" y="198"/>
      <point x="193" y="260"/>
      <point x="193" y="358" type="curve" smooth="yes"/>
      <point x="193" y="488"/>
      <point x="203" y="548"/>
    </contour>
  </outline>
</glyph>
<glyph name="sterling.serif" format="2">
  <advance width="466"/>
  <unicode hex="00A3"/>
  <outline>
    <contour>
      <point x="329" y="-10" type="curve" smooth="yes"/>
      <point x="398" y="-10"/>
      <point x="429" y="32"/>
      <point x="450" y="63" type="curve"/>
      <point x="450" y="157" type="line"/>
      <point x="429" y="125"/>
      <point x="395" y="106"/>
      <point x="363" y="106" type="curve" smooth="yes"/>
      <point x="337" y="106"/>
      <point x="316" y="114"/>
      <point x="296" y="120" type="curve" smooth="yes"/>
      <point x="272" y="126"/>
      <point x="251" y="133"/>
      <point x="228" y="133" type="curve" smooth="yes"/>
      <point x="207" y="133"/>
      <point x="183" y="126"/>
      <point x="174" y="119" type="curve"/>
      <point x="171" y="122" type="line"/>
      <point x="218" y="162"/>
      <point x="250" y="211"/>
      <point x="250" y="261" type="curve" smooth="yes"/>
      <point x="250" y="285"/>
      <point x="249" y="307"/>
      <point x="242" y="335" type="curve"/>
      <point x="375" y="334" type="line"/>
      <point x="375" y="399" type="line"/>
      <point x="223" y="399" type="line"/>
      <point x="213" y="430"/>
      <point x="199" y="495"/>
      <point x="199" y="547" type="curve" smooth="yes"/>
      <point x="199" y="624"/>
      <point x="218" y="660"/>
      <point x="251" y="660" type="curve" smooth="yes"/>
      <point x="299" y="660"/>
      <point x="306" y="591"/>
      <point x="306" y="522" type="curve"/>
      <point x="404" y="522"/>
      <point x="434" y="556"/>
      <point x="434" y="604" type="curve" smooth="yes"/>
      <point x="434" y="669"/>
      <point x="385" y="724"/>
      <point x="256" y="724" type="curve" smooth="yes"/>
      <point x="127" y="724"/>
      <point x="60" y="650"/>
      <point x="60" y="533" type="curve" smooth="yes"/>
      <point x="60" y="483"/>
      <point x="74" y="430"/>
      <point x="83" y="399" type="curve"/>
      <point x="5" y="399" type="line"/>
      <point x="5" y="334" type="line"/>
      <point x="103" y="334" type="line"/>
      <point x="113" y="300"/>
      <point x="120" y="273"/>
      <point x="120" y="235" type="curve" smooth="yes"/>
      <point x="120" y="154"/>
      <point x="80" y="106"/>
      <point x="51" y="85" type="curve" smooth="yes"/>
      <point x="24" y="63" type="line"/>
      <point x="24" y="-8" type="line"/>
      <point x="46" y="4" type="line" smooth="yes"/>
      <point x="73" y="18"/>
      <point x="109" y="34"/>
      <point x="139" y="34" type="curve" smooth="yes"/>
      <point x="174" y="34"/>
      <point x="195" y="27"/>
      <point x="228" y="13" type="curve" smooth="yes"/>
      <point x="253" y="4"/>
      <point x="283" y="-10"/>
    </contour>
  </outline>
</glyph>
<glyph name="yen.mono" format="2">
  <advance width="500"/>
  <unicode hex="00A5"/>
  <outline>
    <contour>
      <point x="176" y="0" type="line"/>
      <point x="324" y="0" type="line"/>
      <point x="324" y="109" type="line"/>
      <point x="445" y="109" type="line"/>
      <point x="445" y="202" type="line"/>
      <point x="324" y="202" type="line"/>
      <point x="324" y="266" type="line"/>
      <point x="445" y="266" type="line"/>
      <point x="445" y="360" type="line"/>
      <point x="347" y="360" type="line"/>
      <point x="483" y="714" type="line"/>
      <point x="325" y="714" type="line"/>
      <point x="250" y="451" type="line"/>
      <point x="173" y="714" type="line"/>
      <point x="16" y="714" type="line"/>
      <point x="150" y="360" type="line"/>
      <point x="55" y="360" type="line"/>
      <point x="55" y="266" type="line"/>
      <point x="176" y="266" type="line"/>
      <point x="176" y="202" type="line"/>
      <point x="55" y="202" type="line"/>
      <point x="55" y="109" type="line"/>
      <point x="176" y="109" type="line"/>
    </contour>
  </outline>
</glyph>
<glyph name="yen.serif" format="2">
  <advance width="466"/>
  <unicode hex="00A5"/>
  <outline>
    <contour>
      <point x="89" y="0" type="line"/>
      <point x="387" y="0" type="line"/>
      <point x="387" y="56" type="line"/>
      <point x="368" y="56" type="line" smooth="yes"/>
      <point x="330" y="56"/>
      <point x="316" y="76"/>
      <point x="316" y="123" type="curve" smooth="yes"/>
      <point x="316" y="157" type="line"/>
      <point x="433" y="157" type="line"/>
      <point x="433" y="219" type="line"/>
      <point x="316" y="219" type="line"/>
      <point x="316" y="279" type="line"/>
      <point x="433" y="279" type="line"/>
      <point x="433" y="341" type="line"/>
      <point x="319" y="341" type="line"/>
      <point x="404" y="581" type="line" smooth="yes"/>
      <point x="425" y="643"/>
      <point x="435" y="658"/>
      <point x="458" y="658" type="curve" smooth="yes"/>
      <point x="460" y="658" type="line"/>
      <point x="460" y="714" type="line"/>
      <point x="299" y="714" type="line"/>
      <point x="299" y="658" type="line"/>
      <point x="301" y="658" type="line" smooth="yes"/>
      <point x="329" y="658"/>
      <point x="347" y="646"/>
      <point x="347" y="619" type="curve" smooth="yes"/>
      <point x="347" y="595"/>
      <point x="339" y="567"/>
      <point x="329" y="538" type="curve" smooth="yes"/>
      <point x="296" y="436" type="line" smooth="yes"/>
      <point x="287" y="408"/>
      <point x="281" y="388"/>
      <point x="276" y="367" type="curve"/>
      <point x="272" y="394"/>
      <point x="264" y="426"/>
      <point x="252" y="468" type="curve" smooth="yes"/>
      <point x="223" y="560" type="line" smooth="yes"/>
      <point x="216" y="584"/>
      <point x="210" y="604"/>
      <point x="210" y="620" type="curve" smooth="yes"/>
      <point x="210" y="647"/>
      <point x="224" y="658"/>
      <point x="254" y="658" type="curve" smooth="yes"/>
      <point x="260" y="658" type="line"/>
      <point x="260" y="714" type="line"/>
      <point x="3" y="714" type="line"/>
      <point x="3" y="658" type="line"/>
      <point x="8" y="658" type="line" smooth="yes"/>
      <point x="27" y="658"/>
      <point x="36" y="646"/>
      <point x="51" y="605" type="curve" smooth="yes"/>
      <point x="146" y="341" type="line"/>
      <point x="43" y="341" type="line"/>
      <point x="43" y="279" type="line"/>
      <point x="159" y="279" type="line"/>
      <point x="159" y="219" type="line"/>
      <point x="43" y="219" type="line"/>
      <point x="43" y="157" type="line"/>
      <point x="159" y="157" type="line"/>
      <point x="159" y="122" type="line" smooth="yes"/>
      <point x="159" y="79"/>
      <point x="145" y="56"/>
      <point x="108" y="56" type="curve" smooth="yes"/>
      <point x="89" y="56" type="line"/>
    </contour>
  </outline>
</glyph>
<glyph name="brokenbar.mono" format="2">
  <advance width="500"/>
  <unicode hex="00A6"/>
  <outline>
    <contour>
      <point x="186" y="363" type="line"/>
      <point x="314" y="363" type="line"/>
      <point x="314" y="759" type="line"/>
      <point x="186" y="759" type="line"/>
    </contour>
    <contour>
      <point x="186" y="-232" type="line"/>
      <point x="314" y="-232" type="line"/>
      <point x="314" y="164" type="line"/>
      <point x="186" y="164" type="line"/>
    </contour>
  </outline>
</glyph>
<glyph name="section.serif" format="2">
  <advance width="454"/>
  <unicode hex="00A7"/>
  <outline>
    <contour>
      <point x="232" y="-113" type="curve" smooth="yes"/>
      <point x="342" y="-113"/>
      <point x="405" y="-37"/>
      <point x="405" y="66" type="curve" smooth="yes"/>
      <point x="405" y="107"/>
      <point x="394" y="148"/>
      <point x="373" y="176" type="curve"/>
      <point x="405" y="196"/>
      <point x="430" y="243"/>
      <point x="430" y="292" type="curve" smooth="yes"/>
      <point x="430" y="380"/>
      <point x="374" y="422"/>
      <point x="241" y="498" type="curve" smooth="yes"/>
      <point x="192" y="525"/>
      <point x="163" y="549"/>
      <point x="163" y="611" type="curve" smooth="yes"/>
      <point x="163" y="669"/>
      <point x="193" y="704"/>
      <point x="233" y="704" type="curve" smooth="yes"/>
      <point x="291" y="704"/>
      <point x="302" y="631"/>
      <point x="302" y="574" type="curve"/>
      <point x="363" y="574"/>
      <point x="395" y="611"/>
      <point x="395" y="650" type="curve" smooth="yes"/>
      <point x="395" y="712"/>
      <point x="340" y="760"/>
      <point x="237" y="760" type="curve" smooth="yes"/>
      <point x="136" y="760"/>
      <point x="64" y="701"/>
      <point x="64" y="599" type="curve" smooth="yes"/>
      <point x="64" y="543"/>
      <point x="85" y="502"/>
      <point x="103" y="479" type="curve"/>
      <point x="69" y="460"/>
      <point x="46" y="422"/>
      <point x="46" y="379" type="curve" smooth="yes"/>
      <point x="46" y="301"/>
      <point x="82" y="250"/>
      <point x="178" y="192" type="curve" smooth="yes"/>
      <point x="296" y="120"/>
      <point x="319" y="92"/>
      <point x="319" y="40" type="curve" smooth="yes"/>
      <point x="319" y="-18"/>
      <point x="290" y="-59"/>
      <point x="247" y="-59" type="curve" smooth="yes"/>
      <point x="183" y="-59"/>
      <point x="147" y="7"/>
      <point x="147" y="100" type="curve"/>
      <point x="85" y="100"/>
      <point x="57" y="70"/>
      <point x="57" y="19" type="curve" smooth="yes"/>
      <point x="57" y="-37"/>
      <point x="78" y="-113"/>
    </contour>
    <contour>
      <point x="326" y="216" type="curve"/>
      <point x="308" y="228"/>
      <point x="289" y="245"/>
      <point x="250" y="269" type="curve" smooth="yes"/>
      <point x="166" y="322"/>
      <point x="136" y="348"/>
      <point x="136" y="403" type="curve" smooth="yes"/>
      <point x="136" y="419"/>
      <point x="138" y="436"/>
      <point x="143" y="446" type="curve"/>
      <point x="169" y="426"/>
      <point x="201" y="408"/>
      <point x="235" y="387" type="curve" smooth="yes"/>
      <point x="311" y="341"/>
      <point x="333" y="305"/>
      <point x="333" y="259" type="curve" smooth="yes"/>
      <point x="333" y="241"/>
      <point x="329" y="224"/>
    </contour>
  </outline>
</glyph>
<glyph name="dieresis.serif" format="2">
  <advance width="481"/>
  <unicode hex="00A8"/>
  <outline>
    <contour>
      <point x="332" y="621" type="curve" smooth="yes"/>
      <point x="361" y="621"/>
      <point x="393" y="639"/>
      <point x="393" y="689" type="curve" smooth="yes"/>
      <point x="393" y="740"/>
      <point x="361" y="758"/>
      <point x="332" y="758" type="curve" smooth="yes"/>
      <point x="299" y="758"/>
      <point x="269" y="740"/>
      <point x="269" y="689" type="curve" smooth="yes"/>
      <point x="269" y="639"/>
      <point x="299" y="621"/>
    </contour>
    <contour>
      <point x="148" y="621" type="curve" smooth="yes"/>
      <point x="179" y="621"/>
      <point x="211" y="639"/>
      <point x="211" y="689" type="curve" smooth="yes"/>
      <point x="211" y="740"/>
      <point x="179" y="758"/>
      <point x="148" y="758" type="curve" smooth="yes"/>
      <point x="117" y="758"/>
      <point x="87" y="740"/>
      <point x="87" y="689" type="curve" smooth="yes"/>
      <point x="87" y="639"/>
      <point x="117" y="621"/>
    </contour>
  </outline>
</glyph>
<glyph name="copyright.serif" format="2">
  <advance width="705"/>
  <unicode hex="00A9"/>
  <outline>
    <contour>
      <point x="353" y="-10" type="curve" smooth="yes"/>
      <point x="541" y="-10"/>
      <point x="651" y="151"/>
      <point x="651" y="358" type="curve" smooth="yes"/>
      <point x="651" y="563"/>
      <point x="543" y="725"/>
      <point x="354" y="725" type="curve" smooth="yes"/>
      <point x="165" y="725"/>
      <point x="53" y="563"/>
      <point x="53" y="358" type="curve" smooth="yes"/>
      <point x="53" y="156"/>
      <point x="162" y="-10"/>
    </contour>
    <contour>
      <point x="359" y="103" type="curve" smooth="yes"/>
      <point x="446" y="103"/>
      <point x="491" y="164"/>
      <point x="491" y="205" type="curve" smooth="yes"/>
      <point x="491" y="223"/>
      <point x="482" y="228"/>
      <point x="463" y="234" type="curve"/>
      <point x="446" y="187"/>
      <point x="418" y="150"/>
      <point x="362" y="150" type="curve" smooth="yes"/>
      <point x="288" y="150"/>
      <point x="245" y="225"/>
      <point x="245" y="366" type="curve" smooth="yes"/>
      <point x="245" y="489"/>
      <point x="279" y="564"/>
      <point x="362" y="564" type="curve" smooth="yes"/>
      <point x="435" y="564"/>
      <point x="455" y="513"/>
      <point x="455" y="458" type="curve"/>
      <point x="478" y="458"/>
      <point x="498" y="473"/>
      <point x="498" y="506" type="curve" smooth="yes"/>
      <point x="498" y="553"/>
      <point x="457" y="611"/>
      <point x="362" y="611" type="curve" smooth="yes"/>
      <point x="239" y="611"/>
      <point x="181" y="521"/>
      <point x="181" y="364" type="curve" smooth="yes"/>
      <point x="181" y="194"/>
      <point x="249" y="103"/>
    </contour>
    <contour>
      <point x="356" y="40" type="curve" smooth="yes"/>
      <point x="201" y="40"/>
      <point x="106" y="175"/>
      <point x="106" y="359" type="curve" smooth="yes"/>
      <point x="106" y="539"/>
      <point x="198" y="675"/>
      <point x="354" y="675" type="curve" smooth="yes"/>
      <point x="509" y="675"/>
      <point x="598" y="542"/>
      <point x="598" y="358" type="curve" smooth="yes"/>
      <point x="598" y="175"/>
      <point x="510" y="40"/>
    </contour>
  </outline>
</glyph>
<glyph name="ordfeminine.serif" format="2">
  <advance width="374"/>
  <unicode hex="00AA"/>
  <anchor x="172" y="386" name="bottom"/>
  <anchor x="178" y="719" name="top"/>
  <outline>
    <contour>
      <point x="115" y="380" type="curve" smooth="yes"/>
      <point x="162" y="380"/>
      <point x="193" y="406"/>
      <point x="214" y="438" type="curve"/>
      <point x="220" y="438" type="line"/>
      <point x="240" y="386" type="line"/>
      <point x="354" y="386" type="line"/>
      <point x="354" y="432" type="line"/>
      <point x="328" y="432"/>
      <point x="318" y="441"/>
      <point x="318" y="471" type="curve"/>
      <point x="318" y="614" type="line" smooth="yes"/>
      <point x="318" y="689"/>
      <point x="273" y="719"/>
      <point x="180" y="719" type="curve" smooth="yes"/>
      <point x="89" y="719"/>
      <point x="43" y="689"/>
      <point x="43" y="644" type="curve" smooth="yes"/>
      <point x="43" y="614"/>
      <point x="71" y="611"/>
      <point x="140" y="611" type="curve"/>
      <point x="140" y="645"/>
      <point x="144" y="676"/>
      <point x="174" y="676" type="curve"/>
      <point x="201" y="676"/>
      <point x="205" y="649"/>
      <point x="205" y="612" type="curve" smooth="yes"/>
      <point x="205" y="585" type="line"/>
      <point x="165" y="583" type="line"/>
      <point x="67" y="578"/>
      <point x="21" y="544"/>
      <point x="21" y="477" type="curve" smooth="yes"/>
      <point x="21" y="415"/>
      <point x="57" y="380"/>
    </contour>
    <contour>
      <point x="161" y="441" type="curve" smooth="yes"/>
      <point x="146" y="441"/>
      <point x="134" y="454"/>
      <point x="134" y="484" type="curve"/>
      <point x="134" y="522"/>
      <point x="151" y="542"/>
      <point x="191" y="544" type="curve"/>
      <point x="205" y="545" type="line"/>
      <point x="205" y="505" type="line" smooth="yes"/>
      <point x="205" y="468"/>
      <point x="193" y="441"/>
    </contour>
  </outline>
</glyph>
<glyph name="guillemetleft.mono" format="2">
  <advance width="500"/>
  <unicode hex="00AB"/>
  <outline>
    <contour>
      <point x="389" y="32" type="line"/>
      <point x="493" y="88" type="line"/>
      <point x="392" y="263" type="line"/>
      <point x="493" y="439" type="line"/>
      <point x="389" y="494" type="line"/>
      <point x="236" y="270" type="line"/>
      <point x="236" y="256" type="line"/>
    </contour>
    <contour>
      <point x="160" y="32" type="line"/>
      <point x="264" y="88" type="line"/>
      <point x="162" y="263" type="line"/>
      <point x="264" y="439" type="line"/>
      <point x="160" y="494" type="line"/>
      <point x="7" y="270" type="line"/>
      <point x="7" y="256" type="line"/>
    </contour>
  </outline>
</glyph>
<glyph name="guillemetleft.serif" format="2">
  <advance width="486"/>
  <unicode hex="00AB"/>
  <outline>
    <contour>
      <point x="363" y="68" type="line"/>
      <point x="433" y="68" type="line"/>
      <point x="349" y="270" type="line"/>
      <point x="433" y="472" type="line"/>
      <point x="363" y="472" type="line"/>
      <point x="235" y="298" type="line"/>
      <point x="235" y="242" type="line"/>
    </contour>
    <contour>
      <point x="181" y="68" type="line"/>
      <point x="252" y="68" type="line"/>
      <point x="168" y="270" type="line"/>
      <point x="252" y="472" type="line"/>
      <point x="181" y="472" type="line"/>
      <point x="53" y="298" type="line"/>
      <point x="53" y="242" type="line"/>
    </contour>
  </outline>
</glyph>
<glyph name="guillemotleft" format="2">
  <advance width="560"/>
  <unicode hex="00AB"/>
  <outline>
    <contour>
      <point x="22" y="287" type="line"/>
      <point x="22" y="273" type="line"/>
      <point x="177" y="42" type="line"/>
      <point x="294" y="104" type="line"/>
      <point x="193" y="280" type="line"/>
      <point x="294" y="457" type="line"/>
      <point x="177" y="519" type="line"/>
    </contour>
    <contour>
      <point x="261" y="287" type="line"/>
      <point x="261" y="273" type="line"/>
      <point x="416" y="42" type="line"/>
      <point x="533" y="104" type="line"/>
      <point x="433" y="280" type="line"/>
      <point x="533" y="457" type="line"/>
      <point x="416" y="519" type="line"/>
    </contour>
  </outline>
</glyph>
<glyph name="logicalnot.mono" format="2">
  <advance width="500"/>
  <unicode hex="00AC"/>
  <outline>
    <contour>
      <point x="336" y="117" type="line"/>
      <point x="457" y="117" type="line"/>
      <point x="457" y="412" type="line"/>
      <point x="43" y="412" type="line"/>
      <point x="43" y="294" type="line"/>
      <point x="336" y="294" type="line"/>
    </contour>
  </outline>
</glyph>
<glyph name="logicalnot.serif" format="2">
  <advance width="425"/>
  <unicode hex="00AC"/>
  <outline>
    <contour>
      <point x="324" y="148" type="line"/>
      <point x="391" y="148" type="line"/>
      <point x="391" y="394" type="line"/>
      <point x="34" y="394" type="line"/>
      <point x="34" y="321" type="line"/>
      <point x="324" y="321" type="line"/>
    </contour>
  </outline>
</glyph>
<glyph name="overscore.mono" format="2">
  <advance width="500"/>
  <unicode hex="00AF"/>
  <outline>
    <contour>
      <point x="98" y="639" type="line"/>
      <point x="381" y="639" type="line"/>
      <point x="381" y="741" type="line"/>
      <point x="98" y="741" type="line"/>
    </contour>
  </outline>
</glyph>
<glyph name="degree.serif" format="2">
  <advance width="334"/>
  <unicode hex="00B0"/>
  <outline>
    <contour>
      <point x="166" y="425" type="curve" smooth="yes"/>
      <point x="245" y="425"/>
      <point x="293" y="489"/>
      <point x="293" y="580" type="curve" smooth="yes"/>
      <point x="293" y="671"/>
      <point x="245" y="736"/>
      <point x="166" y="736" type="curve" smooth="yes"/>
      <point x="86" y="736"/>
      <point x="40" y="671"/>
      <point x="40" y="580" type="curve" smooth="yes"/>
      <point x="40" y="489"/>
      <point x="86" y="425"/>
    </contour>
    <contour>
      <point x="168" y="478" type="curve" smooth="yes"/>
      <point x="120" y="478"/>
      <point x="95" y="522"/>
      <point x="95" y="582" type="curve" smooth="yes"/>
      <point x="95" y="643"/>
      <point x="121" y="684"/>
      <point x="168" y="684" type="curve" smooth="yes"/>
      <point x="213" y="684"/>
      <point x="238" y="643"/>
      <point x="238" y="582" type="curve" smooth="yes"/>
      <point x="238" y="522"/>
      <point x="214" y="478"/>
    </contour>
  </outline>
</glyph>
<glyph name="plusminus.mono" format="2">
  <advance width="500"/>
  <unicode hex="00B1"/>
  <outline>
    <contour>
      <point x="190" y="164" type="line"/>
      <point x="311" y="164" type="line"/>
      <point x="311" y="345" type="line"/>
      <point x="460" y="345" type="line"/>
      <point x="460" y="464" type="line"/>
      <point x="311" y="464" type="line"/>
      <point x="311" y="647" type="line"/>
      <point x="190" y="647" type="line"/>
      <point x="190" y="464" type="line"/>
      <point x="40" y="464" type="line"/>
      <point x="40" y="345" type="line"/>
      <point x="190" y="345" type="line"/>
    </contour>
    <contour>
      <point x="40" y="0" type="line"/>
      <point x="460" y="0" type="line"/>
      <point x="460" y="118" type="line"/>
      <point x="40" y="118" type="line"/>
    </contour>
  </outline>
</glyph>
<glyph name="acute.mono" format="2">
  <advance width="500"/>
  <unicode hex="00B4"/>
  <outline>
    <contour>
      <point x="146" y="619" type="curve"/>
      <point x="146" y="606" type="line"/>
      <point x="248" y="606" type="line"/>
      <point x="295" y="650"/>
      <point x="360" y="720"/>
      <point x="387" y="757" type="curve"/>
      <point x="387" y="766" type="line"/>
      <point x="226" y="766" type="line"/>
      <point x="205" y="721"/>
      <point x="179" y="672"/>
    </contour>
  </outline>
</glyph>
<glyph name="acute.serif" format="2">
  <advance width="329"/>
  <unicode hex="00B4"/>
  <outline>
    <contour>
      <point x="40" y="619" type="curve"/>
      <point x="40" y="606" type="line"/>
      <point x="115" y="606" type="line"/>
      <point x="174" y="644"/>
      <point x="268" y="721"/>
      <point x="289" y="756" type="curve"/>
      <point x="289" y="766" type="line"/>
      <point x="127" y="766" type="line"/>
      <point x="110" y="721"/>
      <point x="65" y="660"/>
    </contour>
  </outline>
</glyph>
<glyph name="micro.serif" format="2">
  <advance width="586"/>
  <unicode hex="00B5"/>
  <outline>
    <contour>
      <point x="151" y="-240" type="curve" smooth="yes"/>
      <point x="204" y="-240"/>
      <point x="242" y="-205"/>
      <point x="242" y="-159" type="curve"/>
      <point x="150" y="-147"/>
      <point x="134" y="-73"/>
      <point x="136" y="51" type="curve"/>
      <point x="158" y="12"/>
      <point x="189" y="-10"/>
      <point x="234" y="-10" type="curve" smooth="yes"/>
      <point x="293" y="-10"/>
      <point x="321" y="31"/>
      <point x="347" y="93" type="curve"/>
      <point x="352" y="93" type="line"/>
      <point x="369" y="39"/>
      <point x="415" y="0"/>
      <point x="481" y="0" type="curve" smooth="yes"/>
      <point x="573" y="0" type="line"/>
      <point x="573" y="56" type="line"/>
      <point x="565" y="56" type="line" smooth="yes"/>
      <point x="517" y="56"/>
      <point x="506" y="77"/>
      <point x="506" y="138" type="curve" smooth="yes"/>
      <point x="506" y="536" type="line"/>
      <point x="343" y="536" type="line"/>
      <point x="343" y="233" type="line" smooth="yes"/>
      <point x="343" y="142"/>
      <point x="322" y="80"/>
      <point x="286" y="80" type="curve" smooth="yes"/>
      <point x="248" y="80"/>
      <point x="237" y="137"/>
      <point x="237" y="204" type="curve" smooth="yes"/>
      <point x="237" y="536" type="line"/>
      <point x="74" y="536" type="line"/>
      <point x="74" y="225" type="line" smooth="yes"/>
      <point x="74" y="58"/>
      <point x="64" y="-26"/>
      <point x="64" y="-106" type="curve" smooth="yes"/>
      <point x="64" y="-206"/>
      <point x="105" y="-240"/>
    </contour>
  </outline>
</glyph>
<glyph name="paragraph.serif" format="2">
  <advance width="528"/>
  <unicode hex="00B6"/>
  <outline>
    <contour>
      <point x="141" y="-111" type="line"/>
      <point x="287" y="-111" type="line"/>
      <point x="287" y="695" type="line"/>
      <point x="350" y="695" type="line"/>
      <point x="350" y="-111" type="line"/>
      <point x="496" y="-111" type="line"/>
      <point x="496" y="-55" type="line"/>
      <point x="485" y="-55" type="line" smooth="yes"/>
      <point x="448" y="-55"/>
      <point x="417" y="-48"/>
      <point x="417" y="15" type="curve" smooth="yes"/>
      <point x="417" y="632" type="line" smooth="yes"/>
      <point x="417" y="695"/>
      <point x="448" y="704"/>
      <point x="485" y="704" type="curve" smooth="yes"/>
      <point x="496" y="704" type="line"/>
      <point x="496" y="760" type="line"/>
      <point x="163" y="760" type="line" smooth="yes"/>
      <point x="68" y="760"/>
      <point x="33" y="689"/>
      <point x="33" y="582" type="curve" smooth="yes"/>
      <point x="33" y="478"/>
      <point x="63" y="386"/>
      <point x="161" y="386" type="curve" smooth="yes"/>
      <point x="220" y="386" type="line"/>
      <point x="220" y="15" type="line" smooth="yes"/>
      <point x="220" y="-48"/>
      <point x="189" y="-55"/>
      <point x="151" y="-55" type="curve" smooth="yes"/>
      <point x="141" y="-55" type="line"/>
    </contour>
  </outline>
</glyph>
<glyph name="periodcentered.serif" format="2">
  <advance width="273"/>
  <unicode hex="00B7"/>
  <outline>
    <contour>
      <point x="136" y="272" type="curve" smooth="yes"/>
      <point x="179" y="272"/>
      <point x="217" y="294"/>
      <point x="217" y="355" type="curve" smooth="yes"/>
      <point x="217" y="417"/>
      <point x="179" y="437"/>
      <point x="136" y="437" type="curve" smooth="yes"/>
      <point x="91" y="437"/>
      <point x="56" y="417"/>
      <point x="56" y="355" type="curve" smooth="yes"/>
      <point x="56" y="294"/>
      <point x="91" y="272"/>
    </contour>
  </outline>
</glyph>
<glyph name="cedilla.serif" format="2">
  <advance width="277"/>
  <unicode hex="00B8"/>
  <outline>
    <contour>
      <point x="113" y="-238" type="curve" smooth="yes"/>
      <point x="185" y="-238"/>
      <point x="239" y="-197"/>
      <point x="239" y="-127" type="curve" smooth="yes"/>
      <point x="239" y="-73"/>
      <point x="198" y="-40"/>
      <point x="143" y="-35" type="curve"/>
      <point x="151" y="9" type="line"/>
      <point x="98" y="9" type="line"/>
      <point x="81" y="-82" type="line"/>
      <point x="116" y="-86"/>
      <point x="143" y="-91"/>
      <point x="143" y="-130" type="curve" smooth="yes"/>
      <point x="143" y="-166"/>
      <point x="124" y="-174"/>
      <point x="92" y="-174" type="curve" smooth="yes"/>
      <point x="77" y="-174"/>
      <point x="56" y="-171"/>
      <point x="35" y="-166" type="curve"/>
      <point x="35" y="-227" type="line"/>
      <point x="56" y="-234"/>
      <point x="97" y="-238"/>
    </contour>
  </outline>
</glyph>
<glyph name="onesuperior.serif" format="2">
  <advance width="333"/>
  <unicode hex="00B9"/>
  <outline>
    <contour>
      <point x="38" y="387" type="line"/>
      <point x="308" y="387" type="line"/>
      <point x="308" y="441" type="line"/>
      <point x="272" y="441" type="line" smooth="yes"/>
      <point x="249" y="441"/>
      <point x="231" y="453"/>
      <point x="231" y="487" type="curve" smooth="yes"/>
      <point x="231" y="819" type="line"/>
      <point x="134" y="819" type="line"/>
      <point x="82" y="778" type="line" smooth="yes"/>
      <point x="58" y="759"/>
      <point x="31" y="741"/>
      <point x="16" y="738" type="curve"/>
      <point x="16" y="703"/>
      <point x="32" y="680"/>
      <point x="58" y="680" type="curve" smooth="yes"/>
      <point x="79" y="680"/>
      <point x="98" y="710"/>
      <point x="121" y="750" type="curve"/>
      <point x="121" y="487" type="line" smooth="yes"/>
      <point x="121" y="453"/>
      <point x="99" y="441"/>
      <point x="76" y="441" type="curve" smooth="yes"/>
      <point x="38" y="441" type="line"/>
    </contour>
  </outline>
</glyph>
<glyph name="ordmasculine.serif" format="2">
  <advance width="388"/>
  <unicode hex="00BA"/>
  <anchor x="195" y="383" name="bottom"/>
  <anchor x="197" y="719" name="top"/>
  <outline>
    <contour>
      <point x="194" y="380" type="curve" smooth="yes"/>
      <point x="302" y="380"/>
      <point x="359" y="436"/>
      <point x="359" y="550" type="curve"/>
      <point x="359" y="664"/>
      <point x="297" y="719"/>
      <point x="196" y="719" type="curve" smooth="yes"/>
      <point x="86" y="719"/>
      <point x="29" y="664"/>
      <point x="29" y="550" type="curve" smooth="yes"/>
      <point x="29" y="436"/>
      <point x="89" y="380"/>
    </contour>
    <contour>
      <point x="195" y="431" type="curve" smooth="yes"/>
      <point x="158" y="431"/>
      <point x="145" y="472"/>
      <point x="145" y="550" type="curve"/>
      <point x="145" y="627"/>
      <point x="158" y="666"/>
      <point x="194" y="666" type="curve" smooth="yes"/>
      <point x="230" y="666"/>
      <point x="244" y="627"/>
      <point x="244" y="550" type="curve" smooth="yes"/>
      <point x="244" y="472"/>
      <point x="231" y="431"/>
    </contour>
  </outline>
</glyph>
<glyph name="guillemetright.display" format="2">
  <advance width="549"/>
  <unicode hex="00BB"/>
  <outline>
    <contour>
      <point x="529" y="273" type="line"/>
      <point x="529" y="287" type="line"/>
      <point x="378" y="519" type="line"/>
      <point x="260" y="457" type="line"/>
      <point x="358" y="280" type="line"/>
      <point x="260" y="104" type="line"/>
      <point x="378" y="42" type="line"/>
    </contour>
    <contour>
      <point x="294" y="273" type="line"/>
      <point x="294" y="287" type="line"/>
      <point x="143" y="519" type="line"/>
      <point x="25" y="457" type="line"/>
      <point x="122" y="280" type="line"/>
      <point x="25" y="104" type="line"/>
      <point x="143" y="42" type="line"/>
    </contour>
  </outline>
</glyph>
<glyph name="guillemetright.serif" format="2">
  <advance width="486"/>
  <unicode hex="00BB"/>
  <outline>
    <contour>
      <point x="235" y="68" type="line"/>
      <point x="306" y="68" type="line"/>
      <point x="433" y="242" type="line"/>
      <point x="433" y="298" type="line"/>
      <point x="306" y="472" type="line"/>
      <point x="235" y="472" type="line"/>
      <point x="319" y="270" type="line"/>
    </contour>
    <contour>
      <point x="54" y="68" type="line"/>
      <point x="125" y="68" type="line"/>
      <point x="252" y="242" type="line"/>
      <point x="252" y="298" type="line"/>
      <point x="125" y="472" type="line"/>
      <point x="54" y="472" type="line"/>
      <point x="138" y="270" type="line"/>
    </contour>
  </outline>
</glyph>
<glyph name="guillemotright" format="2">
  <advance width="560"/>
  <unicode hex="00BB"/>
  <outline>
    <contour>
      <point x="538" y="273" type="line"/>
      <point x="538" y="287" type="line"/>
      <point x="383" y="519" type="line"/>
      <point x="266" y="457" type="line"/>
      <point x="367" y="280" type="line"/>
      <point x="266" y="104" type="line"/>
      <point x="383" y="42" type="line"/>
    </contour>
    <contour>
      <point x="299" y="273" type="line"/>
      <point x="299" y="287" type="line"/>
      <point x="144" y="519" type="line"/>
      <point x="27" y="457" type="line"/>
      <point x="127" y="280" type="line"/>
      <point x="27" y="104" type="line"/>
      <point x="144" y="42" type="line"/>
    </contour>
  </outline>
</glyph>
<glyph name="onequarter.mono" format="2">
  <advance width="500"/>
  <unicode hex="00BC"/>
  <outline>
    <contour>
      <point x="6" y="106" type="line"/>
      <point x="127" y="106" type="line"/>
      <point x="503" y="574" type="line"/>
      <point x="382" y="574" type="line"/>
    </contour>
    <contour>
      <point x="28" y="385" type="line"/>
      <point x="227" y="385" type="line"/>
      <point x="227" y="451" type="line"/>
      <point x="148" y="460" type="line"/>
      <point x="123" y="460" type="line"/>
      <point x="28" y="451" type="line"/>
    </contour>
    <contour>
      <point x="360" y="0" type="line"/>
      <point x="442" y="0" type="line"/>
      <point x="442" y="55" type="line"/>
      <point x="484" y="55" type="line"/>
      <point x="484" y="126" type="line"/>
      <point x="442" y="126" type="line"/>
      <point x="442" y="331" type="line"/>
      <point x="351" y="331" type="line"/>
      <point x="249" y="122" type="line"/>
      <point x="249" y="55" type="line"/>
      <point x="360" y="55" type="line"/>
    </contour>
    <contour>
      <point x="312" y="126" type="line"/>
      <point x="341" y="193" type="line" smooth="yes"/>
      <point x="345" y="203"/>
      <point x="355" y="223"/>
      <point x="361" y="242" type="curve"/>
      <point x="360" y="224"/>
      <point x="360" y="209"/>
      <point x="360" y="190" type="curve" smooth="yes"/>
      <point x="360" y="126" type="line"/>
    </contour>
    <contour>
      <point x="92" y="529" type="curve" smooth="yes"/>
      <point x="92" y="385" type="line"/>
      <point x="171" y="385" type="line"/>
      <point x="171" y="714" type="line"/>
      <point x="114" y="714" type="line"/>
      <point x="11" y="645" type="line"/>
      <point x="46" y="576" type="line"/>
      <point x="77" y="597" type="line" smooth="yes"/>
      <point x="81" y="600"/>
      <point x="88" y="609"/>
      <point x="94" y="615" type="curve"/>
      <point x="93" y="588"/>
      <point x="92" y="552"/>
    </contour>
  </outline>
</glyph>
<glyph name="onehalf.mono" format="2">
  <advance width="500"/>
  <unicode hex="00BD"/>
  <outline>
    <contour>
      <point x="6" y="106" type="line"/>
      <point x="127" y="106" type="line"/>
      <point x="503" y="574" type="line"/>
      <point x="382" y="574" type="line"/>
    </contour>
    <contour>
      <point x="28" y="385" type="line"/>
      <point x="227" y="385" type="line"/>
      <point x="227" y="451" type="line"/>
      <point x="148" y="460" type="line"/>
      <point x="123" y="460" type="line"/>
      <point x="28" y="451" type="line"/>
    </contour>
    <contour>
      <point x="298" y="0" type="line"/>
      <point x="495" y="0" type="line"/>
      <point x="495" y="78" type="line"/>
      <point x="394" y="78" type="line"/>
      <point x="400" y="91" type="line" smooth="yes"/>
      <point x="433" y="162"/>
      <point x="480" y="190"/>
      <point x="480" y="245" type="curve" smooth="yes"/>
      <point x="480" y="301"/>
      <point x="453" y="339"/>
      <point x="396" y="339" type="curve" smooth="yes"/>
      <point x="347" y="339"/>
      <point x="310" y="317"/>
      <point x="290" y="288" type="curve"/>
      <point x="331" y="230" type="line"/>
      <point x="348" y="251"/>
      <point x="360" y="262"/>
      <point x="374" y="262" type="curve" smooth="yes"/>
      <point x="389" y="262"/>
      <point x="394" y="251"/>
      <point x="394" y="233" type="curve" smooth="yes"/>
      <point x="394" y="211"/>
      <point x="386" y="198"/>
      <point x="355" y="155" type="curve" smooth="yes"/>
      <point x="297" y="74" type="line"/>
    </contour>
    <contour>
      <point x="92" y="529" type="curve" smooth="yes"/>
      <point x="92" y="385" type="line"/>
      <point x="171" y="385" type="line"/>
      <point x="171" y="714" type="line"/>
      <point x="114" y="714" type="line"/>
      <point x="11" y="645" type="line"/>
      <point x="46" y="576" type="line"/>
      <point x="77" y="597" type="line" smooth="yes"/>
      <point x="81" y="600"/>
      <point x="88" y="609"/>
      <point x="94" y="615" type="curve"/>
      <point x="93" y="588"/>
      <point x="92" y="552"/>
    </contour>
  </outline>
</glyph>
<glyph name="threequarters.mono" format="2">
  <advance width="500"/>
  <unicode hex="00BE"/>
  <outline>
    <contour>
      <point x="6" y="106" type="line"/>
      <point x="127" y="106" type="line"/>
      <point x="503" y="574" type="line"/>
      <point x="382" y="574" type="line"/>
    </contour>
    <contour>
      <point x="360" y="0" type="line"/>
      <point x="442" y="0" type="line"/>
      <point x="442" y="55" type="line"/>
      <point x="484" y="55" type="line"/>
      <point x="484" y="126" type="line"/>
      <point x="442" y="126" type="line"/>
      <point x="442" y="331" type="line"/>
      <point x="351" y="331" type="line"/>
      <point x="249" y="122" type="line"/>
      <point x="249" y="55" type="line"/>
      <point x="360" y="55" type="line"/>
    </contour>
    <contour>
      <point x="312" y="126" type="line"/>
      <point x="341" y="193" type="line" smooth="yes"/>
      <point x="345" y="203"/>
      <point x="355" y="223"/>
      <point x="361" y="242" type="curve"/>
      <point x="360" y="224"/>
      <point x="360" y="209"/>
      <point x="360" y="190" type="curve" smooth="yes"/>
      <point x="360" y="126" type="line"/>
    </contour>
    <contour>
      <point x="132" y="380" type="curve" smooth="yes"/>
      <point x="190" y="380"/>
      <point x="234" y="416"/>
      <point x="234" y="477" type="curve" smooth="yes"/>
      <point x="234" y="520"/>
      <point x="216" y="545"/>
      <point x="182" y="557" type="curve"/>
      <point x="182" y="560" type="line"/>
      <point x="214" y="575"/>
      <point x="226" y="603"/>
      <point x="226" y="641" type="curve" smooth="yes"/>
      <point x="226" y="692"/>
      <point x="191" y="723"/>
      <point x="138" y="723" type="curve" smooth="yes"/>
      <point x="99" y="723"/>
      <point x="64" y="707"/>
      <point x="38" y="680" type="curve"/>
      <point x="73" y="621" type="line"/>
      <point x="92" y="642"/>
      <point x="108" y="650"/>
      <point x="127" y="650" type="curve" smooth="yes"/>
      <point x="146" y="650"/>
      <point x="150" y="637"/>
      <point x="150" y="619" type="curve" smooth="yes"/>
      <point x="150" y="600"/>
      <point x="142" y="588"/>
      <point x="113" y="588" type="curve" smooth="yes"/>
      <point x="95" y="588" type="line"/>
      <point x="95" y="519" type="line"/>
      <point x="123" y="519" type="line" smooth="yes"/>
      <point x="151" y="519"/>
      <point x="155" y="508"/>
      <point x="155" y="489" type="curve" smooth="yes"/>
      <point x="155" y="466"/>
      <point x="145" y="457"/>
      <point x="122" y="457" type="curve" smooth="yes"/>
      <point x="94" y="457"/>
      <point x="62" y="467"/>
      <point x="40" y="489" type="curve"/>
      <point x="40" y="406" type="line"/>
      <point x="63" y="388"/>
      <point x="95" y="380"/>
    </contour>
  </outline>
</glyph>
<glyph name="Aring.serif" format="2">
  <advance width="657"/>
  <unicode hex="00C5"/>
  <anchor x="329" y="0" name="bottom"/>
  <anchor x="329" y="876" name="top"/>
  <outline>
    <contour>
      <point x="6" y="0" type="line"/>
      <point x="232" y="0" type="line"/>
      <point x="232" y="56" type="line"/>
      <point x="185" y="56" type="line" smooth="yes"/>
      <point x="180" y="56"/>
      <point x="161" y="69"/>
      <point x="161" y="91" type="curve" smooth="yes"/>
      <point x="161" y="110"/>
      <point x="169" y="140"/>
      <point x="172" y="156" type="curve" smooth="yes"/>
      <point x="191" y="234" type="line"/>
      <point x="382" y="234" type="line"/>
      <point x="407" y="140" type="line" smooth="yes"/>
      <point x="411" y="129"/>
      <point x="416" y="108"/>
      <point x="416" y="90" type="curve" smooth="yes"/>
      <point x="416" y="66"/>
      <point x="394" y="56"/>
      <point x="391" y="56" type="curve" smooth="yes"/>
      <point x="348" y="56" type="line"/>
      <point x="348" y="0" type="line"/>
      <point x="657" y="0" type="line"/>
      <point x="657" y="56" type="line"/>
      <point x="639" y="56" type="line" smooth="yes"/>
      <point x="617" y="56"/>
      <point x="592" y="73"/>
      <point x="574" y="133" type="curve" smooth="yes"/>
      <point x="416" y="686" type="line"/>
      <point x="427" y="705"/>
      <point x="433" y="731"/>
      <point x="433" y="767" type="curve" smooth="yes"/>
      <point x="433" y="838"/>
      <point x="389" y="876"/>
      <point x="333" y="876" type="curve" smooth="yes"/>
      <point x="277" y="876"/>
      <point x="233" y="838"/>
      <point x="233" y="767" type="curve" smooth="yes"/>
      <point x="233" y="731"/>
      <point x="239" y="704"/>
      <point x="250" y="686" type="curve"/>
      <point x="80" y="127" type="line" smooth="yes"/>
      <point x="63" y="68"/>
      <point x="40" y="56"/>
      <point x="11" y="56" type="curve" smooth="yes"/>
      <point x="6" y="56" type="line"/>
    </contour>
    <contour>
      <point x="210" y="298" type="line"/>
      <point x="253" y="465" type="line" smooth="yes"/>
      <point x="263" y="503"/>
      <point x="283" y="574"/>
      <point x="293" y="610" type="curve"/>
      <point x="302" y="567"/>
      <point x="316" y="502"/>
      <point x="326" y="461" type="curve" smooth="yes"/>
      <point x="363" y="298" type="line"/>
    </contour>
    <contour>
      <point x="333" y="714" type="curve" smooth="yes"/>
      <point x="304" y="714"/>
      <point x="288" y="730"/>
      <point x="288" y="767" type="curve" smooth="yes"/>
      <point x="288" y="806"/>
      <point x="308" y="820"/>
      <point x="333" y="820" type="curve" smooth="yes"/>
      <point x="356" y="820"/>
      <point x="377" y="806"/>
      <point x="377" y="767" type="curve" smooth="yes"/>
      <point x="377" y="728"/>
      <point x="357" y="714"/>
    </contour>
  </outline>
</glyph>
<glyph name="AE.serif" format="2">
  <advance width="854"/>
  <unicode hex="00C6"/>
  <anchor x="427" y="0" name="bottom"/>
  <anchor x="427" y="714" name="top"/>
  <outline>
    <contour>
      <point x="0" y="0" type="line"/>
      <point x="213" y="0" type="line"/>
      <point x="213" y="56" type="line"/>
      <point x="201" y="56" type="line" smooth="yes"/>
      <point x="169" y="56"/>
      <point x="153" y="68"/>
      <point x="153" y="95" type="curve" smooth="yes"/>
      <point x="153" y="107"/>
      <point x="158" y="126"/>
      <point x="165" y="148" type="curve" smooth="yes"/>
      <point x="193" y="227" type="line"/>
      <point x="385" y="227" type="line"/>
      <point x="385" y="122" type="line" smooth="yes"/>
      <point x="385" y="72"/>
      <point x="371" y="56"/>
      <point x="336" y="56" type="curve" smooth="yes"/>
      <point x="308" y="56" type="line"/>
      <point x="308" y="0" type="line"/>
      <point x="828" y="0" type="line"/>
      <point x="833" y="187" type="line"/>
      <point x="765" y="187" type="line"/>
      <point x="759" y="139" type="line" smooth="yes"/>
      <point x="753" y="95"/>
      <point x="736" y="64"/>
      <point x="700" y="64" type="curve" smooth="yes"/>
      <point x="551" y="64" type="line"/>
      <point x="551" y="342" type="line"/>
      <point x="748" y="342" type="line"/>
      <point x="748" y="405" type="line"/>
      <point x="551" y="405" type="line"/>
      <point x="551" y="650" type="line"/>
      <point x="676" y="650" type="line" smooth="yes"/>
      <point x="715" y="650"/>
      <point x="728" y="626"/>
      <point x="731" y="575" type="curve" smooth="yes"/>
      <point x="735" y="527" type="line"/>
      <point x="805" y="527" type="line"/>
      <point x="803" y="714" type="line"/>
      <point x="263" y="714" type="line"/>
      <point x="263" y="658" type="line"/>
      <point x="311" y="653" type="line"/>
      <point x="82" y="135" type="line" smooth="yes"/>
      <point x="58" y="81"/>
      <point x="37" y="56"/>
      <point x="8" y="56" type="curve" smooth="yes"/>
      <point x="0" y="56" type="line"/>
    </contour>
    <contour>
      <point x="223" y="289" type="line"/>
      <point x="379" y="650" type="line"/>
      <point x="385" y="650" type="line"/>
      <point x="385" y="289" type="line"/>
    </contour>
  </outline>
</glyph>
<glyph name="Eth.serif" format="2">
  <advance width="664"/>
  <unicode hex="00D0"/>
  <anchor x="332" y="0" name="bottom"/>
  <anchor x="332" y="714" name="top"/>
  <outline>
    <contour>
      <point x="18" y="0" type="line"/>
      <point x="308" y="0" type="line" smooth="yes"/>
      <point x="512" y="0"/>
      <point x="620" y="154"/>
      <point x="620" y="373" type="curve" smooth="yes"/>
      <point x="620" y="600"/>
      <point x="502" y="714"/>
      <point x="308" y="714" type="curve" smooth="yes"/>
      <point x="18" y="714" type="line"/>
      <point x="18" y="658" type="line"/>
      <point x="55" y="658" type="line" smooth="yes"/>
      <point x="79" y="658"/>
      <point x="94" y="643"/>
      <point x="94" y="601" type="curve"/>
      <point x="94" y="405" type="line"/>
      <point x="32" y="405" type="line"/>
      <point x="32" y="342" type="line"/>
      <point x="94" y="342" type="line"/>
      <point x="94" y="114" type="line" smooth="yes"/>
      <point x="94" y="77"/>
      <point x="82" y="56"/>
      <point x="62" y="56" type="curve" smooth="yes"/>
      <point x="18" y="56" type="line"/>
    </contour>
    <contour>
      <point x="288" y="65" type="curve" smooth="yes"/>
      <point x="261" y="65" type="line"/>
      <point x="261" y="342" type="line"/>
      <point x="337" y="342" type="line"/>
      <point x="337" y="405" type="line"/>
      <point x="261" y="405" type="line"/>
      <point x="261" y="650" type="line"/>
      <point x="288" y="650" type="line" smooth="yes"/>
      <point x="388" y="650"/>
      <point x="443" y="563"/>
      <point x="443" y="373" type="curve" smooth="yes"/>
      <point x="443" y="184"/>
      <point x="388" y="65"/>
    </contour>
  </outline>
</glyph>
<glyph name="Oslash.serif" format="2">
  <advance width="684"/>
  <unicode hex="00D8"/>
  <anchor x="342" y="0" name="bottom"/>
  <anchor x="342" y="714" name="top"/>
  <outline>
    <contour>
      <point x="170" y="41" type="curve"/>
      <point x="135" y="-40" type="line"/>
      <point x="202" y="-40" type="line"/>
      <point x="224" y="11" type="line"/>
      <point x="259" y="-3"/>
      <point x="298" y="-10"/>
      <point x="343" y="-10" type="curve" smooth="yes"/>
      <point x="533" y="-10"/>
      <point x="639" y="137"/>
      <point x="639" y="358" type="curve" smooth="yes"/>
      <point x="639" y="500"/>
      <point x="596" y="611"/>
      <point x="515" y="672" type="curve"/>
      <point x="551" y="755" type="line"/>
      <point x="484" y="755" type="line"/>
      <point x="461" y="703" type="line"/>
      <point x="427" y="717"/>
      <point x="388" y="725"/>
      <point x="344" y="725" type="curve" smooth="yes"/>
      <point x="142" y="725"/>
      <point x="45" y="580"/>
      <point x="45" y="359" type="curve" smooth="yes"/>
      <point x="45" y="214"/>
      <point x="86" y="102"/>
    </contour>
    <contour>
      <point x="343" y="58" type="curve" smooth="yes"/>
      <point x="309" y="58"/>
      <point x="284" y="74"/>
      <point x="265" y="104" type="curve"/>
      <point x="451" y="527" type="line"/>
      <point x="460" y="482"/>
      <point x="464" y="425"/>
      <point x="464" y="358" type="curve" smooth="yes"/>
      <point x="464" y="169"/>
      <point x="432" y="58"/>
    </contour>
    <contour>
      <point x="421" y="612" type="curve"/>
      <point x="235" y="187" type="line"/>
      <point x="225" y="233"/>
      <point x="221" y="291"/>
      <point x="221" y="358" type="curve" smooth="yes"/>
      <point x="221" y="547"/>
      <point x="254" y="657"/>
      <point x="344" y="657" type="curve" smooth="yes"/>
      <point x="377" y="657"/>
      <point x="402" y="641"/>
    </contour>
  </outline>
</glyph>
<glyph name="Thorn.serif" format="2">
  <advance width="553"/>
  <unicode hex="00DE"/>
  <anchor x="277" y="0" name="bottom"/>
  <anchor x="277" y="714" name="top"/>
  <outline>
    <contour>
      <point x="18" y="0" type="line"/>
      <point x="339" y="0" type="line"/>
      <point x="339" y="56" type="line"/>
      <point x="293" y="56" type="line" smooth="yes"/>
      <point x="277" y="56"/>
      <point x="262" y="74"/>
      <point x="262" y="111" type="curve" smooth="yes"/>
      <point x="262" y="139" type="line"/>
      <point x="271" y="139" type="line" smooth="yes"/>
      <point x="462" y="139"/>
      <point x="534" y="251"/>
      <point x="534" y="371" type="curve" smooth="yes"/>
      <point x="534" y="502"/>
      <point x="455" y="587"/>
      <point x="289" y="587" type="curve" smooth="yes"/>
      <point x="262" y="587" type="line"/>
      <point x="262" y="603" type="line" smooth="yes"/>
      <point x="262" y="643"/>
      <point x="273" y="658"/>
      <point x="293" y="658" type="curve" smooth="yes"/>
      <point x="339" y="658" type="line"/>
      <point x="339" y="714" type="line"/>
      <point x="18" y="714" type="line"/>
      <point x="18" y="658" type="line"/>
      <point x="62" y="658" type="line" smooth="yes"/>
      <point x="76" y="658"/>
      <point x="94" y="643"/>
      <point x="94" y="601" type="curve" smooth="yes"/>
      <point x="94" y="109" type="line" smooth="yes"/>
      <point x="94" y="71"/>
      <point x="76" y="56"/>
      <point x="62" y="56" type="curve" smooth="yes"/>
      <point x="18" y="56" type="line"/>
    </contour>
    <contour>
      <point x="273" y="200" type="curve" smooth="yes"/>
      <point x="262" y="200" type="line"/>
      <point x="262" y="524" type="line"/>
      <point x="275" y="524" type="line" smooth="yes"/>
      <point x="334" y="524"/>
      <point x="356" y="472"/>
      <point x="356" y="367" type="curve" smooth="yes"/>
      <point x="356" y="249"/>
      <point x="331" y="200"/>
    </contour>
  </outline>
</glyph>
<glyph name="germandbls.serif" format="2">
  <advance width="625"/>
  <unicode hex="00DF"/>
  <anchor x="313" y="0" name="bottom"/>
  <anchor x="313" y="772" name="top"/>
  <outline>
    <contour>
      <point x="413" y="-10" type="curve" smooth="yes"/>
      <point x="528" y="-10"/>
      <point x="595" y="48"/>
      <point x="595" y="156" type="curve" smooth="yes"/>
      <point x="595" y="239"/>
      <point x="541" y="283"/>
      <point x="483" y="322" type="curve" smooth="yes"/>
      <point x="432" y="356"/>
      <point x="410" y="372"/>
      <point x="410" y="421" type="curve" smooth="yes"/>
      <point x="410" y="473"/>
      <point x="449" y="492"/>
      <point x="499" y="492" type="curve" smooth="yes"/>
      <point x="553" y="492" type="line"/>
      <point x="552" y="681"/>
      <point x="488" y="772"/>
      <point x="317" y="772" type="curve" smooth="yes"/>
      <point x="179" y="772"/>
      <point x="73" y="713"/>
      <point x="73" y="541" type="curve" smooth="yes"/>
      <point x="73" y="536" type="line"/>
      <point x="7" y="536" type="line"/>
      <point x="7" y="460" type="line"/>
      <point x="73" y="460" type="line"/>
      <point x="73" y="119" type="line" smooth="yes"/>
      <point x="73" y="63"/>
      <point x="63" y="56"/>
      <point x="49" y="56" type="curve" smooth="yes"/>
      <point x="-5" y="56" type="line"/>
      <point x="-5" y="0" type="line"/>
      <point x="234" y="0" type="line"/>
      <point x="234" y="571" type="line" smooth="yes"/>
      <point x="234" y="671"/>
      <point x="270" y="713"/>
      <point x="319" y="713" type="curve" smooth="yes"/>
      <point x="373" y="713"/>
      <point x="403" y="671"/>
      <point x="404" y="545" type="curve"/>
      <point x="338" y="536"/>
      <point x="272" y="495"/>
      <point x="272" y="392" type="curve" smooth="yes"/>
      <point x="272" y="315"/>
      <point x="303" y="274"/>
      <point x="375" y="230" type="curve" smooth="yes"/>
      <point x="439" y="191"/>
      <point x="462" y="161"/>
      <point x="462" y="119" type="curve" smooth="yes"/>
      <point x="462" y="74"/>
      <point x="443" y="51"/>
      <point x="417" y="51" type="curve" smooth="yes"/>
      <point x="368" y="51"/>
      <point x="337" y="98"/>
      <point x="324" y="175" type="curve"/>
      <point x="286" y="175"/>
      <point x="260" y="156"/>
      <point x="260" y="107" type="curve" smooth="yes"/>
      <point x="260" y="42"/>
      <point x="303" y="-10"/>
    </contour>
  </outline>
</glyph>
<glyph name="ae.serif" format="2">
  <advance width="751"/>
  <unicode hex="00E6"/>
  <anchor x="376" y="0" name="bottom"/>
  <anchor x="376" y="536" name="top"/>
  <outline>
    <contour>
      <point x="178" y="-10" type="curve" smooth="yes"/>
      <point x="251" y="-10"/>
      <point x="300" y="26"/>
      <point x="338" y="82" type="curve"/>
      <point x="376" y="22"/>
      <point x="436" y="-10"/>
      <point x="520" y="-10" type="curve" smooth="yes"/>
      <point x="654" y="-10"/>
      <point x="705" y="53"/>
      <point x="705" y="109" type="curve" smooth="yes"/>
      <point x="705" y="132"/>
      <point x="689" y="149"/>
      <point x="668" y="155" type="curve"/>
      <point x="650" y="104"/>
      <point x="619" y="67"/>
      <point x="562" y="67" type="curve" smooth="yes"/>
      <point x="490" y="67"/>
      <point x="453" y="126"/>
      <point x="451" y="257" type="curve"/>
      <point x="721" y="257" type="line"/>
      <point x="721" y="308" type="line" smooth="yes"/>
      <point x="721" y="466"/>
      <point x="641" y="550"/>
      <point x="526" y="550" type="curve" smooth="yes"/>
      <point x="466" y="550"/>
      <point x="421" y="527"/>
      <point x="388" y="493" type="curve"/>
      <point x="355" y="532"/>
      <point x="310" y="550"/>
      <point x="247" y="550" type="curve" smooth="yes"/>
      <point x="153" y="550"/>
      <point x="69" y="520"/>
      <point x="69" y="446" type="curve" smooth="yes"/>
      <point x="69" y="398"/>
      <point x="105" y="378"/>
      <point x="199" y="378" type="curve"/>
      <point x="199" y="440"/>
      <point x="212" y="486"/>
      <point x="246" y="486" type="curve" smooth="yes"/>
      <point x="274" y="486"/>
      <point x="286" y="440"/>
      <point x="286" y="374" type="curve" smooth="yes"/>
      <point x="286" y="320" type="line"/>
      <point x="218" y="317" type="line" smooth="yes"/>
      <point x="95" y="312"/>
      <point x="34" y="263"/>
      <point x="34" y="154" type="curve" smooth="yes"/>
      <point x="34" y="39"/>
      <point x="97" y="-10"/>
    </contour>
    <contour>
      <point x="232" y="64" type="curve" smooth="yes"/>
      <point x="210" y="64"/>
      <point x="200" y="93"/>
      <point x="200" y="150" type="curve" smooth="yes"/>
      <point x="200" y="221"/>
      <point x="215" y="256"/>
      <point x="262" y="262" type="curve" smooth="yes"/>
      <point x="287" y="265" type="line"/>
      <point x="287" y="191" type="line" smooth="yes"/>
      <point x="287" y="114"/>
      <point x="265" y="64"/>
    </contour>
    <contour>
      <point x="561" y="322" type="curve"/>
      <point x="453" y="322" type="line"/>
      <point x="453" y="428"/>
      <point x="479" y="483"/>
      <point x="514" y="483" type="curve" smooth="yes"/>
      <point x="547" y="483"/>
      <point x="561" y="423"/>
    </contour>
  </outline>
</glyph>
<glyph name="eth.serif" format="2">
  <advance width="533"/>
  <unicode hex="00F0"/>
  <anchor x="267" y="0" name="bottom"/>
  <anchor x="267" y="762" name="top"/>
  <outline>
    <contour>
      <point x="264" y="-10" type="curve" smooth="yes"/>
      <point x="417" y="-10"/>
      <point x="499" y="87"/>
      <point x="499" y="289" type="curve" smooth="yes"/>
      <point x="499" y="465"/>
      <point x="446" y="584"/>
      <point x="352" y="663" type="curve"/>
      <point x="394" y="693" type="line"/>
      <point x="394" y="762" type="line"/>
      <point x="291" y="701" type="line"/>
      <point x="229" y="739"/>
      <point x="163" y="753"/>
      <point x="114" y="761" type="curve"/>
      <point x="114" y="693" type="line"/>
      <point x="142" y="688"/>
      <point x="179" y="676"/>
      <point x="206" y="655" type="curve"/>
      <point x="138" y="614" type="line"/>
      <point x="138" y="547" type="line"/>
      <point x="257" y="614" type="line"/>
      <point x="292" y="581"/>
      <point x="314" y="536"/>
      <point x="326" y="491" type="curve"/>
      <point x="310" y="508"/>
      <point x="275" y="523"/>
      <point x="230" y="523" type="curve" smooth="yes"/>
      <point x="109" y="523"/>
      <point x="34" y="434"/>
      <point x="34" y="256" type="curve" smooth="yes"/>
      <point x="34" y="79"/>
      <point x="121" y="-10"/>
    </contour>
    <contour>
      <point x="267" y="56" type="curve" smooth="yes"/>
      <point x="217" y="56"/>
      <point x="200" y="125"/>
      <point x="200" y="256" type="curve" smooth="yes"/>
      <point x="200" y="395"/>
      <point x="218" y="455"/>
      <point x="266" y="455" type="curve" smooth="yes"/>
      <point x="316" y="455"/>
      <point x="336" y="392"/>
      <point x="336" y="256" type="curve" smooth="yes"/>
      <point x="336" y="125"/>
      <point x="316" y="56"/>
    </contour>
  </outline>
</glyph>
<glyph name="oslash.mono" format="2">
  <advance width="500"/>
  <unicode hex="00F8"/>
  <anchor x="250" y="0" name="bottom"/>
  <anchor x="250" y="553" name="top"/>
  <outline>
    <contour>
      <point x="129" y="-59" type="line"/>
      <point x="439" y="562" type="line"/>
      <point x="368" y="595" type="line"/>
      <point x="58" y="-26" type="line"/>
    </contour>
    <component base="o"/>
  </outline>
</glyph>
<glyph name="oslash.serif" format="2">
  <advance width="533"/>
  <unicode hex="00F8"/>
  <anchor x="267" y="0" name="bottom"/>
  <anchor x="267" y="536" name="top"/>
  <outline>
    <contour>
      <point x="117" y="41" type="curve"/>
      <point x="78" y="-40" type="line"/>
      <point x="144" y="-40" type="line"/>
      <point x="168" y="10" type="line"/>
      <point x="197" y="-3"/>
      <point x="228" y="-10"/>
      <point x="265" y="-10" type="curve" smooth="yes"/>
      <point x="419" y="-10"/>
      <point x="499" y="82"/>
      <point x="499" y="270" type="curve" smooth="yes"/>
      <point x="499" y="374"/>
      <point x="470" y="448"/>
      <point x="421" y="494" type="curve"/>
      <point x="460" y="576" type="line"/>
      <point x="394" y="576" type="line"/>
      <point x="371" y="527" type="line"/>
      <point x="341" y="542"/>
      <point x="306" y="550"/>
      <point x="268" y="550" type="curve" smooth="yes"/>
      <point x="114" y="550"/>
      <point x="34" y="458"/>
      <point x="34" y="270" type="curve" smooth="yes"/>
      <point x="34" y="163"/>
      <point x="63" y="87"/>
    </contour>
    <contour>
      <point x="267" y="56" type="curve" smooth="yes"/>
      <point x="241" y="56"/>
      <point x="227" y="68"/>
      <point x="215" y="95" type="curve"/>
      <point x="333" y="352" type="line"/>
      <point x="335" y="326"/>
      <point x="335" y="298"/>
      <point x="335" y="268" type="curve" smooth="yes"/>
      <point x="335" y="128"/>
      <point x="316" y="56"/>
    </contour>
    <contour>
      <point x="320" y="439" type="curve"/>
      <point x="199" y="175" type="line"/>
      <point x="197" y="202"/>
      <point x="197" y="234"/>
      <point x="197" y="270" type="curve" smooth="yes"/>
      <point x="197" y="411"/>
      <point x="216" y="483"/>
      <point x="266" y="483" type="curve" smooth="yes"/>
      <point x="293" y="483"/>
      <point x="309" y="469"/>
    </contour>
  </outline>
</glyph>
<glyph name="thorn.serif" format="2">
  <advance width="557"/>
  <unicode hex="00FE"/>
  <anchor x="279" y="-240" name="bottom"/>
  <anchor x="279" y="760" name="top"/>
  <outline>
    <contour>
      <point x="7" y="-240" type="line"/>
      <point x="309" y="-240" type="line"/>
      <point x="309" y="-184" type="line"/>
      <point x="287" y="-184" type="line" smooth="yes"/>
      <point x="256" y="-184"/>
      <point x="236" y="-173"/>
      <point x="236" y="-116" type="curve" smooth="yes"/>
      <point x="236" y="-58" type="line" smooth="yes"/>
      <point x="236" y="-12"/>
      <point x="234" y="36"/>
      <point x="231" y="64" type="curve"/>
      <point x="236" y="64" type="line"/>
      <point x="260" y="14"/>
      <point x="294" y="-12"/>
      <point x="357" y="-12" type="curve" smooth="yes"/>
      <point x="464" y="-12"/>
      <point x="522" y="72"/>
      <point x="522" y="265" type="curve" smooth="yes"/>
      <point x="522" y="460"/>
      <point x="462" y="546"/>
      <point x="351" y="546" type="curve" smooth="yes"/>
      <point x="287" y="546"/>
      <point x="256" y="514"/>
      <point x="232" y="464" type="curve"/>
      <point x="229" y="464" type="line"/>
      <point x="233" y="487"/>
      <point x="236" y="539"/>
      <point x="236" y="574" type="curve" smooth="yes"/>
      <point x="236" y="760" type="line"/>
      <point x="21" y="760" type="line"/>
      <point x="21" y="704" type="line"/>
      <point x="27" y="704" type="line" smooth="yes"/>
      <point x="55" y="704"/>
      <point x="72" y="695"/>
      <point x="72" y="633" type="curve" smooth="yes"/>
      <point x="72" y="-118" type="line" smooth="yes"/>
      <point x="72" y="-173"/>
      <point x="51" y="-184"/>
      <point x="20" y="-184" type="curve" smooth="yes"/>
      <point x="7" y="-184" type="line"/>
    </contour>
    <contour>
      <point x="298" y="62" type="curve" smooth="yes"/>
      <point x="249" y="62"/>
      <point x="236" y="127"/>
      <point x="236" y="266" type="curve" smooth="yes"/>
      <point x="236" y="393"/>
      <point x="249" y="470"/>
      <point x="301" y="470" type="curve" smooth="yes"/>
      <point x="342" y="470"/>
      <point x="359" y="395"/>
      <point x="359" y="264" type="curve" smooth="yes"/>
      <point x="359" y="128"/>
      <point x="342" y="62"/>
    </contour>
  </outline>
</glyph>
<glyph name="dcroat.serif" format="2">
  <advance width="563"/>
  <unicode hex="0111"/>
  <anchor x="282" y="0" name="bottom"/>
  <anchor x="282" y="760" name="top"/>
  <outline>
    <contour>
      <point x="203" y="-10" type="curve" smooth="yes"/>
      <point x="267" y="-10"/>
      <point x="307" y="22"/>
      <point x="332" y="75" type="curve"/>
      <point x="337" y="75" type="line"/>
      <point x="366" y="0" type="line"/>
      <point x="550" y="0" type="line"/>
      <point x="550" y="56" type="line"/>
      <point x="543" y="56" type="line" smooth="yes"/>
      <point x="502" y="56"/>
      <point x="483" y="73"/>
      <point x="483" y="135" type="curve" smooth="yes"/>
      <point x="483" y="575" type="line"/>
      <point x="553" y="575" type="line"/>
      <point x="553" y="627" type="line"/>
      <point x="483" y="627" type="line"/>
      <point x="483" y="760" type="line"/>
      <point x="246" y="760" type="line"/>
      <point x="246" y="704" type="line"/>
      <point x="254" y="704" type="line" smooth="yes"/>
      <point x="290" y="704"/>
      <point x="320" y="697"/>
      <point x="320" y="643" type="curve" smooth="yes"/>
      <point x="320" y="627" type="line"/>
      <point x="201" y="627" type="line"/>
      <point x="201" y="575" type="line"/>
      <point x="320" y="575" type="line"/>
      <point x="320" y="546" type="line" smooth="yes"/>
      <point x="320" y="509"/>
      <point x="320" y="463"/>
      <point x="321" y="442" type="curve"/>
      <point x="317" y="442" type="line"/>
      <point x="294" y="484"/>
      <point x="261" y="514"/>
      <point x="200" y="514" type="curve" smooth="yes"/>
      <point x="94" y="514"/>
      <point x="32" y="426"/>
      <point x="32" y="250" type="curve" smooth="yes"/>
      <point x="32" y="75"/>
      <point x="94" y="-10"/>
    </contour>
    <contour>
      <point x="254" y="66" type="curve" smooth="yes"/>
      <point x="212" y="66"/>
      <point x="196" y="132"/>
      <point x="196" y="251" type="curve" smooth="yes"/>
      <point x="196" y="368"/>
      <point x="212" y="441"/>
      <point x="255" y="441" type="curve" smooth="yes"/>
      <point x="305" y="441"/>
      <point x="320" y="366"/>
      <point x="320" y="252" type="curve" smooth="yes"/>
      <point x="320" y="135"/>
      <point x="305" y="66"/>
    </contour>
  </outline>
</glyph>
<glyph name="eogonek.display" format="2">
  <advance width="471"/>
  <unicode hex="0119"/>
  <anchor x="255" y="-240" name="bottom"/>
  <anchor x="241" y="553" name="top"/>
  <outline>
    <contour>
      <point x="343" y="-97" type="curve" smooth="yes"/>
      <point x="343" y="-69"/>
      <point x="356" y="-34"/>
      <point x="418" y="30" type="curve"/>
      <point x="297" y="0" type="line"/>
      <point x="241" y="-43"/>
      <point x="220" y="-82"/>
      <point x="220" y="-127" type="curve" smooth="yes"/>
      <point x="220" y="-196"/>
      <point x="256" y="-240"/>
      <point x="341" y="-240" type="curve" smooth="yes"/>
      <point x="367" y="-240"/>
      <point x="402" y="-236"/>
      <point x="426" y="-227" type="curve"/>
      <point x="426" y="-119" type="line"/>
      <point x="416" y="-125"/>
      <point x="390" y="-130"/>
      <point x="377" y="-130" type="curve" smooth="yes"/>
      <point x="358" y="-130"/>
      <point x="343" y="-119"/>
    </contour>
    <component base="e"/>
  </outline>
</glyph>
<glyph name="eogonek.mono" format="2">
  <advance width="500"/>
  <unicode hex="0119"/>
  <anchor x="260" y="-240" name="bottom"/>
  <anchor x="250" y="553" name="top"/>
  <outline>
    <contour>
      <point x="365" y="-240" type="curve" smooth="yes"/>
      <point x="395" y="-240"/>
      <point x="419" y="-233"/>
      <point x="434" y="-226" type="curve"/>
      <point x="434" y="-136" type="line"/>
      <point x="424" y="-141"/>
      <point x="413" y="-145"/>
      <point x="399" y="-145" type="curve" smooth="yes"/>
      <point x="370" y="-145"/>
      <point x="355" y="-128"/>
      <point x="355" y="-98" type="curve" smooth="yes"/>
      <point x="355" y="-63"/>
      <point x="376" y="-33"/>
      <point x="447" y="30" type="curve"/>
      <point x="385" y="46" type="line"/>
      <point x="316" y="5"/>
      <point x="246" y="-38"/>
      <point x="246" y="-124" type="curve" smooth="yes"/>
      <point x="246" y="-192"/>
      <point x="286" y="-240"/>
    </contour>
    <component base="e"/>
  </outline>
</glyph>
<glyph name="eogonek.serif" format="2">
  <advance width="499"/>
  <unicode hex="0119"/>
  <anchor x="250" y="-238" name="bottom"/>
  <anchor x="250" y="536" name="top"/>
  <outline>
    <contour>
      <point x="345" y="-238" type="curve" smooth="yes"/>
      <point x="363" y="-238"/>
      <point x="404" y="-232"/>
      <point x="421" y="-223" type="curve"/>
      <point x="421" y="-158" type="line"/>
      <point x="401" y="-164"/>
      <point x="384" y="-167"/>
      <point x="369" y="-167" type="curve" smooth="yes"/>
      <point x="336" y="-167"/>
      <point x="311" y="-152"/>
      <point x="311" y="-117" type="curve" smooth="yes"/>
      <point x="311" y="-59"/>
      <point x="330" y="-26"/>
      <point x="377" y="10" type="curve"/>
      <point x="430" y="33"/>
      <point x="452" y="73"/>
      <point x="452" y="109" type="curve" smooth="yes"/>
      <point x="452" y="133"/>
      <point x="436" y="149"/>
      <point x="416" y="155" type="curve"/>
      <point x="397" y="105"/>
      <point x="366" y="67"/>
      <point x="309" y="67" type="curve" smooth="yes"/>
      <point x="237" y="67"/>
      <point x="200" y="125"/>
      <point x="198" y="257" type="curve"/>
      <point x="468" y="257" type="line"/>
      <point x="468" y="308" type="line" smooth="yes"/>
      <point x="468" y="466"/>
      <point x="388" y="550"/>
      <point x="257" y="550" type="curve" smooth="yes"/>
      <point x="115" y="550"/>
      <point x="34" y="453"/>
      <point x="34" y="265" type="curve" smooth="yes"/>
      <point x="34" y="91"/>
      <point x="109" y="-10"/>
      <point x="267" y="-10" type="curve" smooth="yes"/>
      <point x="274" y="-10"/>
      <point x="282" y="-10"/>
      <point x="289" y="-9" type="curve"/>
      <point x="247" y="-31"/>
      <point x="213" y="-78"/>
      <point x="213" y="-130" type="curve" smooth="yes"/>
      <point x="213" y="-205"/>
      <point x="257" y="-238"/>
    </contour>
    <contour>
      <point x="308" y="322" type="curve"/>
      <point x="200" y="322" type="line"/>
      <point x="200" y="426"/>
      <point x="226" y="483"/>
      <point x="261" y="483" type="curve" smooth="yes"/>
      <point x="294" y="483"/>
      <point x="309" y="423"/>
    </contour>
  </outline>
</glyph>
<glyph name="hbar.serif" format="2">
  <advance width="576"/>
  <unicode hex="0127"/>
  <anchor x="288" y="0" name="bottom"/>
  <anchor x="288" y="760" name="top"/>
  <outline>
    <contour>
      <point x="17" y="0" type="line"/>
      <point x="297" y="0" type="line"/>
      <point x="297" y="56" type="line"/>
      <point x="294" y="56" type="line"/>
      <point x="257" y="56"/>
      <point x="242" y="65"/>
      <point x="242" y="121" type="curve" smooth="yes"/>
      <point x="242" y="271" type="line" smooth="yes"/>
      <point x="242" y="349"/>
      <point x="248" y="425"/>
      <point x="293" y="425" type="curve" smooth="yes"/>
      <point x="327" y="425"/>
      <point x="340" y="375"/>
      <point x="340" y="290" type="curve" smooth="yes"/>
      <point x="340" y="0" type="line"/>
      <point x="556" y="0" type="line"/>
      <point x="556" y="56" type="line"/>
      <point x="552" y="56" type="line" smooth="yes"/>
      <point x="514" y="56"/>
      <point x="503" y="65"/>
      <point x="503" y="126" type="curve" smooth="yes"/>
      <point x="503" y="323" type="line" smooth="yes"/>
      <point x="503" y="457"/>
      <point x="461" y="515"/>
      <point x="368" y="515" type="curve" smooth="yes"/>
      <point x="296" y="515"/>
      <point x="264" y="477"/>
      <point x="244" y="437" type="curve"/>
      <point x="238" y="437" type="line"/>
      <point x="240" y="465"/>
      <point x="242" y="500"/>
      <point x="242" y="534" type="curve" smooth="yes"/>
      <point x="242" y="575" type="line"/>
      <point x="360" y="575" type="line"/>
      <point x="360" y="627" type="line"/>
      <point x="242" y="627" type="line"/>
      <point x="242" y="760" type="line"/>
      <point x="14" y="760" type="line"/>
      <point x="14" y="704" type="line"/>
      <point x="26" y="704" type="line" smooth="yes"/>
      <point x="48" y="704"/>
      <point x="79" y="697"/>
      <point x="79" y="645" type="curve" smooth="yes"/>
      <point x="79" y="627" type="line"/>
      <point x="8" y="627" type="line"/>
      <point x="8" y="575" type="line"/>
      <point x="79" y="575" type="line"/>
      <point x="79" y="124" type="line" smooth="yes"/>
      <point x="79" y="65"/>
      <point x="54" y="56"/>
      <point x="21" y="56" type="curve" smooth="yes"/>
      <point x="17" y="56" type="line"/>
    </contour>
  </outline>
</glyph>
<glyph name="idotless.mono" format="2">
  <advance width="500"/>
  <unicode hex="0131"/>
  <anchor x="250" y="0" name="bottom"/>
  <anchor x="259" y="299" name="center"/>
  <anchor x="250" y="553" name="top"/>
  <outline>
    <contour>
      <point x="35" y="0" type="line"/>
      <point x="465" y="0" type="line"/>
      <point x="465" y="114" type="line"/>
      <point x="337" y="132" type="line"/>
      <point x="337" y="553" type="line"/>
      <point x="66" y="553" type="line"/>
      <point x="66" y="431" type="line"/>
      <point x="185" y="419" type="line"/>
      <point x="185" y="132" type="line"/>
      <point x="35" y="114" type="line"/>
    </contour>
  </outline>
</glyph>
<glyph name="idotless.serif" format="2">
  <advance width="313"/>
  <unicode hex="0131"/>
  <anchor x="157" y="0" name="bottom"/>
  <anchor x="157" y="536" name="top"/>
  <outline>
    <contour>
      <point x="10" y="0" type="line"/>
      <point x="296" y="0" type="line"/>
      <point x="296" y="56" type="line"/>
      <point x="287" y="56" type="line" smooth="yes"/>
      <point x="256" y="56"/>
      <point x="234" y="71"/>
      <point x="234" y="127" type="curve" smooth="yes"/>
      <point x="234" y="536" type="line"/>
      <point x="4" y="536" type="line"/>
      <point x="4" y="480" type="line"/>
      <point x="19" y="480" type="line" smooth="yes"/>
      <point x="49" y="480"/>
      <point x="72" y="465"/>
      <point x="72" y="413" type="curve" smooth="yes"/>
      <point x="72" y="129" type="line" smooth="yes"/>
      <point x="72" y="72"/>
      <point x="51" y="56"/>
      <point x="19" y="56" type="curve" smooth="yes"/>
      <point x="10" y="56" type="line"/>
    </contour>
  </outline>
</glyph>
<glyph name="kgreenlandic.serif" format="2">
  <advance width="562"/>
  <unicode hex="0138"/>
  <anchor x="281" y="0" name="bottom"/>
  <anchor x="281" y="536" name="top"/>
  <outline>
    <contour>
      <point x="13" y="0" type="line"/>
      <point x="309" y="0" type="line"/>
      <point x="309" y="56" type="line"/>
      <point x="293" y="56" type="line" smooth="yes"/>
      <point x="279" y="56"/>
      <point x="242" y="64"/>
      <point x="242" y="121" type="curve" smooth="yes"/>
      <point x="242" y="197" type="line"/>
      <point x="253" y="224" type="line"/>
      <point x="321" y="87" type="line" smooth="yes"/>
      <point x="360" y="6"/>
      <point x="409" y="0"/>
      <point x="550" y="0" type="curve" smooth="yes"/>
      <point x="561" y="0" type="line"/>
      <point x="561" y="56" type="line"/>
      <point x="559" y="56" type="line" smooth="yes"/>
      <point x="540" y="56"/>
      <point x="506" y="80"/>
      <point x="477" y="133" type="curve" smooth="yes"/>
      <point x="366" y="332" type="line"/>
      <point x="415" y="401" type="line" smooth="yes"/>
      <point x="456" y="460"/>
      <point x="493" y="484"/>
      <point x="531" y="484" type="curve"/>
      <point x="531" y="536" type="line"/>
      <point x="302" y="536" type="line"/>
      <point x="302" y="484" type="line"/>
      <point x="329" y="484"/>
      <point x="347" y="471"/>
      <point x="347" y="454" type="curve" smooth="yes"/>
      <point x="347" y="448"/>
      <point x="350" y="436"/>
      <point x="337" y="421" type="curve" smooth="yes"/>
      <point x="237" y="276" type="line"/>
      <point x="237" y="276"/>
      <point x="242" y="338"/>
      <point x="242" y="374" type="curve" smooth="yes"/>
      <point x="242" y="536" type="line"/>
      <point x="13" y="536" type="line"/>
      <point x="13" y="480" type="line"/>
      <point x="26" y="480" type="line" smooth="yes"/>
      <point x="39" y="480"/>
      <point x="78" y="473"/>
      <point x="78" y="421" type="curve" smooth="yes"/>
      <point x="78" y="119" type="line" smooth="yes"/>
      <point x="78" y="63"/>
      <point x="40" y="56"/>
      <point x="26" y="56" type="curve" smooth="yes"/>
      <point x="13" y="56" type="line"/>
    </contour>
  </outline>
</glyph>
<glyph name="Lslash.mono" format="2">
  <advance width="500"/>
  <unicode hex="0141"/>
  <anchor x="307" y="0" name="bottom"/>
  <anchor x="164" y="714" name="top"/>
  <outline>
    <contour>
      <point x="56" y="205" type="line"/>
      <point x="389" y="464" type="line"/>
      <point x="318" y="554" type="line"/>
      <point x="-13" y="304" type="line"/>
    </contour>
    <component base="L" xOffset="30"/>
  </outline>
</glyph>
<glyph name="Lslash.serif" format="2">
  <advance width="565"/>
  <unicode hex="0141"/>
  <anchor x="283" y="0" name="bottom"/>
  <anchor x="283" y="714" name="top"/>
  <outline>
    <contour>
      <point x="18" y="0" type="line"/>
      <point x="538" y="0" type="line"/>
      <point x="543" y="225" type="line"/>
      <point x="494" y="225" type="line"/>
      <point x="476" y="150" type="line" smooth="yes"/>
      <point x="461" y="88"/>
      <point x="440" y="64"/>
      <point x="411" y="64" type="curve" smooth="yes"/>
      <point x="262" y="64" type="line"/>
      <point x="262" y="377" type="line"/>
      <point x="375" y="458" type="line"/>
      <point x="375" y="530" type="line"/>
      <point x="262" y="448" type="line"/>
      <point x="262" y="605" type="line" smooth="yes"/>
      <point x="262" y="643"/>
      <point x="268" y="658"/>
      <point x="298" y="658" type="curve" smooth="yes"/>
      <point x="339" y="658" type="line"/>
      <point x="339" y="714" type="line"/>
      <point x="18" y="714" type="line"/>
      <point x="18" y="658" type="line"/>
      <point x="55" y="658" type="line" smooth="yes"/>
      <point x="77" y="658"/>
      <point x="94" y="643"/>
      <point x="94" y="602" type="curve" smooth="yes"/>
      <point x="94" y="347" type="line"/>
      <point x="32" y="300" type="line"/>
      <point x="32" y="230" type="line"/>
      <point x="94" y="276" type="line"/>
      <point x="94" y="109" type="line" smooth="yes"/>
      <point x="94" y="71"/>
      <point x="77" y="56"/>
      <point x="62" y="56" type="curve" smooth="yes"/>
      <point x="18" y="56" type="line"/>
    </contour>
  </outline>
</glyph>
<glyph name="lslash.mono" format="2">
  <advance width="500"/>
  <unicode hex="0142"/>
  <anchor x="250" y="0" name="bottom"/>
  <anchor x="250" y="760" name="top"/>
  <outline>
    <contour>
      <point x="135" y="211" type="line"/>
      <point x="450" y="452" type="line"/>
      <point x="379" y="541" type="line"/>
      <point x="64" y="302" type="line"/>
    </contour>
    <component base="l"/>
  </outline>
</glyph>
<glyph name="lslash.serif" format="2">
  <advance width="311"/>
  <unicode hex="0142"/>
  <anchor x="156" y="0" name="bottom"/>
  <anchor x="156" y="760" name="top"/>
  <outline>
    <contour>
      <point x="17" y="0" type="line"/>
      <point x="302" y="0" type="line"/>
      <point x="302" y="56" type="line"/>
      <point x="293" y="56" type="line" smooth="yes"/>
      <point x="263" y="56"/>
      <point x="241" y="71"/>
      <point x="241" y="127" type="curve" smooth="yes"/>
      <point x="241" y="388" type="line"/>
      <point x="310" y="441" type="line"/>
      <point x="310" y="513" type="line"/>
      <point x="241" y="459" type="line"/>
      <point x="241" y="760" type="line"/>
      <point x="17" y="760" type="line"/>
      <point x="17" y="704" type="line"/>
      <point x="25" y="704" type="line" smooth="yes"/>
      <point x="38" y="704"/>
      <point x="78" y="697"/>
      <point x="78" y="645" type="curve" smooth="yes"/>
      <point x="78" y="353" type="line"/>
      <point x="12" y="302" type="line"/>
      <point x="12" y="233" type="line"/>
      <point x="78" y="284" type="line"/>
      <point x="78" y="127" type="line" smooth="yes"/>
      <point x="78" y="71"/>
      <point x="56" y="56"/>
      <point x="25" y="56" type="curve" smooth="yes"/>
      <point x="17" y="56" type="line"/>
    </contour>
  </outline>
</glyph>
<glyph name="napostrophe.mono" format="2">
  <advance width="500"/>
  <unicode hex="0149"/>
  <anchor x="260" y="0" name="bottom"/>
  <anchor x="265" y="553" name="top"/>
  <outline>
    <contour>
      <point x="45" y="0" type="line"/>
      <point x="200" y="0" type="line"/>
      <point x="200" y="253" type="line" smooth="yes"/>
      <point x="200" y="369"/>
      <point x="219" y="418"/>
      <point x="263" y="418" type="curve" smooth="yes"/>
      <point x="298" y="418"/>
      <point x="315" y="388"/>
      <point x="315" y="308" type="curve" smooth="yes"/>
      <point x="315" y="0" type="line"/>
      <point x="470" y="0" type="line"/>
      <point x="470" y="360" type="line" smooth="yes"/>
      <point x="470" y="499"/>
      <point x="412" y="563"/>
      <point x="319" y="563" type="curve" smooth="yes"/>
      <point x="257" y="563"/>
      <point x="223" y="535"/>
      <point x="199" y="484" type="curve"/>
      <point x="190" y="484" type="line"/>
      <point x="172" y="553" type="line"/>
      <point x="45" y="553" type="line"/>
    </contour>
    <component base="quoteright" xOffset="-284"/>
  </outline>
</glyph>
<glyph name="Eng.mono" format="2">
  <advance width="500"/>
  <unicode hex="014A"/>
  <anchor x="255" y="-218" name="bottom"/>
  <anchor x="255" y="714" name="top"/>
  <outline>
    <contour>
      <point x="289" y="-218" type="curve" smooth="yes"/>
      <point x="419" y="-218"/>
      <point x="475" y="-137"/>
      <point x="475" y="-4" type="curve" smooth="yes"/>
      <point x="475" y="129" type="line"/>
      <point x="351" y="99" type="line"/>
      <point x="351" y="4" type="line" smooth="yes"/>
      <point x="351" y="-70"/>
      <point x="326" y="-107"/>
      <point x="265" y="-107" type="curve" smooth="yes"/>
      <point x="244" y="-107"/>
      <point x="226" y="-103"/>
      <point x="210" y="-97" type="curve"/>
      <point x="210" y="-207" type="line"/>
      <point x="235" y="-215"/>
      <point x="261" y="-218"/>
    </contour>
    <component base="N"/>
  </outline>
</glyph>
<glyph name="Eng.serif" format="2">
  <advance width="672"/>
  <unicode hex="014A"/>
  <anchor x="336" y="-240" name="bottom"/>
  <anchor x="336" y="714" name="top"/>
  <outline>
    <contour>
      <point x="400" y="-240" type="line"/>
      <point x="444" y="-240" type="line" smooth="yes"/>
      <point x="537" y="-240"/>
      <point x="589" y="-180"/>
      <point x="589" y="-2" type="curve" smooth="yes"/>
      <point x="589" y="595" type="line" smooth="yes"/>
      <point x="589" y="643"/>
      <point x="605" y="658"/>
      <point x="630" y="658" type="curve" smooth="yes"/>
      <point x="665" y="658" type="line"/>
      <point x="665" y="714" type="line"/>
      <point x="442" y="714" type="line"/>
      <point x="442" y="658" type="line"/>
      <point x="478" y="658" type="line" smooth="yes"/>
      <point x="500" y="658"/>
      <point x="518" y="645"/>
      <point x="518" y="599" type="curve" smooth="yes"/>
      <point x="518" y="228" type="line"/>
      <point x="227" y="714" type="line"/>
      <point x="18" y="714" type="line"/>
      <point x="18" y="658" type="line"/>
      <point x="53" y="658" type="line" smooth="yes"/>
      <point x="74" y="658"/>
      <point x="94" y="651"/>
      <point x="94" y="599" type="curve" smooth="yes"/>
      <point x="94" y="119" type="line" smooth="yes"/>
      <point x="94" y="63"/>
      <point x="75" y="56"/>
      <point x="45" y="56" type="curve" smooth="yes"/>
      <point x="18" y="56" type="line"/>
      <point x="18" y="0" type="line"/>
      <point x="241" y="0" type="line"/>
      <point x="241" y="56" type="line"/>
      <point x="205" y="56" type="line" smooth="yes"/>
      <point x="176" y="56"/>
      <point x="165" y="63"/>
      <point x="165" y="119" type="curve" smooth="yes"/>
      <point x="165" y="549" type="line"/>
      <point x="518" y="1" type="line"/>
      <point x="518" y="-9" type="line" smooth="yes"/>
      <point x="518" y="-127"/>
      <point x="470" y="-179"/>
      <point x="418" y="-179" type="curve" smooth="yes"/>
      <point x="400" y="-179" type="line"/>
    </contour>
  </outline>
</glyph>
<glyph name="eng.mono" format="2">
  <advance width="500"/>
  <unicode hex="014B"/>
  <anchor x="255" y="-240" name="bottom"/>
  <anchor x="260" y="553" name="top"/>
  <anchor x="501" y="553" name="topright"/>
  <outline>
    <contour>
      <point x="296" y="-240" type="curve" smooth="yes"/>
      <point x="413" y="-240"/>
      <point x="470" y="-154"/>
      <point x="470" y="-52" type="curve" smooth="yes"/>
      <point x="470" y="358" type="line"/>
      <point x="315" y="316" type="line" smooth="yes"/>
      <point x="315" y="-42" type="line" smooth="yes"/>
      <point x="315" y="-90"/>
      <point x="292" y="-113"/>
      <point x="262" y="-113" type="curve" smooth="yes"/>
      <point x="249" y="-113"/>
      <point x="235" y="-110"/>
      <point x="219" y="-104" type="curve"/>
      <point x="219" y="-229" type="line"/>
      <point x="244" y="-237"/>
      <point x="271" y="-240"/>
    </contour>
    <component base="n"/>
  </outline>
</glyph>
<glyph name="eng.serif" format="2">
  <advance width="576"/>
  <unicode hex="014B"/>
  <anchor x="288" y="-240" name="bottom"/>
  <anchor x="288" y="536" name="top"/>
  <anchor x="550" y="536" name="topright"/>
  <outline>
    <contour>
      <point x="249" y="-240" type="line"/>
      <point x="267" y="-240" type="line" smooth="yes"/>
      <point x="401" y="-240"/>
      <point x="497" y="-187"/>
      <point x="497" y="-8" type="curve" smooth="yes"/>
      <point x="497" y="357" type="line" smooth="yes"/>
      <point x="497" y="492"/>
      <point x="451" y="550"/>
      <point x="362" y="550" type="curve" smooth="yes"/>
      <point x="289" y="550"/>
      <point x="257" y="515"/>
      <point x="236" y="467" type="curve"/>
      <point x="232" y="467" type="line"/>
      <point x="221" y="536" type="line"/>
      <point x="15" y="536" type="line"/>
      <point x="15" y="480" type="line"/>
      <point x="19" y="480" type="line" smooth="yes"/>
      <point x="56" y="480"/>
      <point x="72" y="471"/>
      <point x="72" y="416" type="curve" smooth="yes"/>
      <point x="72" y="124" type="line" smooth="yes"/>
      <point x="72" y="65"/>
      <point x="53" y="56"/>
      <point x="15" y="56" type="curve" smooth="yes"/>
      <point x="11" y="56" type="line"/>
      <point x="11" y="0" type="line"/>
      <point x="291" y="0" type="line"/>
      <point x="291" y="56" type="line"/>
      <point x="288" y="56" type="line" smooth="yes"/>
      <point x="251" y="56"/>
      <point x="235" y="65"/>
      <point x="235" y="121" type="curve" smooth="yes"/>
      <point x="235" y="306" type="line" smooth="yes"/>
      <point x="235" y="387"/>
      <point x="248" y="460"/>
      <point x="290" y="460" type="curve" smooth="yes"/>
      <point x="325" y="460"/>
      <point x="335" y="410"/>
      <point x="335" y="325" type="curve" smooth="yes"/>
      <point x="335" y="3" type="line" smooth="yes"/>
      <point x="335" y="-133"/>
      <point x="305" y="-174"/>
      <point x="254" y="-174" type="curve" smooth="yes"/>
      <point x="249" y="-174" type="line"/>
    </contour>
  </outline>
</glyph>
<glyph name="OE.serif" format="2">
  <advance width="887"/>
  <unicode hex="0152"/>
  <anchor x="444" y="0" name="bottom"/>
  <anchor x="444" y="714" name="top"/>
  <outline>
    <contour>
      <point x="343" y="-10" type="curve" smooth="yes"/>
      <point x="371" y="-10"/>
      <point x="405" y="-6"/>
      <point x="430" y="0" type="curve"/>
      <point x="860" y="0" type="line"/>
      <point x="866" y="187" type="line"/>
      <point x="797" y="187" type="line"/>
      <point x="791" y="139" type="line" smooth="yes"/>
      <point x="785" y="94"/>
      <point x="768" y="64"/>
      <point x="733" y="64" type="curve" smooth="yes"/>
      <point x="583" y="64" type="line"/>
      <point x="583" y="342" type="line"/>
      <point x="780" y="342" type="line"/>
      <point x="780" y="405" type="line"/>
      <point x="583" y="405" type="line"/>
      <point x="583" y="650" type="line"/>
      <point x="708" y="650" type="line" smooth="yes"/>
      <point x="747" y="650"/>
      <point x="761" y="626"/>
      <point x="764" y="575" type="curve" smooth="yes"/>
      <point x="768" y="527" type="line"/>
      <point x="838" y="527" type="line"/>
      <point x="835" y="714" type="line"/>
      <point x="434" y="714" type="line"/>
      <point x="408" y="721"/>
      <point x="373" y="725"/>
      <point x="344" y="725" type="curve" smooth="yes"/>
      <point x="142" y="725"/>
      <point x="45" y="580"/>
      <point x="45" y="359" type="curve" smooth="yes"/>
      <point x="45" y="137"/>
      <point x="142" y="-10"/>
    </contour>
    <contour>
      <point x="343" y="58" type="curve" smooth="yes"/>
      <point x="254" y="58"/>
      <point x="221" y="169"/>
      <point x="221" y="358" type="curve" smooth="yes"/>
      <point x="221" y="547"/>
      <point x="254" y="657"/>
      <point x="344" y="657" type="curve" smooth="yes"/>
      <point x="377" y="657"/>
      <point x="401" y="646"/>
      <point x="417" y="630" type="curve"/>
      <point x="417" y="85" type="line"/>
      <point x="397" y="68"/>
      <point x="376" y="58"/>
    </contour>
  </outline>
</glyph>
<glyph name="Tbar.serif" format="2">
  <advance width="569"/>
  <unicode hex="0166"/>
  <anchor x="285" y="0" name="bottom"/>
  <anchor x="285" y="714" name="top"/>
  <outline>
    <contour>
      <point x="131" y="0" type="line"/>
      <point x="439" y="0" type="line"/>
      <point x="439" y="56" type="line"/>
      <point x="393" y="56" type="line" smooth="yes"/>
      <point x="379" y="56"/>
      <point x="370" y="63"/>
      <point x="370" y="119" type="curve" smooth="yes"/>
      <point x="370" y="331" type="line"/>
      <point x="474" y="331" type="line"/>
      <point x="474" y="384" type="line"/>
      <point x="370" y="384" type="line"/>
      <point x="370" y="650" type="line"/>
      <point x="426" y="650" type="line" smooth="yes"/>
      <point x="476" y="650"/>
      <point x="491" y="626"/>
      <point x="495" y="582" type="curve" smooth="yes"/>
      <point x="502" y="515" type="line"/>
      <point x="567" y="515" type="line"/>
      <point x="563" y="714" type="line"/>
      <point x="6" y="714" type="line"/>
      <point x="2" y="515" type="line"/>
      <point x="67" y="515" type="line"/>
      <point x="75" y="582" type="line" smooth="yes"/>
      <point x="79" y="626"/>
      <point x="94" y="650"/>
      <point x="144" y="650" type="curve" smooth="yes"/>
      <point x="201" y="650" type="line"/>
      <point x="201" y="384" type="line"/>
      <point x="95" y="384" type="line"/>
      <point x="95" y="331" type="line"/>
      <point x="201" y="331" type="line"/>
      <point x="201" y="121" type="line" smooth="yes"/>
      <point x="201" y="64"/>
      <point x="192" y="56"/>
      <point x="178" y="56" type="curve" smooth="yes"/>
      <point x="131" y="56" type="line"/>
    </contour>
  </outline>
</glyph>
<glyph name="tbar.mono" format="2">
  <advance width="500"/>
  <unicode hex="0167"/>
  <anchor x="296" y="0" name="bottom"/>
  <anchor x="233" y="682" name="top"/>
  <outline>
    <contour>
      <point x="10" y="231" type="line"/>
      <point x="485" y="231" type="line"/>
      <point x="485" y="334" type="line"/>
      <point x="10" y="334" type="line"/>
    </contour>
    <component base="t"/>
  </outline>
</glyph>
<glyph name="tbar.serif" format="2">
  <advance width="371"/>
  <unicode hex="0167"/>
  <anchor x="186" y="0" name="bottom"/>
  <anchor x="186" y="660" name="top"/>
  <outline>
    <contour>
      <point x="22" y="279" type="line"/>
      <point x="343" y="279" type="line"/>
      <point x="343" y="333" type="line"/>
      <point x="22" y="333" type="line"/>
    </contour>
    <component base="t"/>
  </outline>
</glyph>
<glyph name="Uogonek.mono" format="2">
  <advance width="500"/>
  <unicode hex="0172"/>
  <anchor x="287" y="-240" name="bottom"/>
  <anchor x="250" y="714" name="top"/>
  <outline>
    <contour>
      <point x="286" y="-240" type="curve" smooth="yes"/>
      <point x="318" y="-240"/>
      <point x="341" y="-233"/>
      <point x="356" y="-226" type="curve"/>
      <point x="356" y="-136" type="line"/>
      <point x="346" y="-141"/>
      <point x="335" y="-145"/>
      <point x="321" y="-145" type="curve" smooth="yes"/>
      <point x="290" y="-145"/>
      <point x="277" y="-127"/>
      <point x="277" y="-102" type="curve" smooth="yes"/>
      <point x="277" y="-61"/>
      <point x="310" y="-24"/>
      <point x="374" y="17" type="curve"/>
      <point x="295" y="32" type="line"/>
      <point x="207" y="-6"/>
      <point x="168" y="-67"/>
      <point x="168" y="-133" type="curve" smooth="yes"/>
      <point x="168" y="-200"/>
      <point x="209" y="-240"/>
    </contour>
    <component base="U"/>
  </outline>
</glyph>
<glyph name="longs.serif" format="2">
  <advance width="350"/>
  <unicode hex="017F"/>
  <anchor x="175" y="0" name="bottom"/>
  <anchor x="245" y="769" name="top"/>
  <outline>
    <contour>
      <point x="2" y="0" type="line"/>
      <point x="339" y="0" type="line"/>
      <point x="339" y="56" type="line"/>
      <point x="294" y="56" type="line" smooth="yes"/>
      <point x="263" y="56"/>
      <point x="241" y="73"/>
      <point x="241" y="127" type="curve" smooth="yes"/>
      <point x="241" y="586" type="line" smooth="yes"/>
      <point x="241" y="675"/>
      <point x="252" y="709"/>
      <point x="278" y="709" type="curve" smooth="yes"/>
      <point x="307" y="709"/>
      <point x="314" y="674"/>
      <point x="314" y="627" type="curve"/>
      <point x="390" y="627"/>
      <point x="422" y="647"/>
      <point x="422" y="687" type="curve" smooth="yes"/>
      <point x="422" y="727"/>
      <point x="397" y="769"/>
      <point x="273" y="769" type="curve" smooth="yes"/>
      <point x="137" y="769"/>
      <point x="79" y="695"/>
      <point x="79" y="569" type="curve" smooth="yes"/>
      <point x="79" y="127" type="line" smooth="yes"/>
      <point x="79" y="71"/>
      <point x="58" y="56"/>
      <point x="27" y="56" type="curve" smooth="yes"/>
      <point x="2" y="56" type="line"/>
    </contour>
  </outline>
</glyph>
<glyph name="bstroke.mono" format="2">
  <advance width="500"/>
  <unicode hex="0180"/>
  <anchor x="250" y="0" name="bottom"/>
  <anchor x="264" y="760" name="top"/>
  <outline>
    <contour>
      <point x="-7" y="584" type="line"/>
      <point x="301" y="584" type="line"/>
      <point x="301" y="698" type="line"/>
      <point x="-7" y="698" type="line"/>
    </contour>
    <component base="b"/>
  </outline>
</glyph>
